<svg width="330" height="429" viewBox="0 0 330 429" fill="none" xmlns="http://www.w3.org/2000/svg">
<path d="M25.9885 427.241C21.2856 422.72 17.1531 417.64 13.6828 412.116C7.74183 402.836 1.91561 389.83 1.91561 374.59C1.96107 366.043 3.76397 357.598 7.21218 349.778C10.9727 341.028 17.002 331.854 26.0856 322.406C35.3105 312.853 41.481 303.449 45.3387 294.407C48.8602 286.28 50.6865 277.518 50.7059 268.66C50.7059 252.502 44.5265 238.763 38.3472 229.068C34.8416 223.468 30.6939 218.297 25.9885 213.66L24.6997 215.055C29.4087 219.697 33.5432 224.888 37.0142 230.516C42.9552 239.981 48.7815 253.226 48.7815 268.642C48.7425 277.269 46.94 285.797 43.4849 293.701C39.7243 302.531 33.695 311.714 24.6114 321.073C15.3866 330.627 9.21605 339.995 5.35837 348.975C1.82793 357.062 0.00377293 365.791 0 374.616C0 390.598 6.17934 404.107 12.3587 413.617C15.8619 419.119 20.011 424.182 24.7173 428.698L25.9885 427.285V427.241Z" fill="white"/>
<path d="M25.9885 213.625C21.2909 209.099 17.1588 204.02 13.6828 198.5C7.75066 189.193 1.89793 176.205 1.89793 160.938C1.94244 152.389 3.74535 143.94 7.19451 136.118C10.9551 127.377 16.9844 118.203 26.068 108.79C35.2929 99.2366 41.4634 89.8418 45.321 80.8003C48.8678 72.6599 50.7123 63.8798 50.7412 55C50.7412 38.8329 44.5619 25.0939 38.3825 15.3989C34.8815 9.79859 30.7334 4.63003 26.0239 0L24.735 1.3951C29.4388 6.04152 33.5728 11.2316 37.0496 16.8559C42.9905 26.3301 48.8168 39.5658 48.8168 54.9912C48.7786 63.6151 46.9761 72.14 43.5202 80.0409C39.7596 88.8706 33.7304 98.0534 24.6467 107.466C15.4219 117.02 9.25134 126.379 5.39367 135.368C1.86059 143.431 0.0246101 152.135 0 160.938C0 176.92 6.17934 190.429 12.3587 199.939C15.8575 205.442 20.007 210.502 24.7174 215.011L25.9885 213.598V213.625Z" fill="white"/>
<path d="M36.6956 427.241C31.9956 422.717 27.8633 417.638 24.3898 412.116C18.4312 402.818 12.6138 389.812 12.6138 374.616C12.6593 366.07 14.4622 357.624 17.9104 349.805C21.6709 341.055 27.709 331.881 36.7838 322.433C46.0087 312.879 52.1792 303.475 56.0457 294.434C59.5672 286.297 61.3934 277.527 61.4129 268.66C61.4129 252.502 55.2336 238.763 49.0542 229.068C45.5553 223.463 41.407 218.292 36.6956 213.66L35.4155 215.055C40.1246 219.697 44.2591 224.888 47.7301 230.516C53.6711 239.981 59.5061 253.226 59.4973 268.642C59.4583 277.269 57.6559 285.797 54.2007 293.701C50.4402 302.531 44.4109 311.714 35.3273 321.073C26.1642 330.662 19.9937 340.03 16.1449 349.01C12.5919 357.081 10.7407 365.798 10.707 374.616C10.707 390.598 16.8864 404.107 23.0657 413.617C26.5708 419.118 30.7197 424.18 35.4244 428.698L36.6867 427.285L36.6956 427.241Z" fill="white"/>
<path d="M36.7307 213.625C32.0359 209.096 27.9042 204.018 24.425 198.5C18.4664 189.193 12.649 176.205 12.649 160.938C12.6935 152.389 14.4964 143.94 17.9455 136.118C21.7061 127.377 27.7442 118.203 36.819 108.79C46.0439 99.2366 52.2144 89.8418 56.0809 80.8003C59.621 72.6581 61.4624 63.8788 61.4922 55C61.4922 38.8329 55.3129 25.0939 49.1335 15.3989C45.6391 9.79389 41.4904 4.62458 36.7748 0L35.4949 1.3951C40.1987 6.04152 44.3326 11.2316 47.8094 16.8559C53.7504 26.3301 59.5854 39.5658 59.5766 54.9912C59.5384 63.6151 57.7359 72.14 54.28 80.0409C50.5195 88.8706 44.4902 98.0534 35.4066 107.466C26.1905 117.02 20.02 126.379 16.1535 135.368C12.6144 143.429 10.7724 152.134 10.7422 160.938C10.7422 176.92 16.9215 190.429 23.1009 199.939C26.6014 205.44 30.7508 210.501 35.4595 215.011L36.7219 213.598L36.7307 213.625Z" fill="white"/>
<path d="M47.3938 427.241C42.6895 422.719 38.5541 417.639 35.0792 412.116C29.1382 402.836 23.312 389.83 23.3208 374.59C23.3519 366.046 25.1397 357.601 28.5733 349.778C32.3427 341.028 38.3719 331.854 47.4556 322.406C56.6716 312.853 62.8421 303.449 66.7086 294.407C70.2427 286.282 72.0811 277.521 72.1111 268.66C72.1111 252.502 65.9318 238.763 59.7524 229.068C56.2535 223.463 52.1052 218.292 47.3938 213.66L46.1138 215.055C50.8257 219.694 54.9605 224.885 58.4283 230.516C64.3781 239.981 70.2043 253.226 70.2043 268.642C70.1654 277.269 68.3629 285.797 64.9078 293.701C61.1384 302.531 55.1091 311.714 46.0255 321.073C36.8889 330.662 30.7096 340.03 26.8254 349.01C23.2851 357.084 21.4432 365.8 21.4141 374.616C21.4141 390.598 27.5934 404.107 33.7727 413.617C37.2778 419.118 41.4267 424.18 46.1314 428.698L47.3938 427.285V427.241Z" fill="white"/>
<path d="M47.4719 213.625C42.7728 209.098 38.638 204.019 35.1574 198.5C29.2164 189.211 23.3901 176.214 23.399 160.974C23.429 152.427 25.2169 143.979 28.6514 136.153C32.4208 127.412 38.4501 118.238 47.5337 108.826C56.7497 99.272 62.9202 89.8772 66.7867 80.8357C70.3309 72.6948 72.1725 63.9146 72.1981 55.0354C72.1981 38.8682 66.0187 25.1293 59.8394 15.4343C56.345 9.82929 52.1962 4.65998 47.4807 0.0354004L46.2007 1.43045C50.9075 6.07422 55.0417 11.2647 58.5152 16.8912C64.4651 26.3654 70.2913 39.6011 70.2913 55.0265C70.2531 63.6505 68.4506 72.1753 64.9947 80.0763C61.2253 88.9059 55.196 98.0888 46.1124 107.501C36.967 117.055 30.7877 126.414 26.9035 135.403C23.3727 143.455 21.531 152.146 21.4922 160.938C21.4922 176.92 27.6715 190.429 33.8509 199.939C37.3514 205.44 41.5008 210.501 46.2095 215.011L47.4719 213.598V213.625Z" fill="white"/>
<path d="M58.0979 427.241C53.395 422.72 49.2624 417.64 45.7922 412.116C39.8512 402.836 34.025 389.83 34.025 374.59C34.0704 366.043 35.8733 357.598 39.3216 349.778C43.0821 341.028 49.1114 331.854 58.195 322.406C67.3404 312.879 73.5198 303.475 77.3951 294.434C80.9383 286.302 82.7828 277.531 82.8152 268.66C82.8152 252.502 76.6359 238.763 70.4566 229.068C66.951 223.468 62.8033 218.297 58.0979 213.66L56.8091 215.055C61.5181 219.697 65.6526 224.888 69.1236 230.516C75.0646 239.981 80.8908 253.226 80.8908 268.642C80.8519 277.269 79.0494 285.797 75.5943 293.701C71.8337 302.531 65.7956 311.714 56.7208 321.073C47.4959 330.627 41.3254 339.995 37.4677 348.975C33.9373 357.062 32.1131 365.791 32.1094 374.616C32.1094 390.598 38.2887 404.107 44.468 413.617C47.9713 419.119 52.1204 424.182 56.8267 428.698L58.0979 427.285V427.241Z" fill="white"/>
<path d="M58.1878 213.625C53.4901 209.099 49.3581 204.02 45.882 198.5C39.941 189.211 34.1148 176.214 34.1148 160.974C34.1593 152.424 35.9622 143.976 39.4114 136.153C43.172 127.412 49.2012 118.238 58.2849 108.826C67.5097 99.272 73.6802 89.8772 77.5379 80.8357C81.0847 72.6953 82.9292 63.9152 82.9581 55.0354C82.9581 38.8682 76.7787 25.1293 70.5994 15.4343C67.0983 9.83399 62.9502 4.66543 58.2407 0.0354004L56.9519 1.43045C61.6557 6.07687 65.7896 11.267 69.2664 16.8912C75.2074 26.3654 81.0337 39.6011 81.0337 55.0265C80.9955 63.6505 79.193 72.1753 75.7371 80.0763C71.9765 88.9059 65.9384 98.0888 56.8636 107.501C47.6387 117.055 41.4682 126.414 37.6106 135.403C34.0761 143.454 32.2342 152.146 32.1992 160.938C32.1992 176.92 38.3786 190.429 44.5579 199.939C48.0567 205.442 52.2062 210.502 56.9166 215.011L58.1878 213.598V213.625Z" fill="white"/>
<path d="M68.8049 427.241C64.1049 422.717 59.9727 417.638 56.4992 412.116C50.5582 402.836 44.732 389.83 44.732 374.59C44.7775 366.043 46.5804 357.598 50.0286 349.778C53.7891 341.028 59.8272 331.854 68.902 322.406C78.1269 312.853 84.2974 303.449 88.1639 294.407C91.6788 286.278 93.502 277.517 93.5222 268.66C93.5222 252.502 87.3429 238.763 81.1636 229.068C77.6646 223.463 73.5164 218.292 68.8049 213.66L67.5161 215.055C72.2251 219.697 76.3596 224.888 79.8306 230.516C85.7981 239.973 91.6243 253.217 91.6243 268.66C91.5854 277.287 89.7829 285.814 86.3277 293.719C82.5672 302.548 76.5379 311.731 67.4543 321.091C58.2383 330.644 52.0678 340.013 48.2013 348.992C44.6641 357.072 42.831 365.795 42.8164 374.616C42.8164 390.598 48.9957 404.107 55.1751 413.617C58.6801 419.118 62.829 424.18 67.5337 428.698L68.7961 427.285L68.8049 427.241Z" fill="white"/>
<path d="M68.9455 213.625C64.2508 209.096 60.119 204.018 56.6398 198.5C50.6989 189.211 44.8726 176.214 44.8726 160.974C44.9171 152.424 46.7201 143.976 50.1692 136.153C53.9298 127.412 59.9679 118.238 69.0427 108.826C78.2675 99.272 84.438 89.8772 88.3045 80.8357C91.8447 72.6935 93.686 63.9142 93.7159 55.0354C93.7159 38.8682 87.5365 25.1293 81.3572 15.4343C77.8628 9.82929 73.714 4.65998 68.9985 0.0354004L67.7097 1.43045C72.4135 6.07687 76.5475 11.267 80.0242 16.8912C85.9387 26.3654 91.765 39.6011 91.765 55.0265C91.7268 63.6505 89.9243 72.1753 86.4684 80.0763C82.7078 88.9059 76.6785 98.0888 67.5949 107.501C58.3789 117.055 52.2084 126.414 48.3419 135.403C44.8166 143.456 42.9837 152.147 42.957 160.938C42.957 176.92 49.1364 190.429 55.3157 199.939C58.8162 205.44 62.9656 210.501 67.6744 215.011L68.9367 213.598L68.9455 213.625Z" fill="white"/>
<path d="M79.5031 427.241C74.7988 422.719 70.6635 417.639 67.1886 412.116C61.2476 402.836 55.4214 389.83 55.4302 374.59C55.4612 366.046 57.2491 357.601 60.6827 349.778C64.452 341.028 70.4813 331.854 79.5649 322.406C88.781 312.853 94.9515 303.449 98.818 294.407C102.352 286.282 104.19 277.521 104.22 268.66C104.22 252.502 98.0411 238.763 91.8618 229.068C88.3629 223.463 84.2146 218.292 79.5031 213.66L78.2231 215.055C82.9506 219.692 87.1003 224.883 90.5818 230.516C96.5316 239.981 102.358 253.226 102.358 268.642C102.319 277.269 100.516 285.797 97.0613 293.701C93.2919 302.531 87.2626 311.714 78.179 321.073C68.9629 330.627 62.7924 339.995 58.9259 348.975C55.384 357.06 53.5449 365.789 53.5234 374.616C53.5234 390.598 59.7028 404.107 65.8821 413.617C69.3872 419.118 73.5361 424.18 78.2408 428.698L79.5031 427.285V427.241Z" fill="white"/>
<path d="M79.6945 213.625C74.9954 209.098 70.8606 204.019 67.38 198.5C61.439 189.211 55.6128 176.214 55.6216 160.974C55.6517 152.427 57.4396 143.979 60.8741 136.153C64.6435 127.412 70.6727 118.238 79.7563 108.826C88.9724 99.272 95.1429 89.8772 99.0094 80.8357C102.554 72.6948 104.395 63.9146 104.421 55.0354C104.421 38.8682 98.2414 25.1293 92.062 15.4343C88.5676 9.82929 84.4189 4.65998 79.7034 0.0354004L78.4234 1.43045C83.1456 6.07171 87.2947 11.2623 90.782 16.8912C96.7318 26.3654 102.558 39.6011 102.558 55.0265C102.52 63.6505 100.717 72.1753 97.2615 80.0763C93.4921 88.9059 87.4629 98.0888 78.3792 107.501C69.1632 117.055 62.9927 126.414 59.1262 135.403C55.5954 143.455 53.7536 152.146 53.7148 160.938C53.7148 176.92 59.8942 190.429 66.0735 199.939C69.5741 205.44 73.7234 210.501 78.4322 215.011L79.6945 213.598V213.625Z" fill="white"/>
<path d="M90.172 427.241C85.4691 422.72 81.3365 417.64 77.8663 412.116C71.9253 402.836 66.099 389.83 66.099 374.59C66.1445 366.043 67.9474 357.598 71.3956 349.778C75.1562 341.028 81.1855 331.854 90.2691 322.406C99.494 312.853 105.664 303.449 109.522 294.407C113.044 286.28 114.87 277.518 114.889 268.66C114.889 252.502 108.71 238.763 102.531 229.068C99.0251 223.468 94.8774 218.297 90.172 213.66L88.9361 215.029C93.6452 219.67 97.7796 224.861 101.251 230.489C107.192 239.955 113.018 253.199 113.018 268.616C112.979 277.243 111.176 285.77 107.721 293.675C103.961 302.504 97.9315 311.687 88.8478 321.047C79.623 330.6 73.4524 339.968 69.5948 348.948C66.0547 357.043 64.2244 365.781 64.2188 374.616C64.2188 390.598 70.3981 404.107 76.5774 413.617C80.0807 419.119 84.2298 424.182 88.9361 428.698L90.2073 427.285L90.172 427.241Z" fill="white"/>
<path d="M90.3751 213.625C85.6774 209.099 81.5454 204.02 78.0694 198.5C72.1284 189.211 66.3022 176.214 66.3022 160.974C66.3467 152.424 68.1496 143.976 71.5987 136.153C75.3593 127.412 81.3886 118.238 90.4722 108.826C99.6971 99.272 105.868 89.8772 109.725 80.8357C113.272 72.6953 115.117 63.9152 115.145 55.0354C115.145 38.8682 108.966 25.1293 102.787 15.4343C99.2857 9.83399 95.1376 4.66543 90.428 0.0354004L89.1392 1.42166C93.843 6.06808 97.977 11.2582 101.454 16.8824C107.395 26.3566 113.221 39.5923 113.221 55.0177C113.183 63.6416 111.38 72.1665 107.924 80.0674C104.164 88.8971 98.1346 98.08 89.0509 107.492C79.8261 117.046 73.6556 126.406 69.7979 135.394C66.2744 143.45 64.4445 152.145 64.4219 160.938C64.4219 176.92 70.6012 190.429 76.7805 199.939C80.2793 205.442 84.4289 210.502 89.1392 215.011L90.4104 213.598L90.3751 213.625Z" fill="white"/>
<path d="M100.862 427.241C96.1615 422.717 92.0293 417.638 88.5558 412.116C82.6148 402.836 76.7886 389.83 76.7886 374.59C76.834 366.043 78.6369 357.598 82.0852 349.778C85.8457 341.028 91.8838 331.854 100.959 322.406C110.183 312.853 116.354 303.449 120.22 294.407C123.735 286.278 125.559 277.517 125.579 268.66C125.579 252.502 119.4 238.763 113.22 229.068C109.721 223.463 105.573 218.292 100.862 213.66L99.5815 215.055C104.306 219.694 108.455 224.885 111.94 230.516C117.881 239.981 123.716 253.226 123.707 268.642C123.668 277.269 121.866 285.797 118.411 293.701C114.65 302.531 108.621 311.714 99.5374 321.073C90.3213 330.627 84.1508 339.995 80.2843 348.975C76.7417 357.06 74.9055 365.789 74.8906 374.616C74.8906 390.598 81.07 404.107 87.2493 413.617C90.7544 419.118 94.9033 424.18 99.608 428.698L100.87 427.285L100.862 427.241Z" fill="white"/>
<path d="M101.115 213.625C96.4206 209.096 92.2889 204.018 88.8097 198.5C82.8687 189.211 77.0425 176.213 77.0425 160.973C77.087 152.424 78.8899 143.976 82.3391 136.153C86.0996 127.412 92.1377 118.238 101.213 108.825C110.437 99.2718 116.608 89.8771 120.474 80.8355C123.998 72.6867 125.821 63.9044 125.833 55.0263C125.833 38.8592 119.653 25.1203 113.474 15.4253C109.98 9.82026 105.831 4.65095 101.115 0.0263672L99.8354 1.42147C104.555 6.0654 108.704 11.2556 112.194 16.8822C118.135 26.3564 123.97 39.5921 123.961 55.0175C123.923 63.6414 122.121 72.1663 118.665 80.0672C114.904 88.8969 108.875 98.0798 99.7913 107.492C90.5752 117.046 84.4047 126.405 80.5382 135.394C77.0087 143.449 75.1728 152.144 75.1445 160.938C75.1445 176.92 81.3239 190.429 87.5032 199.939C91.0037 205.44 95.1531 210.501 99.8619 215.011L101.124 213.598L101.115 213.625Z" fill="white"/>
<path d="M111.558 427.241C106.854 422.719 102.718 417.639 99.2433 412.116C93.3023 402.836 87.4761 389.83 87.4761 374.59C87.5258 366.044 89.3285 357.599 92.7726 349.778C96.542 341.028 102.571 331.854 111.655 322.406C120.871 312.853 127.041 303.449 130.908 294.407C134.43 286.28 136.256 277.518 136.275 268.66C136.275 252.502 130.096 238.763 123.917 229.068C120.418 223.463 116.269 218.292 111.558 213.66L110.278 215.055C115.005 219.692 119.155 224.883 122.636 230.516C128.586 239.981 134.413 253.226 134.413 268.642C134.374 277.269 132.571 285.797 129.116 293.701C125.347 302.531 119.317 311.714 110.234 321.073C101.018 330.627 94.8471 339.995 90.9806 348.975C87.4386 357.06 85.5996 365.789 85.5781 374.616C85.5781 390.598 91.7575 404.107 97.9368 413.617C101.442 419.118 105.591 424.18 110.295 428.698L111.558 427.285V427.241Z" fill="white"/>
<path d="M111.812 213.625C107.113 209.098 102.978 204.019 99.4972 198.5C93.5915 189.193 87.7212 176.205 87.7212 160.938C87.7699 152.39 89.5727 143.942 93.0177 136.118C96.7871 127.377 102.816 118.203 111.9 108.79C121.116 99.2366 127.287 89.8418 131.153 80.8003C134.697 72.6594 136.539 63.8793 136.564 55C136.564 38.8329 130.385 25.0939 124.206 15.3989C120.711 9.79389 116.563 4.62458 111.847 0L110.567 1.3951C115.289 6.03637 119.438 11.227 122.926 16.8559C128.876 26.3301 134.702 39.5658 134.702 54.9912C134.664 63.6151 132.861 72.14 129.405 80.0409C125.636 88.8706 119.607 98.0534 110.523 107.466C101.307 117.02 95.1364 126.379 91.2699 135.368C87.7252 143.429 85.8743 152.132 85.832 160.938C85.832 176.92 92.0114 190.429 98.1907 199.939C101.691 205.44 105.841 210.501 110.549 215.011L111.812 213.598V213.625Z" fill="white"/>
<path d="M122.262 427.241C117.559 422.72 113.427 417.64 109.956 412.116C103.998 402.818 98.189 389.812 98.189 374.616C98.2345 366.07 100.037 357.624 103.486 349.805C107.246 341.055 113.275 331.881 122.359 322.433C131.584 312.879 137.754 303.475 141.612 294.434C145.137 286.298 146.964 277.527 146.979 268.66C146.979 252.502 140.8 238.763 134.621 229.068C131.115 223.468 126.967 218.297 122.262 213.66L120.973 215.055C125.698 219.694 129.847 224.885 133.332 230.516C139.273 239.981 145.099 253.226 145.099 268.642C145.06 277.269 143.258 285.797 139.803 293.701C136.042 302.531 130.004 311.714 120.929 321.073C111.722 330.662 105.551 340.03 101.72 349.01C98.1641 357.08 96.3099 365.797 96.2734 374.616C96.2734 390.598 102.453 404.107 108.632 413.617C112.135 419.119 116.284 424.182 120.991 428.698L122.262 427.285V427.241Z" fill="white"/>
<path d="M122.551 213.625C117.853 209.099 113.721 204.02 110.245 198.5C104.287 189.193 98.4781 176.205 98.4781 160.938C98.5226 152.389 100.326 143.94 103.775 136.118C107.482 127.386 113.485 118.229 122.595 108.843C131.82 99.2896 137.991 89.8948 141.848 80.8532C145.395 72.7128 147.24 63.9328 147.268 55.053C147.268 38.8859 141.089 25.1469 134.91 15.4519C131.409 9.85157 127.261 4.68301 122.551 0.0529785L121.262 1.44808C125.982 6.09201 130.13 11.2822 133.621 16.9088C139.562 26.3831 145.388 39.6187 145.388 55.0442C145.35 63.6681 143.547 72.193 140.092 80.0939C136.331 88.9236 130.293 98.1064 121.218 107.519C111.993 117.073 105.823 126.432 101.965 135.421C98.436 143.467 96.5972 152.152 96.5625 160.938C96.5625 176.92 102.742 190.429 108.921 199.939C112.42 205.442 116.57 210.502 121.28 215.011L122.551 213.598V213.625Z" fill="white"/>
<path d="M132.969 427.241C128.269 422.717 124.137 417.638 120.663 412.116C114.722 402.836 108.896 389.83 108.896 374.59C108.942 366.043 110.744 357.598 114.193 349.778C117.953 341.028 123.991 331.854 133.066 322.406C142.291 312.853 148.461 303.449 152.328 294.407C155.843 286.278 157.666 277.517 157.686 268.66C157.686 252.502 151.507 238.763 145.328 229.068C141.829 223.463 137.68 218.292 132.969 213.66L131.68 215.055C136.405 219.694 140.554 224.885 144.039 230.516C149.98 239.981 155.815 253.226 155.806 268.642C155.767 277.269 153.965 285.797 150.509 293.701C146.749 302.531 140.72 311.714 131.636 321.073C122.473 330.662 116.294 340.03 112.401 349.01C108.854 357.082 107.009 365.799 106.98 374.616C106.98 390.598 113.16 404.107 119.339 413.617C122.849 419.114 126.997 424.176 131.698 428.698L132.969 427.285V427.241Z" fill="white"/>
<path d="M133.258 213.625C128.563 209.096 124.432 204.018 120.952 198.5C114.994 189.193 109.167 176.205 109.167 160.938C109.212 152.389 111.015 143.94 114.464 136.118C118.225 127.377 124.263 118.203 133.337 108.79C142.562 99.2366 148.733 89.8418 152.599 80.8003C156.14 72.6581 157.981 63.8788 158.011 55C158.011 38.8329 151.831 25.0939 145.652 15.3989C142.158 9.79389 138.009 4.62458 133.293 0L132.005 1.3951C136.724 6.03903 140.873 11.2293 144.363 16.8559C150.304 26.3301 156.139 39.5658 156.13 54.9912C156.092 63.6151 154.29 72.14 150.834 80.0409C147.073 88.8706 141.044 98.0534 131.96 107.466C122.762 117.055 116.583 126.414 112.69 135.403C109.152 143.453 107.307 152.145 107.27 160.938C107.27 176.92 113.449 190.429 119.628 199.939C123.133 205.437 127.282 210.497 131.987 215.011L133.258 213.598V213.625Z" fill="white"/>
<path d="M143.667 427.241C138.963 422.719 134.828 417.639 131.353 412.116C125.412 402.836 119.585 389.83 119.594 374.59C119.625 366.046 121.413 357.601 124.847 349.778C128.616 341.028 134.645 331.854 143.729 322.406C152.927 312.879 159.107 303.475 162.973 294.434C166.514 286.301 168.355 277.53 168.385 268.66C168.385 252.502 162.205 238.763 156.026 229.068C152.527 223.463 148.379 218.292 143.667 213.66L142.387 215.055C147.096 219.692 151.227 224.88 154.693 230.507C160.643 239.973 166.469 253.217 166.469 268.634C166.43 277.26 164.628 285.788 161.172 293.692C157.403 302.522 151.374 311.705 142.29 321.064C133.074 330.618 126.904 339.986 123.037 348.966C119.512 357.058 117.691 365.789 117.688 374.616C117.688 390.598 123.867 404.107 130.046 413.617C133.551 419.118 137.7 424.18 142.405 428.698L143.667 427.285V427.241Z" fill="white"/>
<path d="M143.991 213.625C139.292 209.098 135.157 204.019 131.677 198.5C125.736 189.211 119.91 176.214 119.918 160.974C119.949 152.427 121.736 143.979 125.171 136.153C128.94 127.412 134.97 118.238 144.053 108.826C153.269 99.272 159.44 89.8772 163.306 80.8357C166.85 72.6948 168.692 63.9146 168.718 55.0354C168.718 38.8682 162.538 25.1293 156.359 15.4343C152.864 9.82929 148.716 4.65998 144 0.0354004L142.72 1.43045C147.421 6.07522 151.549 11.2657 155.017 16.8912C160.967 26.3654 166.793 39.6011 166.793 55.0265C166.755 63.6505 164.952 72.1753 161.497 80.0763C157.727 88.9059 151.698 98.0888 142.614 107.501C133.398 117.055 127.228 126.414 123.361 135.403C119.852 143.46 118.031 152.15 118.012 160.938C118.012 176.92 124.191 190.429 130.37 199.939C133.871 205.44 138.02 210.501 142.729 215.011L143.991 213.598V213.625Z" fill="white"/>
<path d="M154.371 427.241C149.668 422.72 145.536 417.64 142.066 412.116C136.125 402.836 130.298 389.83 130.298 374.59C130.344 366.043 132.147 357.598 135.595 349.778C139.356 341.028 145.385 331.854 154.468 322.406C163.693 312.853 169.864 303.449 173.722 294.407C177.243 286.28 179.069 277.518 179.089 268.66C179.089 252.502 172.909 238.763 166.73 229.068C163.224 223.468 159.077 218.297 154.371 213.66L153.083 215.055C157.792 219.697 161.926 224.888 165.397 230.516C171.365 239.973 177.2 253.217 177.2 268.66C177.161 277.287 175.358 285.814 171.903 293.719C168.142 302.548 162.113 311.731 153.03 321.091C143.805 330.644 137.634 340.013 133.776 348.992C130.236 357.072 128.4 365.795 128.383 374.616C128.383 390.598 134.562 404.107 140.741 413.617C144.245 419.119 148.394 424.182 153.1 428.698L154.371 427.285V427.241Z" fill="white"/>
<path d="M154.707 213.625C150.01 209.099 145.878 204.02 142.402 198.5C136.461 189.211 130.634 176.214 130.634 160.974C130.679 152.424 132.482 143.976 135.931 136.153C139.691 127.412 145.721 118.238 154.804 108.826C164.029 99.272 170.2 89.8772 174.057 80.8357C177.604 72.6953 179.449 63.9152 179.478 55.0354C179.478 38.8682 173.298 25.1293 167.119 15.4343C163.618 9.83399 159.47 4.66543 154.76 0.0354004L153.471 1.43045C158.175 6.07687 162.309 11.267 165.786 16.8912C171.727 26.3654 177.553 39.6011 177.553 55.0265C177.515 63.6505 175.713 72.1753 172.257 80.0763C168.496 88.9059 162.467 98.0888 153.383 107.501C144.158 117.055 137.988 126.414 134.13 135.403C130.596 143.454 128.754 152.146 128.719 160.938C128.719 176.92 134.898 190.429 141.077 199.939C144.576 205.442 148.726 210.502 153.436 215.011L154.707 213.598V213.625Z" fill="white"/>
<path d="M165.078 427.241C160.378 422.717 156.246 417.638 152.773 412.116C146.832 402.836 141.005 389.83 141.005 374.59C141.051 366.043 142.854 357.598 146.302 349.778C150.063 341.028 156.092 331.854 165.175 322.406C174.4 312.853 180.571 303.449 184.437 294.407C187.952 286.278 189.775 277.517 189.796 268.66C189.796 252.502 183.616 238.763 177.437 229.068C173.938 223.463 169.79 218.292 165.078 213.66L163.79 215.055C168.499 219.697 172.633 224.888 176.104 230.516C182.045 239.981 187.88 253.226 187.871 268.642C187.832 277.269 186.03 285.797 182.575 293.701C178.814 302.531 172.785 311.714 163.701 321.073C154.485 330.627 148.315 339.995 144.448 348.975C140.918 357.062 139.094 365.791 139.09 374.616C139.09 390.598 145.269 404.107 151.449 413.617C154.958 419.114 159.107 424.176 163.807 428.698L165.078 427.285V427.241Z" fill="white"/>
<path d="M165.465 213.625C160.77 209.096 156.639 204.018 153.159 198.5C147.218 189.211 141.392 176.214 141.392 160.974C141.437 152.424 143.24 143.976 146.689 136.153C150.449 127.412 156.479 118.238 165.562 108.826C174.787 99.272 180.958 89.8772 184.824 80.8357C188.364 72.6935 190.206 63.9142 190.235 55.0354C190.235 38.8682 184.056 25.1293 177.877 15.4343C174.382 9.82929 170.234 4.65998 165.518 0.0354004L164.229 1.43045C168.933 6.07687 173.067 11.267 176.544 16.8912C182.485 26.3654 188.32 39.6011 188.311 55.0265C188.273 63.6505 186.47 72.1753 183.014 80.0763C179.254 88.9059 173.225 98.0888 164.141 107.501C154.925 117.055 148.754 126.414 144.888 135.403C141.353 143.454 139.512 152.146 139.477 160.938C139.477 176.92 145.656 190.429 151.835 199.939C155.341 205.437 159.489 210.497 164.194 215.011L165.465 213.598V213.625Z" fill="white"/>
<path d="M175.732 427.241C171.028 422.719 166.893 417.639 163.418 412.116C157.477 402.836 151.651 389.83 151.66 374.59C151.691 366.046 153.478 357.601 156.912 349.778C160.681 341.028 166.711 331.854 175.794 322.406C185.01 312.853 191.181 303.449 195.047 294.407C198.581 286.282 200.42 277.521 200.45 268.66C200.45 252.502 194.27 238.763 188.091 229.068C184.592 223.463 180.444 218.292 175.732 213.66L174.452 215.055C179.164 219.694 183.299 224.885 186.767 230.516C192.717 239.981 198.543 253.226 198.543 268.642C198.504 277.269 196.702 285.797 193.246 293.701C189.477 302.531 183.448 311.714 174.364 321.073C165.148 330.627 158.978 339.995 155.111 348.975C151.599 357.067 149.791 365.795 149.797 374.616C149.797 390.598 155.976 404.107 162.156 413.617C165.661 419.118 169.81 424.18 174.514 428.698L175.777 427.285L175.732 427.241Z" fill="white"/>
<path d="M176.17 213.625C171.471 209.098 167.336 204.019 163.855 198.5C157.906 189.193 152.079 176.205 152.088 160.938C152.118 152.392 153.906 143.944 157.341 136.118C161.11 127.377 167.139 118.203 176.223 108.79C185.439 99.2366 191.609 89.8418 195.476 80.8003C199.02 72.6594 200.862 63.8793 200.887 55C200.887 38.8329 194.708 25.0939 188.529 15.3989C185.034 9.79389 180.885 4.62458 176.17 0L174.89 1.3951C179.597 6.03887 183.731 11.2294 187.204 16.8559C193.154 26.3301 198.98 39.5658 198.98 54.9912C198.942 63.6151 197.14 72.14 193.684 80.0409C189.915 88.8706 183.885 98.0534 174.802 107.466C165.586 117.02 159.415 126.379 155.549 135.368C152.046 143.438 150.238 152.141 150.234 160.938C150.234 176.92 156.414 190.429 162.593 199.939C166.094 205.44 170.243 210.501 174.952 215.011L176.214 213.598L176.17 213.625Z" fill="white"/>
<path d="M186.429 427.241C181.726 422.72 177.593 417.64 174.123 412.116C168.182 402.836 162.356 389.83 162.356 374.59C162.401 366.043 164.204 357.598 167.653 349.778C171.413 341.028 177.442 331.854 186.526 322.406C195.751 312.853 201.921 303.449 205.779 294.407C209.301 286.28 211.127 277.518 211.146 268.66C211.146 252.502 204.967 238.763 198.788 229.068C195.282 223.468 191.134 218.297 186.429 213.66L185.14 215.055C189.849 219.697 193.984 224.888 197.455 230.516C203.396 239.981 209.222 253.226 209.222 268.642C209.183 277.269 207.38 285.797 203.925 293.701C200.165 302.531 194.127 311.714 185.052 321.073C175.827 330.627 169.656 339.995 165.799 348.975C162.271 357.063 160.45 365.792 160.449 374.616C160.449 390.598 166.629 404.107 172.808 413.617C176.311 419.119 180.46 424.182 185.167 428.698L186.438 427.285L186.429 427.241Z" fill="white"/>
<path d="M186.866 213.625C182.169 209.099 178.037 204.02 174.561 198.5C168.62 189.211 162.793 176.213 162.793 160.973C162.838 152.424 164.641 143.976 168.09 136.153C171.851 127.412 177.88 118.238 186.963 108.825C196.188 99.2718 202.359 89.8771 206.217 80.8355C209.746 72.6885 211.573 63.9054 211.584 55.0263C211.584 38.8592 205.404 25.1203 199.225 15.4253C195.724 9.82496 191.576 4.6564 186.866 0.0263672L185.578 1.42147C190.281 6.06789 194.415 11.258 197.892 16.8822C203.833 26.3564 209.659 39.5921 209.659 55.0175C209.621 63.6414 207.819 72.1663 204.363 80.0672C200.602 88.8969 194.564 98.0798 185.489 107.492C176.264 117.046 170.094 126.405 166.236 135.394C162.722 143.452 160.901 152.147 160.887 160.938C160.887 176.92 167.066 190.429 173.245 199.939C176.744 205.442 180.894 210.502 185.604 215.011L186.875 213.598L186.866 213.625Z" fill="white"/>
<path d="M197.133 427.241C192.433 422.717 188.301 417.638 184.827 412.116C178.886 402.836 173.06 389.83 173.06 374.59C173.106 366.043 174.908 357.598 178.357 349.778C182.117 341.028 188.155 331.854 197.23 322.406C206.455 312.853 212.626 303.449 216.492 294.407C220.007 286.278 221.83 277.517 221.85 268.66C221.85 252.502 215.671 238.763 209.492 229.068C205.993 223.463 201.845 218.292 197.133 213.66L195.853 215.055C200.562 219.697 204.697 224.888 208.168 230.516C214.109 239.981 219.944 253.226 219.935 268.642C219.896 277.269 218.093 285.797 214.638 293.701C210.878 302.531 204.848 311.714 195.765 321.073C186.549 330.627 180.378 339.995 176.512 348.975C172.978 357.062 171.151 365.791 171.145 374.616C171.145 390.598 177.324 404.107 183.503 413.617C187.008 419.118 191.157 424.18 195.862 428.698L197.124 427.285L197.133 427.241Z" fill="white"/>
<path d="M197.571 213.625C192.876 209.096 188.744 204.018 185.265 198.5C179.324 189.211 173.498 176.214 173.498 160.974C173.542 152.424 175.345 143.976 178.794 136.153C182.555 127.412 188.593 118.238 197.668 108.826C206.893 99.272 213.063 89.8772 216.93 80.8357C220.47 72.6935 222.311 63.9142 222.341 55.0354C222.341 38.8682 216.162 25.1293 209.982 15.4343C206.488 9.82929 202.339 4.65998 197.624 0.0354004L196.343 1.43045C201.047 6.07687 205.181 11.267 208.658 16.8912C214.599 26.3654 220.434 39.6011 220.425 55.0265C220.387 63.6505 218.585 72.1753 215.129 80.0763C211.368 88.9059 205.339 98.0888 196.255 107.501C187.039 117.055 180.869 126.414 177.002 135.403C173.465 143.453 171.62 152.145 171.582 160.938C171.582 176.92 177.761 190.429 183.941 199.939C187.441 205.44 191.591 210.501 196.299 215.011L197.562 213.598L197.571 213.625Z" fill="white"/>
<path d="M207.831 427.241C203.111 422.721 198.961 417.642 195.473 412.116C189.567 402.818 183.776 389.812 183.776 374.616C183.807 366.073 185.595 357.627 189.028 349.805C192.798 341.055 198.827 331.881 207.911 322.433C217.127 312.879 223.297 303.475 227.164 294.434C230.695 286.299 232.528 277.529 232.549 268.66C232.549 252.502 226.369 238.763 220.19 229.068C216.691 223.463 212.543 218.292 207.831 213.66L206.551 215.055C211.263 219.694 215.398 224.885 218.866 230.516C224.816 239.981 230.642 253.226 230.642 268.642C230.603 277.269 228.8 285.797 225.345 293.701C221.576 302.531 215.547 311.714 206.463 321.073C197.3 330.662 191.129 340.03 187.307 349.01C183.752 357.081 181.895 365.797 181.852 374.616C181.852 390.598 188.031 404.107 194.21 413.617C197.715 419.118 201.864 424.18 206.569 428.698L207.831 427.285V427.241Z" fill="white"/>
<path d="M208.32 213.625C203.605 209.1 199.455 204.022 195.961 198.5C190.055 189.193 184.264 176.205 184.264 160.938C184.294 152.392 186.082 143.944 189.517 136.118C193.286 127.377 199.315 118.203 208.399 108.79C217.615 99.2366 223.786 89.8418 227.652 80.8003C231.196 72.6594 233.038 63.8793 233.063 55C233.063 38.8329 226.884 25.0939 220.705 15.3989C217.21 9.79389 213.062 4.62458 208.346 0L207.066 1.3951C211.773 6.03887 215.907 11.2294 219.381 16.8559C225.33 26.3301 231.157 39.5658 231.157 54.9912C231.118 63.6151 229.316 72.14 225.86 80.0409C222.091 88.8706 216.061 98.0534 206.978 107.466C197.762 117.02 191.591 126.379 187.725 135.368C184.198 143.432 182.365 152.136 182.34 160.938C182.34 176.92 188.519 190.429 194.699 199.939C198.199 205.44 202.348 210.501 207.057 215.011L208.32 213.598V213.625Z" fill="white"/>
<path d="M218.535 427.241C213.833 422.72 209.7 417.64 206.23 412.116C200.289 402.836 194.462 389.83 194.462 374.59C194.508 366.043 196.311 357.598 199.759 349.778C203.52 341.028 209.549 331.854 218.633 322.406C227.857 312.853 234.028 303.449 237.886 294.407C241.407 286.28 243.233 277.518 243.253 268.66C243.253 252.502 237.073 238.763 230.894 229.068C227.389 223.468 223.241 218.297 218.535 213.66L217.247 215.055C221.956 219.697 226.09 224.888 229.561 230.516C235.502 239.981 241.328 253.226 241.328 268.642C241.289 277.269 239.487 285.797 236.032 293.701C232.271 302.531 226.233 311.714 217.158 321.073C207.995 330.662 201.869 340.03 197.967 349.01C194.42 357.082 192.575 365.799 192.547 374.616C192.547 390.598 198.726 404.107 204.906 413.617C208.409 419.119 212.558 424.182 217.264 428.698L218.535 427.285V427.241Z" fill="white"/>
<path d="M219.051 213.625C214.353 209.099 210.221 204.02 206.745 198.5C200.804 189.211 194.978 176.214 194.978 160.974C195.023 152.424 196.825 143.976 200.275 136.153C204.035 127.412 210.064 118.238 219.148 108.826C228.373 99.272 234.543 89.8772 238.401 80.8357C241.948 72.6953 243.792 63.9152 243.821 55.0354C243.821 38.8682 237.642 25.1293 231.463 15.4343C227.962 9.83399 223.813 4.66543 219.104 0.0354004L217.815 1.43045C222.519 6.07687 226.653 11.267 230.13 16.8912C236.071 26.3654 241.897 39.6011 241.897 55.0265C241.859 63.6505 240.056 72.1753 236.6 80.0763C232.84 88.9059 226.802 98.0888 217.727 107.501C208.502 117.055 202.331 126.414 198.474 135.403C194.939 143.454 193.098 152.146 193.062 160.938C193.062 176.92 199.242 190.429 205.421 199.939C208.92 205.442 213.069 210.502 217.78 215.011L219.051 213.598V213.625Z" fill="white"/>
<path d="M229.242 427.241C224.542 422.717 220.41 417.638 216.937 412.116C210.996 402.836 205.169 389.83 205.169 374.59C205.215 366.043 207.018 357.598 210.466 349.778C214.227 341.028 220.256 331.854 229.34 322.406C238.511 312.879 244.691 303.475 248.548 294.434C252.085 286.3 253.926 277.53 253.96 268.66C253.96 252.502 247.78 238.763 241.601 229.068C238.102 223.463 233.954 218.292 229.242 213.66L227.954 215.055C232.665 219.694 236.803 224.881 240.277 230.507C246.218 239.973 252.044 253.217 252.044 268.634C252.005 277.26 250.203 285.788 246.748 293.692C242.987 302.522 236.958 311.705 227.874 321.064C218.658 330.618 212.488 339.986 208.621 348.966C205.086 357.055 203.259 365.788 203.254 374.616C203.254 390.598 209.433 404.107 215.613 413.617C219.122 419.114 223.271 424.176 227.971 428.698L229.242 427.285V427.241Z" fill="white"/>
<path d="M229.809 213.625C225.114 209.096 220.982 204.018 217.503 198.5C211.562 189.211 205.736 176.214 205.736 160.974C205.78 152.424 207.583 143.976 211.032 136.153C214.793 127.412 220.822 118.238 229.906 108.826C239.131 99.272 245.301 89.8772 249.168 80.8357C252.708 72.6935 254.549 63.9142 254.579 55.0354C254.579 38.8682 248.4 25.1293 242.221 15.4343C238.726 9.82929 234.577 4.65998 229.862 0.0354004L228.573 1.43045C233.261 6.07935 237.38 11.2694 240.843 16.8912C246.784 26.3654 252.611 39.6011 252.611 55.0265C252.572 63.6505 250.77 72.1753 247.314 80.0763C243.553 88.9059 237.524 98.0888 228.441 107.501C219.225 117.055 213.054 126.414 209.188 135.403C205.668 143.457 203.841 152.149 203.82 160.938C203.82 176.92 210 190.429 216.179 199.939C219.684 205.437 223.833 210.497 228.538 215.011L229.809 213.598V213.625Z" fill="white"/>
<path d="M239.941 427.241C235.221 422.721 231.071 417.642 227.582 412.116C221.641 402.836 215.815 389.83 215.824 374.59C215.855 366.046 217.642 357.601 221.076 349.778C224.845 341.028 230.875 331.854 239.958 322.406C249.174 312.853 255.345 303.449 259.211 294.407C262.761 286.285 264.614 277.524 264.658 268.66C264.658 252.502 258.479 238.763 252.299 229.068C248.8 223.463 244.652 218.292 239.941 213.66L238.661 215.055C243.373 219.694 247.507 224.885 250.975 230.516C256.943 239.973 262.786 253.217 262.786 268.66C262.748 277.287 260.945 285.814 257.49 293.719C253.721 302.548 247.691 311.731 238.608 321.091C229.392 330.644 223.221 340.013 219.355 348.992C215.818 357.073 213.982 365.795 213.961 374.616C213.961 390.598 220.14 404.107 226.32 413.617C229.825 419.118 233.974 424.18 238.678 428.698L239.941 427.285V427.241Z" fill="white"/>
<path d="M240.558 213.625C235.843 209.1 231.693 204.022 228.199 198.5C222.258 189.211 216.432 176.214 216.441 160.974C216.471 152.427 218.259 143.979 221.693 136.153C225.463 127.412 231.492 118.238 240.575 108.826C249.792 99.272 255.962 89.8772 259.829 80.8357C263.373 72.6948 265.214 63.9146 265.24 55.0354C265.24 38.8682 259.061 25.1293 252.881 15.4343C249.387 9.82929 245.238 4.65998 240.523 0.0354004L239.242 1.43045C243.949 6.07422 248.083 11.2647 251.557 16.8912C257.507 26.3654 263.333 39.6011 263.333 55.0265C263.295 63.6505 261.492 72.1753 258.036 80.0763C254.267 88.9059 248.238 98.0888 239.154 107.501C229.938 117.055 223.768 126.414 219.901 135.403C216.401 143.461 214.589 152.152 214.578 160.938C214.578 176.92 220.757 190.429 226.937 199.939C230.437 205.44 234.587 210.501 239.295 215.011L240.558 213.598V213.625Z" fill="white"/>
<path d="M250.645 427.241C245.942 422.72 241.809 417.64 238.339 412.116C232.398 402.836 226.572 389.83 226.572 374.59C226.617 366.043 228.42 357.598 231.868 349.778C235.629 341.028 241.658 331.854 250.742 322.406C259.967 312.853 266.137 303.449 269.995 294.407C273.516 286.28 275.343 277.518 275.362 268.66C275.362 252.502 269.183 238.763 263.003 229.068C259.498 223.468 255.35 218.297 250.645 213.66L249.356 215.055C254.065 219.697 258.199 224.888 261.67 230.516C267.638 239.973 273.464 253.217 273.464 268.66C273.425 277.287 271.623 285.814 268.168 293.719C264.407 302.548 258.369 311.731 249.294 321.091C240.069 330.644 233.899 340.013 230.041 348.992C226.504 357.072 224.671 365.795 224.656 374.616C224.656 390.598 230.836 404.107 237.015 413.617C240.518 419.119 244.667 424.182 249.374 428.698L250.645 427.285V427.241Z" fill="white"/>
<path d="M251.227 213.625C246.529 209.099 242.397 204.02 238.921 198.5C232.98 189.211 227.154 176.214 227.154 160.974C227.198 152.424 229.001 143.976 232.45 136.153C236.211 127.412 242.24 118.238 251.324 108.826C260.549 99.272 266.719 89.8772 270.577 80.8357C274.124 72.6953 275.968 63.9152 275.997 55.0354C275.997 38.8682 269.818 25.1293 263.638 15.4343C260.137 9.83399 255.989 4.66543 251.28 0.0354004L249.991 1.43045C254.695 6.07687 258.829 11.267 262.305 16.8912C268.246 26.3654 274.073 39.6011 274.073 55.0265C274.035 63.6505 272.232 72.1753 268.776 80.0763C265.016 88.9059 258.977 98.0888 249.903 107.501C240.678 117.055 234.507 126.414 230.65 135.403C227.115 143.454 225.273 152.146 225.238 160.938C225.238 176.92 231.418 190.429 237.597 199.939C241.096 205.442 245.245 210.502 249.956 215.011L251.227 213.598V213.625Z" fill="white"/>
<path d="M261.352 427.241C256.652 422.717 252.52 417.638 249.046 412.116C243.105 402.836 237.279 389.83 237.279 374.59C237.324 366.043 239.127 357.598 242.575 349.778C246.336 341.028 252.374 331.854 261.449 322.406C270.674 312.853 276.844 303.449 280.711 294.407C284.226 286.278 286.049 277.517 286.069 268.66C286.069 252.502 279.89 238.763 273.711 229.068C270.212 223.463 266.063 218.292 261.352 213.66L260.072 215.055C264.781 219.697 268.915 224.888 272.386 230.516C278.327 239.981 284.162 253.226 284.154 268.642C284.115 277.269 282.312 285.797 278.857 293.701C275.096 302.531 269.067 311.714 259.984 321.073C250.768 330.627 244.597 339.995 240.73 348.975C237.197 357.062 235.37 365.791 235.363 374.616C235.363 390.598 241.543 404.107 247.722 413.617C251.227 419.118 255.376 424.18 260.081 428.698L261.343 427.285L261.352 427.241Z" fill="white"/>
<path d="M261.985 213.625C257.29 209.096 253.158 204.018 249.679 198.5C243.738 189.211 237.912 176.214 237.912 160.974C237.956 152.424 239.759 143.976 243.208 136.153C246.969 127.412 253.007 118.238 262.082 108.826C271.307 99.272 277.477 89.8772 281.344 80.8357C284.884 72.6935 286.725 63.9142 286.755 55.0354C286.755 38.8682 280.576 25.1293 274.396 15.4343C270.902 9.82929 266.753 4.65998 262.038 0.0354004L260.758 1.43045C265.461 6.07687 269.595 11.267 273.072 16.8912C279.013 26.3654 284.848 39.6011 284.839 55.0265C284.801 63.6505 282.999 72.1753 279.543 80.0763C275.782 88.9059 269.753 98.0888 260.669 107.501C251.453 117.055 245.283 126.414 241.416 135.403C237.879 143.453 236.034 152.145 235.996 160.938C235.996 176.92 242.175 190.429 248.355 199.939C251.855 205.44 256.005 210.501 260.713 215.011L261.976 213.598L261.985 213.625Z" fill="white"/>
<path d="M272.059 427.241C267.339 422.721 263.189 417.642 259.7 412.116C253.759 402.836 247.933 389.83 247.933 374.59C247.983 366.044 249.785 357.599 253.23 349.778C256.999 341.028 263.028 331.854 272.112 322.406C281.328 312.853 287.498 303.449 291.365 294.407C294.902 286.283 296.743 277.522 296.776 268.66C296.776 252.502 290.597 238.763 284.418 229.068C280.919 223.463 276.77 218.292 272.059 213.66L270.779 215.055C275.506 219.692 279.656 224.883 283.138 230.516C289.087 239.981 294.914 253.226 294.914 268.642C294.875 277.269 293.072 285.797 289.617 293.701C285.848 302.531 279.818 311.714 270.735 321.073C261.519 330.627 255.348 339.995 251.482 348.975C247.933 357.058 246.09 365.788 246.07 374.616C246.07 390.598 252.25 404.107 258.429 413.617C261.934 419.118 266.083 424.18 270.788 428.698L272.05 427.285L272.059 427.241Z" fill="white"/>
<path d="M272.742 213.625C268.028 209.1 263.878 204.022 260.384 198.5C254.469 189.193 248.643 176.205 248.643 160.938C248.692 152.389 250.495 143.942 253.94 136.118C257.709 127.377 263.738 118.203 272.822 108.79C282.038 99.2365 288.209 89.8417 292.075 80.8001C295.607 72.6655 297.439 63.8948 297.46 55.0263C297.46 38.8592 291.281 25.1203 285.101 15.4253C281.607 9.82026 277.458 4.65095 272.742 0.0263672L271.462 1.42147C276.185 6.06273 280.334 11.2533 283.821 16.8822C289.771 26.3564 295.597 39.5921 295.597 55.0175C295.559 63.6414 293.757 72.1663 290.301 80.0672C286.531 88.8969 280.502 98.0798 271.418 107.492C262.202 117.046 256.032 126.405 252.165 135.394C248.629 143.447 246.787 152.142 246.754 160.938C246.754 176.92 252.933 190.429 259.113 199.939C262.613 205.44 266.763 210.501 271.471 215.011L272.734 213.598L272.742 213.625Z" fill="white"/>
<path d="M282.766 427.241C278.063 422.72 273.93 417.64 270.46 412.116C264.519 402.836 258.693 389.83 258.693 374.59C258.738 366.043 260.541 357.598 263.99 349.778C267.75 341.028 273.779 331.854 282.863 322.406C292.088 312.853 298.258 303.449 302.116 294.407C305.638 286.28 307.464 277.518 307.483 268.66C307.483 252.502 301.304 238.763 295.125 229.068C291.619 223.468 287.471 218.297 282.766 213.66L281.477 215.055C286.186 219.697 290.321 224.888 293.792 230.516C299.733 239.981 305.559 253.226 305.559 268.642C305.52 277.269 303.717 285.797 300.262 293.701C296.502 302.531 290.464 311.714 281.389 321.073C272.164 330.627 265.993 339.995 262.136 348.975C258.605 357.062 256.781 365.791 256.777 374.616C256.777 390.598 262.957 404.107 269.136 413.617C272.639 419.119 276.788 424.182 281.495 428.698L282.766 427.285V427.241Z" fill="white"/>
<path d="M283.45 213.625C278.752 209.099 274.62 204.02 271.144 198.5C265.203 189.211 259.377 176.214 259.377 160.974C259.421 152.424 261.224 143.976 264.673 136.153C268.434 127.412 274.463 118.238 283.547 108.826C292.771 99.272 298.942 89.8772 302.8 80.8357C306.346 72.6953 308.191 63.9152 308.22 55.0354C308.22 38.8682 302.041 25.1293 295.861 15.4343C292.36 9.83399 288.212 4.66543 283.502 0.0354004L282.214 1.43045C286.917 6.07687 291.051 11.267 294.528 16.8912C300.469 26.3654 306.295 39.6011 306.295 55.0265C306.257 63.6505 304.455 72.1753 300.999 80.0763C297.238 88.9059 291.2 98.0888 282.125 107.501C272.9 117.055 266.73 126.414 262.872 135.403C259.338 143.454 257.496 152.146 257.461 160.938C257.461 176.92 263.64 190.429 269.82 199.939C273.318 205.442 277.468 210.502 282.178 215.011L283.45 213.598V213.625Z" fill="white"/>
<path d="M293.473 427.241C288.773 422.717 284.641 417.638 281.167 412.116C275.209 402.818 269.426 389.812 269.426 374.616C269.472 366.07 271.275 357.624 274.723 349.805C278.484 341.055 284.513 331.881 293.597 322.433C302.821 312.879 308.992 303.475 312.858 294.434C316.368 286.294 318.182 277.524 318.19 268.66C318.19 252.502 312.011 238.763 305.832 229.068C302.333 223.463 298.184 218.292 293.473 213.66L292.184 215.055C296.909 219.694 301.058 224.885 304.543 230.516C310.484 239.981 316.31 253.226 316.31 268.642C316.271 277.269 314.469 285.797 311.013 293.701C307.253 302.531 301.224 311.714 292.14 321.073C282.924 330.627 276.753 339.995 272.887 348.975C269.341 357.059 267.502 365.788 267.484 374.616C267.484 390.598 273.664 404.107 279.843 413.617C283.353 419.114 287.501 424.176 292.202 428.698L293.473 427.285V427.241Z" fill="white"/>
<path d="M294.207 213.625C289.513 209.096 285.381 204.018 281.902 198.5C275.943 189.193 270.161 176.205 270.161 160.938C270.205 152.389 272.008 143.94 275.457 136.118C279.139 127.386 285.168 118.229 294.251 108.843C303.476 99.2896 309.647 89.8948 313.513 80.8532C317.054 72.711 318.895 63.9318 318.925 55.053C318.925 38.8859 312.745 25.1469 306.566 15.4519C303.072 9.84687 298.923 4.67756 294.207 0.0529785L292.919 1.44808C297.638 6.09201 301.787 11.2822 305.277 16.9088C311.218 26.3831 317.044 39.6187 317.044 55.0442C317.006 63.6681 315.204 72.193 311.748 80.0939C307.987 88.9236 301.958 98.1064 292.874 107.519C283.658 117.073 277.488 126.432 273.621 135.421C270.092 143.467 268.253 152.152 268.219 160.938C268.219 176.92 274.398 190.429 280.577 199.939C284.083 205.437 288.232 210.497 292.936 215.011L294.207 213.598V213.625Z" fill="white"/>
<path d="M304.171 427.241C299.451 422.721 295.301 417.642 291.812 412.116C285.871 402.836 280.045 389.83 280.045 374.59C280.095 366.044 281.898 357.599 285.342 349.778C289.111 341.028 295.14 331.854 304.224 322.406C313.44 312.853 319.611 303.449 323.477 294.407C327.014 286.283 328.856 277.522 328.888 268.66C328.888 252.502 322.709 238.763 316.53 229.068C313.031 223.463 308.883 218.292 304.171 213.66L302.891 215.055C307.619 219.692 311.768 224.883 315.25 230.516C321.2 239.981 327.026 253.226 327.026 268.642C326.987 277.269 325.184 285.797 321.729 293.701C317.96 302.531 311.931 311.714 302.847 321.073C293.631 330.627 287.46 339.995 283.594 348.975C280.052 357.06 278.213 365.789 278.191 374.616C278.191 390.598 284.371 404.107 290.55 413.617C294.055 419.118 298.204 424.18 302.909 428.698L304.171 427.285V427.241Z" fill="white"/>
<path d="M304.905 213.625C300.191 209.1 296.041 204.022 292.547 198.5C286.606 189.211 280.78 176.214 280.78 160.974C280.828 152.425 282.631 143.977 286.076 136.153C289.846 127.412 295.875 118.238 304.958 108.826C314.174 99.272 320.345 89.8772 324.211 80.8357C327.756 72.6948 329.597 63.9146 329.623 55.0354C329.623 38.8682 323.443 25.1293 317.264 15.4343C313.77 9.82929 309.621 4.65998 304.905 0.0354004L303.625 1.43045C308.348 6.07171 312.497 11.2623 315.984 16.8912C321.934 26.3654 327.76 39.6011 327.76 55.0265C327.722 63.6505 325.92 72.1753 322.464 80.0763C318.694 88.9059 312.665 98.0888 303.581 107.501C294.365 117.055 288.195 126.414 284.328 135.403C280.801 143.456 278.962 152.147 278.926 160.938C278.926 176.92 285.105 190.429 291.284 199.939C294.785 205.44 298.934 210.501 303.643 215.011L304.905 213.598V213.625Z" fill="white"/>
</svg>
