<svg width="386" height="386" viewBox="0 0 386 386" fill="none" xmlns="http://www.w3.org/2000/svg">
<mask id="mask0_2143_3700" style="mask-type:alpha" maskUnits="userSpaceOnUse" x="0" y="0" width="386" height="386">
<rect x="193" width="272.943" height="272.943" transform="rotate(45 193 0)" fill="#C4C4C4"/>
</mask>
<g mask="url(#mask0_2143_3700)">
<path d="M-195.957 91.2276C-195.957 91.2276 -174.161 75.1088 -143.544 66.5351C-129.407 62.5762 -114.007 60.9919 -98.3727 60.1566C-92.3383 59.8598 -86.3901 58.5586 -80.442 56.5877C-38.3738 42.6261 1.41855 2.16 9.47012 2.20487" stroke="black" stroke-miterlimit="10"/>
<path d="M-196.59 97.9616C-196.59 97.9616 -173.287 78.0806 -140.567 69.5449C-124.771 65.4203 -108.009 65.2615 -91.3608 64.6816C-84.7885 64.4538 -78.4404 62.8903 -72.0267 60.3741C-30.2344 43.9723 9.46831 1.31786 25.5646 1.40069" stroke="black" stroke-miterlimit="10"/>
<path d="M-197.219 104.713C-197.219 104.713 -172.367 81.0765 -137.565 72.5512C-120.106 68.2781 -101.986 69.569 -84.3209 69.21C-77.2072 69.0616 -70.4625 67.2461 -63.5764 64.1604C-22.06 45.5668 17.5082 0.465256 41.6629 0.596416" stroke="black" stroke-miterlimit="10"/>
<path d="M-197.852 111.454C-197.852 111.454 -171.466 84.0932 -134.573 75.5575C-115.439 71.1326 -95.9535 73.8835 -77.278 73.7351C-69.6195 73.6729 -62.4852 71.6193 -55.1198 67.9468C-13.8482 47.3548 25.5683 -0.394153 57.7574 -0.207769" stroke="black" stroke-miterlimit="10"/>
<path d="M-198.48 118.195C-198.48 118.195 -170.55 87.1306 -131.585 78.5673C-110.779 74.0009 -89.9515 78.0081 -70.2415 78.2601C-62.0451 78.3671 -54.5108 76.0131 -46.6765 71.7332C-5.59104 49.2946 33.6082 -1.23286 73.8557 -1.01541" stroke="black" stroke-miterlimit="10"/>
<path d="M-199.113 124.936C-199.113 124.936 -169.641 90.1611 -128.58 81.5736C-106.101 76.8726 -83.9224 82.5193 -63.1917 82.7886C-54.454 82.899 -46.5162 80.4242 -38.2129 75.5196C2.71045 51.3379 41.6408 -2.07849 89.9502 -1.81962" stroke="black" stroke-miterlimit="10"/>
<path d="M-199.742 131.68C-199.742 131.68 -168.708 93.2123 -125.582 84.5834C-101.444 79.7512 -77.8997 86.8407 -56.1484 87.3136C-46.8658 87.5137 -38.5211 84.8491 -29.7592 79.3059C11.0572 53.4744 49.6875 -2.92758 106.049 -2.62384" stroke="black" stroke-miterlimit="10"/>
<path d="M-200.375 138.421C-200.375 138.421 -167.81 96.2703 -122.597 87.6069C-96.7701 82.6505 -71.9085 91.1827 -49.1158 91.8558C-39.2953 92.1457 -30.53 89.3051 -21.3163 83.1095C19.4415 55.673 57.7442 -3.77323 122.143 -3.42807" stroke="black" stroke-miterlimit="10"/>
<path d="M-201.008 145.162C-201.008 145.162 -166.895 99.3422 -119.592 90.5959C-92.0892 85.5187 -65.8621 95.4903 -42.066 96.367C-31.7041 96.7466 -22.5077 93.7403 -12.8562 86.8786C27.8603 57.9235 65.763 -4.62234 138.234 -4.24266" stroke="black" stroke-miterlimit="10"/>
<path d="M-201.637 151.903C-201.637 151.903 -165.975 102.4 -116.594 93.6057C-87.4251 88.4076 -59.8394 99.8185 -35.0123 100.892C-24.1125 101.365 -14.4782 98.2032 -4.39566 90.6615C36.3277 60.2118 73.827 -5.47144 154.339 -5.03655" stroke="black" stroke-miterlimit="10"/>
<path d="M-202.25 158.644C-202.25 158.644 -165.037 105.489 -113.579 96.612C-82.7212 91.3001 -53.8011 104.147 -27.9602 105.417C-16.5156 105.98 -6.43645 102.676 4.07025 94.4479C44.8109 62.5313 81.8826 -6.31706 170.429 -5.84074" stroke="black" stroke-miterlimit="10"/>
<path d="M-202.898 165.388C-202.898 165.388 -164.137 108.548 -110.6 99.6218C-78.0663 94.196 -47.798 108.479 -20.9468 109.945C-8.96078 110.598 1.57695 107.16 12.5009 98.2343C53.3277 64.8715 89.9097 -7.16608 186.525 -6.64489" stroke="black" stroke-miterlimit="10"/>
<path d="M-203.531 172.129C-203.531 172.129 -163.218 111.626 -107.605 102.628C-73.3924 97.1056 -41.7792 112.807 -13.8935 114.47C-1.36958 115.216 9.63366 111.651 20.9576 102.021C61.8809 67.2427 97.9526 -8.00138 202.62 -7.44913" stroke="black" stroke-miterlimit="10"/>
<path d="M-204.16 178.87C-204.16 178.87 -162.299 114.709 -104.607 105.634C-68.7179 99.9911 -35.7564 117.138 -6.85009 118.995C6.21518 119.838 17.6943 116.148 29.4113 105.807C70.445 69.6035 106 -8.86086 218.718 -8.25339" stroke="black" stroke-miterlimit="10"/>
<path d="M-204.793 185.611C-204.793 185.611 -161.38 117.794 -101.612 108.641C-64.0267 102.89 -29.7377 121.467 0.189352 123.52C13.7994 124.452 25.7613 120.649 37.8645 109.59C79.0292 71.9678 114.042 -9.7134 234.812 -9.06106" stroke="black" stroke-miterlimit="10"/>
<path d="M-205.422 192.351C-205.422 192.351 -160.461 120.88 -98.6136 111.651C-59.3695 105.783 -23.715 125.802 7.2465 128.049C21.3842 129.084 33.8495 125.163 46.3285 113.38C87.6553 74.3771 122.099 -10.559 250.921 -9.86176" stroke="black" stroke-miterlimit="10"/>
<path d="M-206.047 199.092C-206.047 199.092 -159.544 123.969 -95.6214 114.66C-54.698 108.699 -17.6918 130.137 14.2731 132.574C28.9625 133.696 41.9174 129.678 54.7689 117.166C96.2681 76.7621 130.129 -11.4047 267.003 -10.666" stroke="black" stroke-miterlimit="10"/>
<path d="M-206.684 205.837C-206.684 205.837 -158.622 127.058 -92.6203 117.667C-50.0211 111.606 -11.6735 134.472 21.319 137.102C36.5497 138.317 50.015 134.196 63.2251 120.952C104.921 79.154 138.179 -12.2537 283.104 -11.453" stroke="black" stroke-miterlimit="10"/>
<path d="M-207.316 212.578C-207.316 212.578 -157.704 130.147 -89.6255 120.673C-45.3574 114.529 -5.66162 138.87 28.3619 141.627C44.1271 142.967 58.1096 138.721 71.6783 124.739C113.581 81.5494 146.222 -13.1028 299.195 -12.2882" stroke="black" stroke-miterlimit="10"/>
<path d="M-207.949 219.319C-207.949 219.319 -156.788 133.24 -86.6308 123.683C-40.6731 117.421 0.357184 143.194 35.4013 146.152C51.7114 147.581 66.2145 143.246 80.1281 128.525C122.255 83.9448 154.265 -13.9484 315.296 -13.0787" stroke="black" stroke-miterlimit="10"/>
<path d="M-208.578 226.059C-208.578 226.059 -155.865 136.319 -83.6322 126.689C-35.9986 120.331 6.36606 147.523 42.4447 150.681C59.2961 152.199 74.3303 147.778 88.5817 132.312C130.946 86.3402 162.311 -14.7975 331.387 -13.869" stroke="black" stroke-miterlimit="10"/>
<path d="M-209.211 232.804C-209.211 232.804 -154.933 139.563 -80.6375 129.716C-31.3281 123.344 12.3986 151.865 49.4876 155.223C66.8769 156.835 82.4456 152.331 97.035 136.115C139.648 88.7494 170.354 -15.6294 347.482 -14.6698" stroke="black" stroke-miterlimit="10"/>
<path d="M-209.836 239.545C-209.836 239.545 -154.016 142.625 -77.6385 132.705C-26.6394 126.22 18.4183 156.176 56.5314 159.731C74.4621 161.432 90.5721 156.849 105.496 139.884C148.364 91.124 178.401 -16.4923 363.581 -15.4948" stroke="black" stroke-miterlimit="10"/>
<path d="M-210.469 246.286C-210.469 246.286 -153.101 145.686 -74.6403 135.711C-21.9654 129.108 24.4406 160.5 63.5744 164.259C82.0464 166.051 98.7047 161.387 113.946 143.671C157.09 93.5125 186.448 -17.3413 379.679 -16.2852" stroke="black" stroke-miterlimit="10"/>
<path d="M-211.102 253.027C-211.102 253.027 -152.189 148.751 -71.6456 138.721C-17.2949 132.001 30.4594 164.829 70.6172 168.784C89.6307 170.669 106.823 165.926 122.396 147.457C165.822 95.8907 194.491 -18.1869 395.773 -17.1031" stroke="black" stroke-miterlimit="10"/>
<path d="M-211.73 259.767C-211.73 259.767 -151.273 151.806 -68.6504 141.727C13.9721 131.649 81.5536 210.962 130.846 151.243C174.562 98.2826 202.534 -19.0464 411.875 -17.9074" stroke="black" stroke-miterlimit="10"/>
<path d="M-207.871 265.155C-207.871 265.155 -148.862 157.063 -65.7359 146.791C17.8246 136.436 86.3612 213.517 136.329 153.376C180.915 99.7392 208.842 -16.0953 413.221 -13.7275" stroke="black" stroke-miterlimit="10"/>
<path d="M-204.012 270.54C-204.012 270.54 -146.451 162.319 -62.8213 151.861C21.6599 141.265 91.1689 216.078 141.778 155.52C187.239 101.203 215.118 -13.1408 414.532 -9.53733" stroke="black" stroke-miterlimit="10"/>
<path d="M-200.152 275.955C-200.152 275.955 -144.04 167.576 -59.9067 156.942C25.5158 146.094 95.9765 218.652 147.244 157.677C193.578 102.68 221.409 -10.1793 415.86 -5.34025" stroke="black" stroke-miterlimit="10"/>
<path d="M-196.297 281.371C-196.297 281.371 -141.632 172.861 -56.9961 162.033C29.3609 150.929 100.784 221.234 152.707 159.841C199.909 104.168 227.699 -7.21442 417.185 -1.12932" stroke="black" stroke-miterlimit="10"/>
<path d="M-192.438 286.797C-192.438 286.797 -139.221 178.155 -54.0815 167.134C33.2065 155.779 105.591 223.83 158.173 162.016C206.248 105.662 233.989 -4.22191 418.513 3.09196" stroke="black" stroke-miterlimit="10"/>
<path d="M-188.574 292.233C-188.574 292.233 -136.81 183.453 -51.1665 172.246C37.056 160.635 110.399 226.436 163.64 164.201C212.604 107.17 240.283 -1.22937 419.842 7.32015" stroke="black" stroke-miterlimit="10"/>
<path d="M-184.715 297.679C-184.715 297.679 -134.399 188.762 -48.2519 177.368C40.9015 165.505 115.193 229.048 169.106 166.399C218.926 108.689 246.573 1.75962 421.187 11.5621" stroke="black" stroke-miterlimit="10"/>
<path d="M-180.871 303.136C-180.871 303.136 -132.003 194.067 -45.3564 182.501C44.7453 170.382 120.013 231.675 174.57 168.605C225.259 110.215 252.865 4.7901 422.517 15.8144" stroke="black" stroke-miterlimit="10"/>
<path d="M-177 308.604C-177 308.604 -129.58 199.413 -42.4267 187.644C48.606 175.273 124.811 234.309 180.031 170.824C231.599 111.768 259.154 7.81366 423.851 20.0736" stroke="black" stroke-miterlimit="10"/>
<path d="M-173.141 314.085C-173.141 314.085 -127.169 204.756 -39.4949 192.8C52.4551 180.174 129.643 236.956 185.515 173.05C237.955 113.307 265.465 10.8511 425.2 24.3501" stroke="black" stroke-miterlimit="10"/>
<path d="M-169.281 319.576C-169.281 319.576 -124.758 210.11 -36.5976 197.967C56.2834 185.086 134.434 239.617 190.964 175.29C244.273 114.867 271.738 13.8988 426.514 28.6335" stroke="black" stroke-miterlimit="10"/>
<path d="M-165.422 325.074C-165.422 325.074 -122.35 215.47 -33.7003 203.141C60.1152 190.025 139.224 242.282 196.413 177.541C250.594 116.448 278.014 16.9568 427.829 32.9203" stroke="black" stroke-miterlimit="10"/>
<path d="M-161.562 330.597C-161.562 330.597 -119.939 220.837 -30.7719 208.332C63.9746 194.947 144.052 244.967 201.893 179.805C256.947 118.022 284.305 20.0288 429.175 37.2555" stroke="black" stroke-miterlimit="10"/>
<path d="M-157.703 336.119C-157.703 336.119 -117.528 226.236 -27.8573 213.534C67.8236 199.893 148.857 247.659 207.359 182.08C263.285 119.606 290.613 23.111 430.506 41.5562" stroke="black" stroke-miterlimit="10"/>
<path d="M-153.844 341.642C-153.844 341.642 -115.117 231.637 -24.9427 218.746C71.6692 204.85 153.675 250.365 212.825 184.365C269.624 121.229 296.903 26.2071 431.838 45.8879" stroke="black" stroke-miterlimit="10"/>
<path d="M-149.984 347.199C-149.984 347.199 -112.706 237.06 -22.0282 223.971C75.5148 209.82 158.472 253.082 218.288 186.663C275.963 122.847 303.197 29.31 433.17 50.2299" stroke="black" stroke-miterlimit="10"/>
<path d="M-146.129 352.76C-146.129 352.76 -110.299 242.468 -19.1175 229.194C79.3599 214.79 163.276 255.795 223.75 188.959C282.297 124.466 309.483 32.4164 434.498 54.5686" stroke="black" stroke-miterlimit="10"/>
<path d="M-142.254 358.334C-142.254 358.334 -107.875 247.904 -16.1908 234.454C83.2177 219.795 168.095 258.549 229.229 191.309C288.645 126.137 315.779 35.5712 435.845 58.9624" stroke="black" stroke-miterlimit="10"/>
<path d="M-138.406 363.918C-138.406 363.918 -105.476 253.351 -13.2879 239.714C87.055 224.803 172.891 261.303 234.683 193.629C294.982 127.776 322.068 38.7017 437.166 63.3286" stroke="black" stroke-miterlimit="10"/>
<path d="M-134.547 369.513C-134.547 369.513 -103.065 258.804 -10.3734 244.998C90.9006 229.811 177.699 264.068 240.156 195.986C301.317 129.454 328.368 41.8633 438.504 67.7294" stroke="black" stroke-miterlimit="10"/>
<path d="M-130.691 375.122C-130.691 375.122 -100.657 264.282 -7.46269 250.272C94.7423 234.851 182.503 266.84 245.612 198.333C307.645 131.124 334.648 45.0215 439.825 72.1197" stroke="black" stroke-miterlimit="10"/>
<path d="M-126.832 380.745C-126.832 380.745 -98.2464 269.767 -4.55159 255.567C98.5913 239.893 187.31 269.632 251.078 200.687C313.984 132.822 340.942 48.2004 441.157 76.5377" stroke="black" stroke-miterlimit="10"/>
<path d="M-122.969 386.378C-122.969 386.378 -95.8348 275.262 -1.63656 260.875C102.437 244.946 192.122 272.431 256.541 203.086C320.333 134.517 347.229 51.3862 442.49 80.9627" stroke="black" stroke-miterlimit="10"/>
<path d="M-119.109 392.035C-119.109 392.035 -93.4237 280.77 1.27801 266.201C106.286 250.017 196.929 275.248 262.008 205.485C326.662 136.239 353.527 54.5962 443.821 85.4048" stroke="black" stroke-miterlimit="10"/>
<path d="M-115.254 397.685C-115.254 397.685 -91.0164 286.293 4.18865 271.534C110.128 255.097 201.733 278.092 267.47 207.894C332.986 137.969 359.813 57.8095 445.149 89.8504" stroke="black" stroke-miterlimit="10"/>
<path d="M-111.395 403.356C-111.395 403.356 -88.6053 291.829 7.10324 276.88C113.974 260.192 206.541 280.915 272.936 210.313C339.331 139.712 366.107 61.0402 446.481 94.3409" stroke="black" stroke-miterlimit="10"/>
<path d="M-92.9648 402.586C-92.9648 402.586 -70.4342 294.148 23.0295 278.233C67.9873 270.764 110.466 269.988 149.548 265.911C200.761 260.586 245.674 249.63 282.273 210.483C347.513 140.247 371.992 62.9248 449.273 94.9277" stroke="black" stroke-miterlimit="10"/>
<path d="M-74.543 401.813C-74.543 401.813 -52.3399 296.102 38.948 279.583C82.5885 271.686 124.008 270.526 162.246 266.015C212.327 260.147 256.175 248.999 291.602 210.614C355.904 140.94 377.866 64.7713 452.061 95.4937" stroke="black" stroke-miterlimit="10"/>
<path d="M-56.1172 401.047C-56.1172 401.047 -34.2107 298.252 54.8738 280.932C97.2075 272.704 137.558 271.068 174.951 266.122C223.915 259.695 266.625 248.312 300.938 210.766C364.189 141.551 383.75 66.6352 454.852 96.0805" stroke="black" stroke-miterlimit="10"/>
<path d="M-37.6875 400.284C-37.6875 400.284 -16.0845 300.413 70.8001 282.296C111.834 273.739 151.109 271.62 187.657 266.243C235.48 259.264 277.072 247.628 310.271 210.928C372.474 142.166 389.632 68.5129 457.645 96.6811" stroke="black" stroke-miterlimit="10"/>
<path d="M-19.2656 399.521C-19.2656 399.521 2.02707 302.584 86.7048 283.656C126.425 274.778 164.634 272.172 200.341 266.36C247.033 258.829 287.494 246.941 319.587 211.087C380.744 142.777 395.509 70.387 460.429 97.2712" stroke="black" stroke-miterlimit="10"/>
<path d="M-0.832031 398.765C-0.832031 398.765 20.1607 304.769 102.649 285.036C141.058 275.841 178.206 272.745 213.06 266.498C258.625 258.418 297.952 246.272 328.941 211.273C389.026 143.405 401.398 72.2854 463.225 97.8891" stroke="black" stroke-miterlimit="10"/>
<path d="M17.5898 398.01C17.5898 398.01 38.2584 306.964 118.571 286.386C155.673 276.88 191.749 273.27 225.762 266.605C270.195 257.976 308.384 245.55 338.273 211.421C397.293 143.988 407.275 74.1458 466.012 98.4724" stroke="black" stroke-miterlimit="10"/>
<path d="M36.0234 397.26C36.0234 397.26 56.3679 309.177 134.501 287.76C170.29 277.947 205.303 273.846 238.471 266.733C281.774 257.552 318.815 244.877 347.614 211.591C405.565 144.592 413.165 76.0338 468.808 99.0696" stroke="black" stroke-miterlimit="10"/>
<path d="M54.4453 396.522C54.4453 396.522 74.4725 311.413 150.419 289.14C184.901 279.031 218.846 274.423 251.169 266.871C293.344 257.141 329.24 244.197 356.943 211.773C413.821 145.193 419.042 77.9426 471.592 99.6874" stroke="black" stroke-miterlimit="10"/>
<path d="M72.8711 395.776C72.8711 395.776 92.5707 313.65 166.362 290.514C199.524 280.114 232.409 274.982 263.888 267.002C304.922 256.72 339.676 243.5 366.3 211.949C422.099 145.793 424.944 79.8202 474.408 100.302" stroke="black" stroke-miterlimit="10"/>
<path d="M91.2969 395.038C91.2969 395.038 110.679 315.918 182.271 291.902C214.122 281.202 245.942 275.562 276.576 267.143C316.489 256.309 350.078 242.81 375.609 212.132C430.325 146.387 430.804 81.7186 477.176 100.923" stroke="black" stroke-miterlimit="10"/>
<path d="M109.719 394.306C109.719 394.306 128.774 318.202 198.19 293.289C228.727 282.33 259.485 276.142 289.271 267.292C328.056 255.902 360.483 242.123 384.938 212.322C438.561 146.974 436.699 83.6238 479.96 101.548" stroke="black" stroke-miterlimit="10"/>
<path d="M128.152 393.581C128.152 393.581 146.88 320.512 214.12 294.687C243.347 283.459 273.039 276.739 301.98 267.444C339.635 255.508 370.896 241.436 394.278 212.519C446.801 147.571 442.553 85.536 482.756 102.176" stroke="black" stroke-miterlimit="10"/>
<path d="M146.574 392.863C146.574 392.863 164.984 322.848 230.042 296.081C257.972 284.598 286.592 277.315 314.681 267.596C351.208 255.108 381.294 240.739 403.611 212.716C455.02 148.151 448.437 87.4447 485.544 102.808" stroke="black" stroke-miterlimit="10"/>
<path d="M165 392.149C165 392.149 183.086 325.212 245.964 297.496C272.574 285.761 300.128 277.923 327.383 267.765C362.779 254.728 391.685 240.062 412.944 212.93C463.232 148.731 454.322 89.3637 488.332 103.456" stroke="black" stroke-miterlimit="10"/>
<path d="M183.43 391.445C183.43 391.445 201.191 327.608 261.88 298.912C287.183 286.949 313.669 278.527 340.078 267.937C374.343 254.352 402.067 239.376 422.27 213.147C471.421 149.321 460.2 91.307 491.114 104.105" stroke="black" stroke-miterlimit="10"/>
<path d="M201.855 390.744C201.855 390.744 219.321 330.034 277.813 300.337C301.816 288.146 327.225 279.141 352.791 268.12C385.924 253.969 412.445 238.696 431.61 213.368C479.616 149.897 466.092 93.2536 493.912 104.765" stroke="black" stroke-miterlimit="10"/>
<path d="M220.277 390.057C220.277 390.057 237.453 332.502 293.724 301.77C316.431 289.368 340.761 279.766 365.478 268.289C397.495 253.627 422.829 238.019 440.942 213.589C487.779 150.456 471.976 95.1762 496.703 105.417" stroke="black" stroke-miterlimit="10"/>
<path d="M238.707 389.377C238.707 389.377 255.603 335.005 309.661 303.209C331.081 290.607 354.322 280.397 378.194 268.507C409.069 253.265 433.2 237.343 450.262 213.844C495.912 151.026 477.847 97.147 499.478 106.107" stroke="black" stroke-miterlimit="10"/>
<path d="M257.133 388.707C257.133 388.707 273.784 337.552 325.583 304.662C345.724 291.874 367.869 281.039 390.896 268.714C420.643 252.923 443.557 236.676 459.612 214.096C504.049 151.595 483.749 99.1109 502.283 106.794" stroke="black" stroke-miterlimit="10"/>
<path d="M275.562 388.048C275.562 388.048 291.99 340.147 341.51 306.125C360.382 293.161 381.416 281.695 403.601 268.935C432.222 252.592 453.911 236.024 468.948 214.359C512.148 152.151 489.617 101.092 505.075 107.491" stroke="black" stroke-miterlimit="10"/>
<path d="M293.984 387.406C293.984 387.406 310.229 342.788 357.431 307.603C375.048 294.487 394.962 282.365 416.303 269.169C443.788 252.278 464.25 235.361 478.281 214.635C520.208 152.696 495.498 103.08 507.863 108.199" stroke="black" stroke-miterlimit="10"/>
<path d="M312.273 386.778C312.273 386.778 328.377 345.477 373.217 309.097C389.593 295.809 408.372 283.048 428.864 269.404C455.222 251.963 474.446 234.706 487.484 214.918C528.104 153.228 501.249 105.075 510.521 108.917" stroke="black" stroke-miterlimit="10"/>
<path d="M328.57 386.167C328.57 386.167 344.587 348.224 387.011 310.609C402.162 297.176 419.789 283.752 439.423 269.687C464.65 251.694 482.623 234.091 494.664 215.242C533.942 153.777 504.995 107.115 511.184 109.676" stroke="black" stroke-miterlimit="10"/>
<path d="M344.75 385.573C344.75 385.573 360.743 351.009 400.69 312.135C414.638 298.563 431.093 284.47 449.896 269.974C473.992 251.428 490.706 233.473 501.768 215.57C539.622 154.305 508.63 109.158 511.719 110.439" stroke="black" stroke-miterlimit="10"/>
<path d="M360.84 385.007C360.84 385.007 389.705 328.94 460.259 270.281C565.981 182.387 512.171 111.229 512.171 111.229" stroke="black" stroke-miterlimit="10"/>
</g>
</svg>
