<svg width="30" height="30" viewBox="0 0 30 30" fill="none" xmlns="http://www.w3.org/2000/svg">
<path d="M30 15C30.0003 16.9697 29.6126 18.9202 28.8591 20.7401C28.1056 22.56 27.0009 24.2136 25.6084 25.6065C24.2158 26.9994 22.5624 28.1043 20.7428 28.8581C18.9232 29.612 16.973 30 15.0034 30C13.0335 30.0003 11.0826 29.6126 9.26251 28.8589C7.44238 28.1052 5.78849 27.0004 4.3953 25.6075C3.00211 24.2147 1.89694 22.561 1.14279 20.7409C0.388635 18.9209 0.000297422 16.9701 0 15C0.00120119 11.0213 1.58241 7.20604 4.39596 4.39312C7.20951 1.58021 11.0251 -1.81354e-07 15.0034 0C18.981 0.000600703 22.7953 1.58122 25.6077 4.3942C28.42 7.20718 30 11.0221 30 15ZM21.2978 15C21.3007 14.173 21.1398 13.3536 20.8241 12.5892C20.5084 11.8248 20.0443 11.1305 19.4587 10.5467C18.8751 9.95975 18.1807 9.49471 17.4159 9.17856C16.651 8.86241 15.831 8.70146 15.0034 8.70506C14.1758 8.70108 13.3556 8.86186 12.5907 9.17803C11.8258 9.49421 11.1314 9.95945 10.5481 10.5467C9.9617 11.1301 9.49699 11.8242 9.18089 12.5887C8.86479 13.3531 8.7036 14.1728 8.70666 15C8.70343 15.8276 8.86456 16.6476 9.18067 17.4124C9.49677 18.1773 9.96153 18.8718 10.5481 19.4556C11.7354 20.6279 13.3349 21.2882 15.0034 21.2949C16.6717 21.2872 18.2708 20.6271 19.4587 19.4556C20.0433 18.8708 20.5061 18.176 20.8207 17.4112C21.1352 16.6464 21.2951 15.8269 21.291 15H21.2978Z" fill="black"/>
</svg>
