<svg width="316" height="233" viewBox="0 0 316 233" fill="none" xmlns="http://www.w3.org/2000/svg">
<path d="M256.382 1.06237C281.932 1.06237 300.138 8.44057 309.029 22.4002C314.724 31.3294 316.325 42.4631 313.789 55.4985C311.318 68.2098 305.043 82.1694 295.148 96.9789C274.707 127.565 241.174 158.289 200.722 183.499C176.241 198.754 150.224 211.237 125.485 219.619C101.574 227.699 78.8122 231.975 59.6659 231.975C34.1161 231.975 15.91 224.597 7.01912 210.637C1.32467 201.708 -0.276234 190.569 2.25941 177.539C4.73059 164.822 11.0052 150.868 20.9007 136.053C41.3148 105.473 74.8744 74.7487 115.327 49.5385C139.807 34.2828 165.825 21.7946 190.536 13.4178C214.448 5.33313 237.209 1.06237 256.356 1.06237H256.382ZM256.356 0C217.837 0 165.636 16.8918 114.725 48.6196C30.823 100.91 -17.8162 173.693 6.08436 211.163C15.4802 225.909 34.6909 233 59.6445 233C98.1626 233 150.364 216.103 201.275 184.375C285.177 132.085 333.816 59.3071 309.916 21.8318C300.52 7.09135 281.309 0 256.356 0Z" fill="#FF0033"/>
</svg>
