<svg width="124" height="124" viewBox="0 0 124 124" fill="none" xmlns="http://www.w3.org/2000/svg">
<path d="M124 61.9733C124 96.2133 96.2667 123.947 62.0267 123.947C27.7867 123.947 0 96.2133 0 61.9733C0 27.7333 27.7867 0 62.0267 0C96.2667 0 124 27.7333 124 61.9733ZM88 61.9733C88 55.04 85.3333 48.48 80.3733 43.5733C75.4667 38.6133 68.9067 35.9467 61.9733 35.9467C55.04 35.9467 48.48 38.6133 43.5733 43.5733C38.6667 48.5333 35.9467 55.04 35.9467 61.9733C35.9467 68.9067 38.6133 75.4667 43.5733 80.3733C48.48 85.1733 55.04 88 61.9733 88C68.9067 88 75.4667 85.1733 80.3733 80.3733C85.3333 75.4667 88 68.96 88 61.9733Z" fill="#FF0033"/>
</svg>
