<svg width="184" height="55" viewBox="0 0 184 55" fill="none" xmlns="http://www.w3.org/2000/svg">
<path d="M177.696 54.2168H6.3037C2.81111 54.2168 0 51.3991 0 47.8983V7.25459C0 3.75377 2.81111 0.936035 6.3037 0.936035H177.696C181.189 0.936035 184 3.75377 184 7.25459V47.9837C184 51.3991 181.189 54.2168 177.696 54.2168Z" fill="black"/>
<path d="M60.9933 15.7955L60.2266 18.3571H58.5229L61.4192 9.3916H63.5489L66.4452 18.3571H64.6563L63.8044 15.7955H60.9933ZM63.6341 14.6001L62.9526 12.3801C62.7822 11.8678 62.6118 11.1847 62.5266 10.6724C62.3563 11.1847 62.2711 11.7824 62.1007 12.3801L61.3341 14.6001H63.6341Z" fill="white"/>
<path d="M68.9159 11.8662L69.9381 15.1963C70.1085 15.794 70.2789 16.3063 70.3641 16.8186C70.4493 16.3063 70.6196 15.794 70.79 15.1963L71.8122 11.8662H73.5159L71.0456 18.3555H69.427L67.0418 11.8662H68.9159Z" fill="white"/>
<path d="M80.1595 16.8195C80.1595 17.4172 80.1595 18.0149 80.2447 18.3565H78.7966L78.7114 17.6734C78.2855 18.1857 77.6892 18.5272 76.8373 18.5272C75.5595 18.5272 74.7929 17.588 74.7929 16.5633C74.7929 14.941 76.241 14.0872 78.6262 14.0872V14.0018C78.6262 13.5748 78.4558 12.8918 77.3484 12.8918C76.7521 12.8918 76.0707 13.0625 75.6447 13.4041L75.304 12.3794C75.8151 12.1233 76.5818 11.7817 77.604 11.7817C79.6484 11.7817 80.2447 13.0625 80.2447 14.5141V16.8195H80.1595ZM78.541 15.1972C77.3484 15.1972 76.241 15.4533 76.241 16.3926C76.241 16.9903 76.6669 17.3318 77.1781 17.3318C77.8595 17.3318 78.2855 16.9049 78.4558 16.478C78.4558 16.3926 78.4558 16.2218 78.4558 16.1364V15.1972H78.541Z" fill="white"/>
<path d="M83.2266 10.9279C82.7155 10.9279 82.2896 10.501 82.2896 10.0741C82.2896 9.56176 82.6304 9.22021 83.2266 9.22021C83.8229 9.22021 84.1637 9.64714 84.1637 10.0741C84.1637 10.501 83.8229 10.9279 83.2266 10.9279ZM82.46 18.3565V11.8672H84.0785V18.3565H82.46Z" fill="white"/>
<path d="M86.4638 8.87793H88.0823V18.3558H86.4638V8.87793Z" fill="white"/>
<path d="M95.4934 16.8195C95.4934 17.4172 95.4934 18.0149 95.5786 18.3565H94.1304L94.0453 17.6734C93.6193 18.1857 93.023 18.5272 92.1712 18.5272C90.8934 18.5272 90.1267 17.588 90.1267 16.5633C90.1267 14.941 91.5749 14.0872 93.9601 14.0872V14.0018C93.9601 13.5748 93.7897 12.8918 92.6823 12.8918C92.086 12.8918 91.4045 13.0625 90.9786 13.4041L90.6379 12.3794C91.149 12.1233 91.9156 11.7817 92.9378 11.7817C94.9823 11.7817 95.5786 13.0625 95.5786 14.5141V16.8195H95.4934ZM93.8749 15.1972C92.6823 15.1972 91.5749 15.4533 91.5749 16.3926C91.5749 16.9903 92.0008 17.3318 92.5119 17.3318C93.1934 17.3318 93.6193 16.9049 93.7897 16.478C93.7897 16.3926 93.7897 16.2218 93.7897 16.1364V15.1972H93.8749Z" fill="white"/>
<path d="M97.793 8.87793H99.4115V12.7203C99.8374 12.1226 100.519 11.6957 101.456 11.6957C103.074 11.6957 104.182 12.9765 104.182 15.0257C104.182 17.3311 102.734 18.5265 101.286 18.5265C100.434 18.5265 99.6671 18.185 99.2412 17.4165L99.156 18.3558H97.793C97.793 17.9288 97.8782 17.1604 97.8782 16.5627V8.87793H97.793ZM99.4115 15.7088C99.4115 15.8796 99.4115 15.965 99.4115 16.1357C99.5819 16.8188 100.178 17.2457 100.86 17.2457C101.882 17.2457 102.478 16.3919 102.478 15.1111C102.478 14.0011 101.967 13.0618 100.86 13.0618C100.178 13.0618 99.5819 13.5742 99.4115 14.2572C99.4115 14.3426 99.3263 14.5134 99.3263 14.6842V15.7088H99.4115Z" fill="white"/>
<path d="M106.141 8.87793H107.76V18.3558H106.141V8.87793Z" fill="white"/>
<path d="M111.253 15.5387C111.253 16.7341 112.19 17.2464 113.212 17.2464C113.979 17.2464 114.49 17.161 115.001 16.9903L115.257 18.1003C114.66 18.3565 113.894 18.5272 112.957 18.5272C110.827 18.5272 109.634 17.2464 109.634 15.2826C109.634 13.4895 110.742 11.7817 112.786 11.7817C114.916 11.7817 115.597 13.4895 115.597 14.941C115.597 15.2826 115.597 15.4533 115.512 15.6241H111.253V15.5387ZM114.149 14.4287C114.149 13.831 113.894 12.8064 112.786 12.8064C111.764 12.8064 111.338 13.7456 111.253 14.4287H114.149Z" fill="white"/>
<path d="M123.774 18.5272C121.986 18.5272 120.537 17.2464 120.537 15.1972C120.537 13.0625 121.9 11.7817 123.86 11.7817C125.819 11.7817 127.097 13.1479 127.097 15.1118C127.097 17.4172 125.393 18.5272 123.774 18.5272ZM123.774 17.3318C124.711 17.3318 125.393 16.3926 125.393 15.1118C125.393 14.0872 124.967 12.8918 123.86 12.8918C122.667 12.8918 122.241 14.0018 122.241 15.1118C122.156 16.3926 122.837 17.3318 123.774 17.3318Z" fill="white"/>
<path d="M128.971 13.8304C128.971 13.062 128.971 12.4643 128.886 11.8666H130.334L130.419 12.8058C130.675 12.2935 131.441 11.6958 132.463 11.6958C133.571 11.6958 134.763 12.4643 134.763 14.5135V18.3559H133.145V14.6843C133.145 13.7451 132.804 13.062 131.867 13.062C131.186 13.062 130.76 13.4889 130.589 14.0012C130.504 14.172 130.504 14.3428 130.504 14.5135V18.3559H128.886V13.8304H128.971Z" fill="white"/>
<path d="M142.43 10.1587V11.8664H143.964V13.0618H142.43V15.8795C142.43 16.648 142.601 17.0749 143.282 17.0749C143.538 17.0749 143.708 17.0749 143.878 16.9896V18.2704C143.623 18.3557 143.197 18.4411 142.686 18.4411C142.09 18.4411 141.579 18.2704 141.238 17.9288C140.897 17.5873 140.727 16.9896 140.727 16.1357V13.0618H139.79V11.8664H140.727V10.671L142.43 10.1587Z" fill="white"/>
<path d="M145.753 8.87793H147.371V12.7203C147.542 12.3788 147.882 12.1226 148.223 11.9518C148.564 11.781 148.905 11.6957 149.331 11.6957C150.438 11.6957 151.631 12.4641 151.631 14.5134V18.3558H150.012V14.6842C150.012 13.7449 149.671 13.0618 148.734 13.0618C148.138 13.0618 147.627 13.4888 147.457 14.0011C147.371 14.1719 147.371 14.3426 147.371 14.5134V18.4411H145.753V8.87793Z" fill="white"/>
<path d="M155.123 15.5387C155.123 16.7341 156.06 17.2464 157.082 17.2464C157.848 17.2464 158.36 17.161 158.871 16.9903L159.126 18.1003C158.53 18.3565 157.763 18.5272 156.826 18.5272C154.697 18.5272 153.504 17.2464 153.504 15.2826C153.504 13.4895 154.611 11.7817 156.656 11.7817C158.785 11.7817 159.467 13.4895 159.467 14.941C159.467 15.2826 159.467 15.4533 159.382 15.6241H155.123V15.5387ZM157.934 14.4287C157.934 13.831 157.678 12.8064 156.571 12.8064C155.548 12.8064 155.122 13.7456 155.037 14.4287H157.934Z" fill="white"/>
<path d="M40.7184 27.0638C40.7184 22.6237 44.3814 20.4891 44.5517 20.3183C42.5073 17.2444 39.2702 16.9028 38.0777 16.8175C35.3517 16.5613 32.711 18.4398 31.348 18.4398C29.8999 18.4398 27.8554 16.8175 25.5554 16.9028C22.5739 16.9882 19.848 18.696 18.3147 21.3429C15.1628 26.7222 17.548 34.7485 20.5295 39.1032C22.0628 41.2378 23.7665 43.6286 26.0665 43.5432C28.2814 43.4579 29.1332 42.0917 31.8591 42.0917C34.4999 42.0917 35.3517 43.5432 37.6517 43.4579C40.0369 43.4579 41.5702 41.3232 43.0184 39.1032C44.7221 36.627 45.4036 34.2362 45.4888 34.0654C45.3184 34.1508 40.7184 32.3577 40.7184 27.0638Z" fill="white"/>
<path d="M36.2888 13.9992C37.4814 12.4623 38.3332 10.413 38.0777 8.36377C36.374 8.44916 34.1592 9.55917 32.8814 11.0107C31.774 12.2915 30.7518 14.4262 31.0073 16.4754C33.0518 16.5608 35.011 15.4508 36.2888 13.9992Z" fill="white"/>
<path d="M73.0038 43.2012H69.852L68.1483 37.8219H62.1853L60.5668 43.2012H57.5001L63.4631 24.8433H67.126L73.0038 43.2012ZM67.6371 35.5165L66.1038 30.7349C65.9334 30.2226 65.5927 29.1126 65.1668 27.3195H65.0816C64.9112 28.0879 64.5705 29.2833 64.2297 30.7349L62.6964 35.5165H67.6371Z" fill="white"/>
<path d="M88.1667 36.4568C88.1667 38.6769 87.5704 40.47 86.3778 41.7508C85.2704 42.9462 83.9074 43.4585 82.3741 43.4585C80.6704 43.4585 79.3926 42.8608 78.626 41.58H78.5408V48.4963H75.6445V34.3222C75.6445 32.8706 75.6445 31.5045 75.5593 29.9675H78.1148L78.2852 32.0168H78.3704C79.3074 30.4798 80.8408 29.626 82.8 29.626C84.3334 29.626 85.6111 30.2237 86.7186 31.5045C87.5704 32.7853 88.1667 34.4076 88.1667 36.4568ZM85.1852 36.5422C85.1852 35.2614 84.9297 34.2368 84.3334 33.383C83.7371 32.5291 82.8852 32.1022 81.7778 32.1022C81.0963 32.1022 80.4148 32.3583 79.8186 32.7853C79.2223 33.2976 78.8815 33.8953 78.626 34.6637C78.5408 35.0053 78.4556 35.3468 78.4556 35.5176V37.7376C78.4556 38.6769 78.7111 39.5307 79.3074 40.1284C79.9037 40.8115 80.6704 41.1531 81.6074 41.1531C82.7149 41.1531 83.5667 40.7261 84.163 39.8723C84.8445 39.0184 85.1852 37.9084 85.1852 36.5422Z" fill="white"/>
<path d="M103.245 36.4568C103.245 38.6769 102.648 40.47 101.456 41.7508C100.348 42.9462 99.0707 43.4585 97.4521 43.4585C95.7484 43.4585 94.4707 42.8608 93.704 41.58H93.6188V48.4963H90.7225V34.3222C90.7225 32.8706 90.7225 31.5045 90.6373 29.9675H93.1929L93.3632 32.0168H93.4484C94.3855 30.4798 95.9188 29.626 97.8781 29.626C99.4114 29.626 100.689 30.2237 101.797 31.5045C102.734 32.7853 103.245 34.4076 103.245 36.4568ZM100.263 36.5422C100.263 35.2614 100.008 34.2368 99.4114 33.383C98.8151 32.5291 97.9632 32.1022 96.8558 32.1022C96.1744 32.1022 95.4929 32.3583 94.8966 32.7853C94.3003 33.2976 93.9595 33.8953 93.7892 34.6637C93.704 35.0053 93.6188 35.3468 93.6188 35.5176V37.7376C93.6188 38.6769 93.8744 39.5307 94.4707 40.1284C95.067 40.8115 95.8336 41.1531 96.7707 41.1531C97.8781 41.1531 98.7299 40.7261 99.3262 39.8723C100.008 39.0184 100.263 37.9084 100.263 36.5422Z" fill="white"/>
<path d="M120.197 38.0785C120.197 39.6154 119.686 40.8962 118.578 41.9209C117.386 43.0309 115.767 43.5432 113.638 43.5432C111.678 43.5432 110.06 43.2016 108.867 42.4332L109.549 39.957C110.827 40.7255 112.275 41.1524 113.808 41.1524C114.916 41.1524 115.767 40.8962 116.364 40.3839C116.96 39.8716 117.301 39.1885 117.301 38.42C117.301 37.6516 117.045 37.0539 116.534 36.5416C116.023 36.0292 115.171 35.6023 113.978 35.09C110.741 33.8946 109.208 32.1015 109.208 29.8815C109.208 28.3445 109.804 27.1491 110.912 26.2099C112.019 25.2706 113.553 24.7583 115.341 24.7583C117.045 24.7583 118.408 25.0145 119.516 25.6122L118.749 28.003C117.727 27.4053 116.534 27.1491 115.256 27.1491C114.234 27.1491 113.382 27.4053 112.871 27.9176C112.36 28.3445 112.104 28.9422 112.104 29.5399C112.104 30.223 112.36 30.8207 112.956 31.333C113.467 31.7599 114.319 32.2723 115.597 32.7846C117.13 33.3823 118.323 34.1507 119.09 35.0046C119.856 35.6877 120.197 36.7977 120.197 38.0785Z" fill="white"/>
<path d="M129.907 32.1869H126.67V38.5908C126.67 40.2131 127.267 41.067 128.374 41.067C128.885 41.067 129.311 40.9816 129.652 40.8962L129.737 43.1163C129.141 43.3724 128.374 43.4578 127.437 43.4578C126.244 43.4578 125.393 43.1163 124.711 42.4332C124.03 41.7501 123.774 40.5547 123.774 38.847V32.1869H121.815V29.9668H123.774V27.576L126.67 26.7222V29.9668H129.907V32.1869Z" fill="white"/>
<path d="M144.389 36.4564C144.389 38.5057 143.792 40.128 142.685 41.4942C141.492 42.8604 139.874 43.5435 137.829 43.5435C135.87 43.5435 134.337 42.8604 133.229 41.5796C132.122 40.2988 131.526 38.6765 131.526 36.7126C131.526 34.6633 132.122 32.9556 133.315 31.6748C134.507 30.394 136.126 29.7109 138.085 29.7109C140.044 29.7109 141.578 30.394 142.77 31.6748C143.878 32.8702 144.389 34.4925 144.389 36.4564ZM141.407 36.5418C141.407 35.3464 141.152 34.3218 140.641 33.3825C140.044 32.3579 139.192 31.7602 138 31.7602C136.807 31.7602 135.955 32.2725 135.359 33.3825C134.848 34.2364 134.592 35.3464 134.592 36.5418C134.592 37.7372 134.848 38.7618 135.359 39.7011C135.955 40.7257 136.892 41.238 138 41.238C139.107 41.238 139.959 40.7257 140.641 39.6157C141.152 38.8472 141.407 37.8226 141.407 36.5418Z" fill="white"/>
<path d="M153.93 32.5282C153.674 32.4429 153.334 32.4429 152.993 32.4429C151.971 32.4429 151.204 32.8698 150.608 33.6383C150.096 34.3213 149.841 35.1752 149.841 36.2852V43.2015H146.945V34.1506C146.945 32.6136 146.945 31.2475 146.859 29.9667H149.415L149.5 32.5282H149.585C149.926 31.6744 150.352 30.9913 151.034 30.479C151.715 29.9667 152.396 29.7959 153.163 29.7959C153.419 29.7959 153.674 29.7959 153.93 29.8813V32.5282Z" fill="white"/>
<path d="M167.048 35.9437C167.048 36.456 167.048 36.8829 166.962 37.3099H158.188C158.188 38.5906 158.614 39.6153 159.466 40.2984C160.233 40.8961 161.17 41.2376 162.362 41.2376C163.64 41.2376 164.833 41.0668 165.94 40.6399L166.366 42.6892C165.088 43.2015 163.64 43.543 161.936 43.543C159.892 43.543 158.274 42.9453 157.166 41.7499C155.974 40.5545 155.377 38.9322 155.377 36.8829C155.377 34.9191 155.888 33.2113 156.996 31.9305C158.103 30.479 159.636 29.7959 161.596 29.7959C163.47 29.7959 164.918 30.479 165.94 31.9305C166.622 32.9552 167.048 34.3214 167.048 35.9437ZM164.236 35.1752C164.236 34.3213 164.066 33.5529 163.64 32.9552C163.129 32.1013 162.362 31.7598 161.34 31.7598C160.403 31.7598 159.636 32.1867 159.04 32.9552C158.529 33.5529 158.274 34.3214 158.188 35.2606H164.236V35.1752Z" fill="white"/>
</svg>
