<svg width="36" height="35" viewBox="0 0 36 35" fill="none" xmlns="http://www.w3.org/2000/svg">
<path d="M16.1035 19.6488L21.6205 16.8179L16.1035 14.0703V19.6488Z" fill="#A1A1A1"/>
<path d="M18.1024 0C8.24139 0 0.248291 7.66005 0.248291 17.1102C0.248291 26.5604 8.24139 34.2204 18.1024 34.2204C27.9635 34.2204 35.9566 26.5604 35.9566 17.1102C35.9566 7.66005 28.0069 0 18.1024 0ZM28.0938 21.1068C27.8766 22.5638 27.1381 23.3548 25.5742 23.5213C23.8801 23.6879 20.0138 23.8128 18.2762 23.8128C16.4951 23.8128 12.933 23.7295 11.1519 23.6046C9.63149 23.4797 8.54547 22.6471 8.37171 21.19C8.19795 20.1076 8.11106 18.8587 8.11106 16.8604C8.11106 14.6124 8.19795 13.6549 8.41515 12.6557C8.71923 11.1987 9.41429 10.4909 11.065 10.366C12.8027 10.1995 14.41 10.1163 18.059 10.1163C19.8401 10.1163 23.7063 10.1995 25.4874 10.366C27.0512 10.4909 27.92 11.4068 28.0938 12.8639C28.2241 13.863 28.3544 15.3201 28.3544 16.9021C28.3544 19.5248 28.0938 21.1068 28.0938 21.1068Z" fill="#A1A1A1"/>
</svg>
