<svg width="15" height="17" viewBox="0 0 15 17" fill="none" xmlns="http://www.w3.org/2000/svg">
<path fill-rule="evenodd" clip-rule="evenodd" d="M0.995113 14.4054C-0.331704 14.4054 -0.331704 12.4468 0.995113 12.4468C2.0692 12.4468 2.13239 8.65591 2.13239 7.32909C2.13239 4.17 4.02784 2.33773 6.17602 1.89545C5.79693 1.01091 6.42875 0 7.37647 0C8.3242 0 8.95602 1.01091 8.57693 1.89545C10.7251 2.33773 12.6206 4.17 12.6206 7.32909C12.6206 8.65591 12.6837 12.4468 13.7578 12.4468C15.0847 12.4468 15.0847 14.4054 13.7578 14.4054H0.995113Z" fill="white"/>
<path fill-rule="evenodd" clip-rule="evenodd" d="M8.51494 14.848C9.02039 15.7325 8.38858 16.8698 7.37767 16.8698C6.36676 16.8698 5.73494 15.7325 6.2404 14.848H8.51494Z" fill="white"/>
</svg>
