<svg width="49" height="47" viewBox="0 0 49 47" fill="none" xmlns="http://www.w3.org/2000/svg">
<path d="M28.1722 2.68531L31.3092 12.2823C31.8259 13.8695 33.3022 14.9769 34.9999 14.9769H45.1122C48.8766 14.9769 50.4267 19.7754 47.4004 21.99L39.2072 27.9328C37.8416 28.9294 37.288 30.6643 37.8047 32.2884L40.9418 41.8854C42.0859 45.4658 38.0262 48.4187 34.9629 46.2409L26.7697 40.2982C25.4042 39.3016 23.5589 39.3016 22.1934 40.2982L14.0001 46.2409C10.9738 48.4556 6.87722 45.4658 8.02132 41.8854L11.1584 32.2884C11.675 30.7012 11.1214 28.9294 9.75591 27.9328L1.59961 21.99C-1.42671 19.7754 0.123357 14.9769 3.8878 14.9769H14.0001C15.6978 14.9769 17.1741 13.9064 17.6908 12.2823L20.8278 2.68531C21.935 -0.895105 26.9912 -0.895105 28.1722 2.68531Z" fill="black"/>
</svg>
