<svg width="35" height="35" viewBox="0 0 35 35" fill="none" xmlns="http://www.w3.org/2000/svg">
<path d="M17.1102 0C7.66005 0 0 7.66005 0 17.1102C0 26.5604 7.66005 34.2204 17.1102 34.2204C26.5604 34.2204 34.2204 26.5604 34.2204 17.1102C34.2204 7.66005 26.602 0 17.1102 0ZM22.1475 9.82485C21.3149 9.82485 20.5239 9.82485 19.6913 9.82485C19.1918 9.78322 18.6506 10.1995 18.5673 10.6991C18.5673 11.5733 18.5673 12.4892 18.5673 13.3635C19.7746 13.3635 20.9402 13.3635 22.1475 13.3635C22.0643 14.654 21.8978 15.9446 21.6896 17.1935C20.6488 17.1935 19.5664 17.1935 18.5257 17.1935C18.5257 20.9819 18.5257 24.8119 18.5257 28.6003C16.9437 28.6003 15.4034 28.6003 13.8214 28.6003C13.7798 24.8119 13.8214 20.9819 13.8214 17.1935C13.072 17.1935 12.2811 17.1935 11.5317 17.1935C11.5317 15.9029 11.5317 14.654 11.5317 13.3635C12.2811 13.3635 13.072 13.3635 13.8214 13.3635C13.863 12.1145 13.7798 10.8656 13.863 9.61669C13.9463 8.61756 14.321 7.61842 15.0703 6.95233C15.9446 6.11971 17.2351 5.8283 18.4008 5.78667C19.6497 5.78667 20.9402 5.78667 22.1892 5.78667C22.1475 7.16048 22.1475 8.49266 22.1475 9.82485Z" fill="#A2A2A2"/>
</svg>
