<svg width="37" height="35" viewBox="0 0 37 35" fill="none" xmlns="http://www.w3.org/2000/svg">
<path d="M23.1323 8.49278H13.7057C11.3599 8.49278 9.44849 10.3245 9.44849 12.5726V21.6481C9.44849 23.8961 11.3599 25.7279 13.7057 25.7279H23.0889C25.4347 25.7279 27.3461 23.8961 27.3461 21.6481V12.5726C27.3895 10.3245 25.4781 8.49278 23.1323 8.49278ZM18.4407 22.564C15.2695 22.564 12.6631 20.1077 12.6631 17.0687C12.6631 14.0297 15.2695 11.5735 18.4407 11.5735C21.6119 11.5735 24.2183 14.0297 24.2183 17.0687C24.2183 20.1077 21.6119 22.564 18.4407 22.564ZM24.3052 12.6975C23.5667 12.6975 22.9586 12.1147 22.9586 11.4069C22.9586 10.6992 23.5667 10.1164 24.3052 10.1164C25.0437 10.1164 25.6519 10.6992 25.6519 11.4069C25.6519 12.1147 25.0872 12.6975 24.3052 12.6975Z" fill="#A2A2A2"/>
<path d="M18.4403 0C8.57928 0 0.586182 7.66005 0.586182 17.1102C0.586182 26.5604 8.57928 34.2204 18.4403 34.2204C28.3014 34.2204 36.2945 26.5604 36.2945 17.1102C36.2945 7.66005 28.3448 0 18.4403 0ZM29.4743 21.6896C29.4743 25.0617 26.6072 27.8093 23.0885 27.8093H13.7053C10.1866 27.8093 7.3195 25.0617 7.3195 21.6896V12.5725C7.3195 9.20039 10.1866 6.45276 13.7053 6.45276H23.0885C26.6072 6.45276 29.4743 9.20039 29.4743 12.5725V21.6896Z" fill="#A2A2A2"/>
<path d="M18.4405 20.5649C20.4798 20.5649 22.133 19.0179 22.133 17.1096C22.133 15.2012 20.4798 13.6542 18.4405 13.6542C16.4012 13.6542 14.748 15.2012 14.748 17.1096C14.748 19.0179 16.4012 20.5649 18.4405 20.5649Z" fill="#A2A2A2"/>
</svg>
