<svg width="35" height="35" viewBox="0 0 35 35" fill="none" xmlns="http://www.w3.org/2000/svg">
<path d="M17.7723 0C8.32216 0 0.662109 7.66005 0.662109 17.1102C0.662109 26.5604 8.32216 34.2204 17.7723 34.2204C27.2225 34.2204 34.8825 26.5604 34.8825 17.1102C34.9242 7.66005 27.2641 0 17.7723 0ZM25.1826 19.0669C25.3075 19.2334 25.6405 19.5664 26.1401 20.0244L26.1817 20.066C27.2641 21.1068 28.0135 21.9394 28.4298 22.6471C28.4714 22.6887 28.4714 22.7304 28.5131 22.8136C28.5547 22.8553 28.5547 22.9802 28.5963 23.105C28.6379 23.2716 28.6379 23.3965 28.5963 23.5213C28.5547 23.6462 28.4714 23.7295 28.3049 23.8544C28.1384 23.9377 27.9302 24.0209 27.5972 24.0209L24.5998 24.0625C24.4332 24.1042 24.1835 24.0625 23.9337 24.0209C23.6839 23.9377 23.4757 23.8544 23.3092 23.7711L23.0594 23.6462C22.8096 23.4797 22.5599 23.2299 22.2268 22.8969C21.9354 22.5638 21.644 22.2724 21.4358 21.981C21.2277 21.7312 20.9779 21.4814 20.7281 21.3149C20.4783 21.1484 20.2702 21.0651 20.062 21.1484C20.0204 21.1484 20.0204 21.19 19.9788 21.19C19.9371 21.19 19.8539 21.2733 19.7706 21.3566C19.6873 21.4398 19.6041 21.5647 19.5208 21.6896C19.4376 21.8145 19.3959 22.0226 19.3127 22.3141C19.271 22.5638 19.2294 22.8969 19.2294 23.2299C19.2294 23.3548 19.2294 23.4381 19.1878 23.563C19.1461 23.6462 19.1461 23.7295 19.1045 23.7711L19.0629 23.8128C18.938 23.9793 18.7298 24.0625 18.4384 24.0625H17.1062C16.565 24.1042 15.9822 24.0209 15.3994 23.8544C14.8165 23.6879 14.317 23.4797 13.859 23.2299C13.4011 22.9802 13.0264 22.7304 12.6518 22.439C12.2771 22.1892 12.0273 21.9394 11.8191 21.7729L11.5277 21.4814C11.4445 21.3982 11.3612 21.2733 11.1947 21.1484C11.0698 20.9819 10.7784 20.6488 10.3621 20.066C9.94576 19.4832 9.52945 18.942 9.11314 18.3175C8.69683 17.6931 8.2389 16.8604 7.6977 15.8613C7.1565 14.8205 6.65693 13.7798 6.15736 12.6974C6.11573 12.5725 6.0741 12.4476 6.0741 12.3643C6.0741 12.2811 6.0741 12.1978 6.11573 12.1978L6.15736 12.1145C6.28225 11.948 6.49041 11.9064 6.82345 11.9064L10.029 11.8648C10.1123 11.8648 10.1955 11.9064 10.2788 11.948C10.3621 11.9896 10.4453 12.0313 10.4453 12.0313L10.487 12.0729C10.6118 12.1562 10.6951 12.2811 10.7784 12.4476C10.9449 12.8223 11.1114 13.2386 11.3196 13.6549C11.5277 14.0712 11.6942 14.4042 11.8191 14.6124L11.9857 14.9454C12.1938 15.4034 12.4436 15.8197 12.6518 16.1527C12.8599 16.4858 13.0681 16.7772 13.2346 16.9437C13.4011 17.1519 13.5676 17.2767 13.7341 17.4016C13.9007 17.5265 14.0256 17.5682 14.1505 17.5682C14.2753 17.5682 14.3586 17.5682 14.4835 17.5265L14.5251 17.4849C14.5251 17.4849 14.6084 17.36 14.65 17.2351C14.7333 17.1102 14.7749 16.9021 14.8165 16.6939C14.8582 16.4858 14.8998 16.1527 14.9414 15.7364C14.9831 15.3201 14.9831 14.8622 14.9414 14.2793C14.9414 13.9463 14.8998 13.6965 14.8165 13.4051C14.7749 13.1553 14.6917 12.9888 14.65 12.8639L14.5668 12.739C14.3586 12.4892 14.0256 12.3227 13.5676 12.2394C13.4844 12.2394 13.4844 12.1145 13.6093 11.948C13.7341 11.7815 13.9007 11.6982 14.0672 11.615C14.4835 11.4068 15.3994 11.3236 16.8565 11.3236C17.4809 11.3236 18.0221 11.3652 18.4384 11.4901C18.6049 11.5317 18.7298 11.5733 18.8131 11.6566C18.938 11.7399 18.9796 11.8231 19.0629 11.948C19.1045 12.0729 19.1461 12.1978 19.1878 12.3227C19.2294 12.4476 19.2294 12.6141 19.2294 12.8639C19.2294 13.072 19.2294 13.3218 19.2294 13.4883C19.2294 13.6965 19.2294 13.9463 19.1878 14.321C19.1878 14.654 19.1878 14.9871 19.1878 15.2785C19.1878 15.3617 19.1878 15.5283 19.1878 15.778C19.1878 16.0278 19.1878 16.1943 19.1878 16.3192C19.1878 16.4441 19.1878 16.6107 19.2294 16.7772C19.271 16.9437 19.3127 17.1102 19.3543 17.2351C19.4376 17.36 19.5208 17.4433 19.6041 17.5265C19.6457 17.5265 19.729 17.5682 19.8122 17.5682C19.8955 17.5682 19.9788 17.5265 20.1036 17.4433C20.2285 17.36 20.3951 17.1935 20.5616 17.027C20.7281 16.8604 20.9363 16.6107 21.186 16.236C21.4358 15.8613 21.6856 15.445 21.977 14.9871C22.435 14.1961 22.8513 13.2802 23.226 12.3643C23.2676 12.2811 23.3092 12.1978 23.3508 12.1562C23.3925 12.1145 23.4341 12.0729 23.4757 12.0313L23.5174 11.9896C23.5174 11.9896 23.559 11.9896 23.559 11.948C23.6006 11.948 23.6423 11.9064 23.7255 11.9064C23.8088 11.9064 23.892 11.9064 23.9753 11.9064L27.3474 11.8648C27.6388 11.8231 27.8886 11.8231 28.0967 11.9064C28.3049 11.948 28.4298 12.0313 28.4714 12.1145L28.5547 12.2394C28.7212 12.739 28.1384 13.9047 26.8062 15.6948C26.6397 15.9446 26.3483 16.2776 26.0568 16.6939C25.4324 17.4849 25.0993 17.9845 25.0161 18.2342C24.8912 18.4424 24.9328 18.7338 25.1826 19.0669Z" fill="#A2A2A2"/>
</svg>
