<svg width="159" height="39" viewBox="0 0 159 39" fill="none" xmlns="http://www.w3.org/2000/svg">
<path d="M97.4634 12.3219C98.1975 12.7286 98.7684 13.3183 99.1762 14.0503C99.584 14.7823 99.7879 15.6363 99.7879 16.5717C99.7879 17.5477 99.5636 18.4017 99.1354 19.154C98.7072 19.9064 98.0955 20.4961 97.3003 20.9027C96.5051 21.3094 95.608 21.5331 94.5885 21.5331C92.8757 21.5331 91.5708 20.9434 90.6328 19.7844C89.6949 18.6254 89.2463 16.9783 89.2463 14.8636C89.2463 12.8099 89.6745 11.2036 90.5105 10.0242C91.3669 8.86519 92.6514 8.09251 94.405 7.70617L98.9927 6.68948L99.2578 8.35685L95.0371 9.27186C93.7321 9.55653 92.733 10.0445 92.1009 10.7562C91.4484 11.4476 91.0814 12.4439 90.9999 13.7453C91.428 13.0946 91.9786 12.6066 92.6718 12.2609C93.3447 11.9152 94.1195 11.7322 94.9759 11.7322C95.8934 11.6916 96.7294 11.8949 97.4634 12.3219ZM96.3624 19.581C96.8518 19.2964 97.2595 18.8897 97.5246 18.3814C97.8101 17.873 97.9324 17.2833 97.9324 16.6327C97.9324 15.6363 97.6266 14.8433 97.0149 14.2333C96.4032 13.6233 95.608 13.3183 94.6293 13.3183C93.6505 13.3183 92.8349 13.6233 92.2233 14.2333C91.6116 14.8433 91.3057 15.6363 91.3057 16.6327C91.3057 17.2833 91.4484 17.873 91.7339 18.3814C92.0194 18.8897 92.4068 19.2964 92.9165 19.581C93.4263 19.8657 93.9972 20.008 94.6293 20.008C95.2817 20.008 95.8526 19.8657 96.3624 19.581Z" fill="white"/>
<path d="M102.398 11.3455H104.212V18.6453L110.37 11.3455H112.022V21.37H110.207V14.0702L104.07 21.37H102.398V11.3455Z" fill="white"/>
<path d="M122.38 16.999C122.747 17.3854 122.931 17.8734 122.931 18.4631C122.931 19.0527 122.727 19.5814 122.319 20.0491C121.911 20.5168 121.361 20.8624 120.647 21.1268C119.933 21.3911 119.138 21.5131 118.241 21.5131C117.486 21.5131 116.773 21.4115 116.059 21.2284C115.346 21.0251 114.713 20.7608 114.163 20.3948L114.713 19.0121C115.203 19.3171 115.753 19.5611 116.365 19.7238C116.977 19.8864 117.609 19.9881 118.241 19.9881C119.097 19.9881 119.79 19.8458 120.3 19.5408C120.81 19.2357 121.075 18.8494 121.075 18.3411C121.075 17.8734 120.871 17.5074 120.463 17.2634C120.056 17.0194 119.464 16.877 118.73 16.877H116.895V15.5757H118.608C119.281 15.5757 119.831 15.4537 120.219 15.2097C120.606 14.9657 120.81 14.6403 120.81 14.2337C120.81 13.7863 120.586 13.4203 120.117 13.1763C119.648 12.9323 119.036 12.79 118.241 12.79C117.242 12.79 116.181 13.0543 115.08 13.5626L114.591 12.1596C115.814 11.5496 117.099 11.2243 118.445 11.2243C119.26 11.2243 119.974 11.3463 120.626 11.5699C121.279 11.7936 121.768 12.119 122.135 12.5256C122.502 12.9323 122.686 13.4203 122.686 13.949C122.686 14.437 122.523 14.8843 122.196 15.2707C121.87 15.657 121.422 15.962 120.871 16.1654C121.503 16.328 122.013 16.6127 122.38 16.999Z" fill="white"/>
<path d="M125.703 11.3455H127.518V15.5952H133.248V11.3455H135.062V21.37H133.248V17.1813H127.518V21.37H125.703V11.3455Z" fill="white"/>
<path d="M147.663 16.958H139.507C139.629 17.8323 140.017 18.544 140.669 19.093C141.342 19.6217 142.158 19.9064 143.137 19.9064C144.34 19.9064 145.298 19.4997 146.032 18.6863L147.031 19.8657C146.582 20.3944 146.012 20.801 145.339 21.0857C144.666 21.3704 143.911 21.4924 143.075 21.4924C142.015 21.4924 141.077 21.2687 140.241 20.8417C139.426 20.4147 138.793 19.8047 138.345 19.0117C137.896 18.239 137.672 17.3443 137.672 16.3683C137.672 15.3923 137.896 14.5179 138.325 13.7453C138.753 12.9726 139.364 12.3626 140.119 11.9152C140.894 11.4882 141.75 11.2646 142.708 11.2646C143.667 11.2646 144.523 11.4882 145.277 11.9152C146.032 12.3422 146.623 12.9523 147.031 13.7453C147.459 14.5179 147.663 15.4126 147.663 16.4293C147.704 16.5513 147.683 16.7343 147.663 16.958ZM140.547 13.5826C139.956 14.1113 139.609 14.8026 139.507 15.6566H145.95C145.848 14.8026 145.502 14.1316 144.91 13.5826C144.319 13.0539 143.585 12.7692 142.729 12.7692C141.872 12.7692 141.118 13.0539 140.547 13.5826Z" fill="white"/>
<path d="M152.169 20.8216C151.374 20.3742 150.742 19.7642 150.273 18.9915C149.825 18.2189 149.6 17.3445 149.6 16.3482C149.6 15.3722 149.825 14.4775 150.273 13.7048C150.722 12.9321 151.354 12.3221 152.169 11.8951C152.965 11.4681 153.882 11.2444 154.902 11.2444C155.819 11.2444 156.614 11.4274 157.348 11.7934C158.062 12.1594 158.613 12.6881 159 13.3795L157.614 14.2741C157.308 13.7861 156.9 13.4405 156.431 13.1964C155.962 12.9524 155.452 12.8304 154.881 12.8304C154.229 12.8304 153.638 12.9728 153.107 13.2574C152.577 13.5421 152.169 13.9691 151.884 14.4978C151.578 15.0265 151.435 15.6568 151.435 16.3482C151.435 17.0598 151.578 17.6699 151.884 18.2189C152.19 18.7475 152.598 19.1745 153.107 19.4592C153.638 19.7439 154.229 19.8862 154.881 19.8862C155.452 19.8862 155.962 19.7642 156.431 19.5202C156.9 19.2762 157.287 18.9305 157.614 18.4425L159 19.3169C158.613 20.0082 158.062 20.5369 157.348 20.9232C156.635 21.2893 155.819 21.4723 154.902 21.4723C153.882 21.4926 152.965 21.2689 152.169 20.8216Z" fill="white"/>
<path d="M71.1178 6.42096L68.8975 8.63516L71.1178 10.8494L73.3381 8.63516L71.1178 6.42096Z" fill="white"/>
<path d="M71.1218 -0.00604174L68.9015 2.20816L71.1218 4.42236L73.3421 2.20816L71.1218 -0.00604174Z" fill="white"/>
<path d="M67.8611 3.21698L65.6408 5.43118L67.8611 7.64539L70.0815 5.43118L67.8611 3.21698Z" fill="white"/>
<path d="M74.3205 3.20636L72.1002 5.42056L74.3205 7.63477L76.5408 5.42056L74.3205 3.20636Z" fill="white"/>
<path d="M30.0342 10.8573V38.9991H23.2648V22.4475L14.8846 28.568L6.76943 22.5085V38.9991H0V10.8573L14.9865 20.5158L30.0342 10.8573Z" fill="white"/>
<path d="M55.1342 21.0038C55.1342 26.5956 50.5872 31.1503 44.9596 31.1503C39.332 31.1503 34.7851 26.6159 34.7851 21.0038C34.7851 15.4121 39.332 10.8573 44.9596 10.8573C50.5872 10.8573 55.1342 15.4121 55.1342 21.0038ZM49.2211 21.0038C49.2211 19.8652 48.7929 18.8078 47.9773 17.9945C47.1617 17.1811 46.1015 16.7541 44.9596 16.7541C43.8178 16.7541 42.7575 17.1811 41.9419 17.9945C41.1263 18.8078 40.6982 19.8652 40.6982 21.0038C40.6982 22.1425 41.1263 23.1999 41.9419 24.0132C42.7575 24.8062 43.8178 25.2536 44.9596 25.2536C46.1015 25.2536 47.1617 24.7859 47.9773 24.0132C48.7929 23.1999 49.2211 22.1425 49.2211 21.0038Z" fill="white"/>
<path d="M55.1138 33.2449H34.7851V38.9993H55.1138V33.2449Z" fill="white"/>
<path d="M83.2923 11.1421C83.2923 16.2052 83.2719 22.4476 83.2719 27.0227C83.2719 34.5461 76.6249 38.9179 71.1604 38.9179C66.1241 38.9179 59.1304 34.8918 59.1304 26.921C59.1304 22.6306 59.1508 16.3068 59.1508 11.1217H65.4512L65.4308 26.921C65.4308 28.6494 66.0425 30.0321 67.3067 31.0691C68.5709 32.1468 70.1613 32.6348 71.1604 32.6348C71.7721 32.6348 72.4653 32.4721 73.1178 32.2484C73.8518 31.9434 74.5859 31.5571 75.1568 31.0284C75.7277 30.4997 76.1967 29.9507 76.5025 29.3C76.8491 28.6087 76.9715 27.8767 76.9715 27.0023L76.9919 11.1217H83.2923V11.1421Z" fill="white"/>
</svg>
