<svg width="20" height="17" viewBox="0 0 20 17" fill="none" xmlns="http://www.w3.org/2000/svg">
<path fill-rule="evenodd" clip-rule="evenodd" d="M5.70455 0.00735638C4.59091 0.00735638 3.65909 0.926267 3.65909 2.05194V3.06276H2.04545C0.931818 3.06276 0 3.98168 0 5.13033V11.2871C0 12.4357 0.931818 13.3546 2.04545 13.3546H2.15909V16.5479C2.15909 16.8006 2.36364 17.0074 2.61364 17.0074C2.75 17.0074 2.88636 16.9384 2.97727 16.8465L5.97727 13.3546H14.3182C15.4318 13.3546 16.3636 12.4357 16.3636 11.2871V10.2533H17.9545C19.0682 10.2533 20 9.33437 20 8.2087V2.02898C20 0.9033 19.0682 -0.015625 17.9545 -0.015625L5.70455 0.00735638ZM5.70455 0.926275H17.9545C18.5909 0.926275 19.0909 1.43167 19.0909 2.05194V8.23168C19.0909 8.85195 18.5682 9.35734 17.9545 9.35734H16.3409V5.13033C16.3409 4.00465 15.4091 3.06276 14.2955 3.06276H4.56818V2.05194C4.56818 1.43167 5.09091 0.926275 5.70455 0.926275ZM4.25 7.06005C4.93182 7.06005 5.52273 7.63437 5.52273 8.32356C5.52273 9.01275 4.95455 9.58708 4.25 9.58708C3.56818 9.58708 2.97727 9.03572 2.97727 8.32356C2.97727 7.63437 3.54545 7.06005 4.25 7.06005ZM8.04545 7.06005C8.75 7.06005 9.31818 7.63437 9.31818 8.32356C9.31818 9.01275 8.72727 9.58708 8.04545 9.58708C7.36364 9.58708 6.77273 9.01275 6.77273 8.32356C6.79545 7.63437 7.36364 7.06005 8.04545 7.06005ZM11.8636 7.06005C12.5455 7.06005 13.1364 7.63437 13.1364 8.32356C13.1364 9.01275 12.5455 9.58708 11.8636 9.58708C11.1818 9.58708 10.5909 9.01275 10.5909 8.32356C10.5909 7.63437 11.1591 7.06005 11.8636 7.06005Z" fill="black"/>
</svg>
