<svg width="18" height="17" viewBox="0 0 18 17" fill="none" xmlns="http://www.w3.org/2000/svg">
<path d="M5.37251 9.87122L4.49583 12.299C4.02377 11.8269 3.37187 11.5122 2.63006 11.5122C1.16892 11.5122 0 12.6811 0 14.1198C0 15.5584 1.16892 16.7498 2.63006 16.7498C3.75402 16.7498 4.72062 16.0305 5.08029 15.0189L6.56391 10.9727L8.04753 15.0189C8.4072 16.0305 9.3738 16.7498 10.4978 16.7498C11.9364 16.7498 13.1278 15.5809 13.1278 14.1198C13.1278 12.6811 11.9589 11.4897 10.4978 11.4897C9.77843 11.4897 9.10405 11.7819 8.63199 12.2765L7.7553 9.87122L10.273 2.94764C10.7001 1.77873 10.0931 0.497416 8.92422 0.0703125L6.56391 6.58926L5.37251 9.87122ZM2.63006 15.2437C2.00064 15.2437 1.5061 14.7492 1.5061 14.1198C1.5061 13.4904 2.00064 12.9958 2.63006 12.9958C3.25947 12.9958 3.75402 13.4904 3.75402 14.1198C3.75402 14.7492 3.237 15.2437 2.63006 15.2437ZM10.4978 15.2437C9.86834 15.2437 9.3738 14.7492 9.3738 14.1198C9.3738 13.4904 9.86834 12.9958 10.4978 12.9958C11.1272 12.9958 11.6217 13.4904 11.6217 14.1198C11.6217 14.7492 11.1272 15.2437 10.4978 15.2437Z" fill="black"/>
<path d="M15.6454 0H12.1611V1.39371H15.6454V2.78741H12.1611V4.18112H15.6454V5.57483H12.1611V6.96853H15.6454V8.36224H12.1611V9.75595H15.6454V15.6904C15.6454 16.2749 16.1175 16.747 16.7019 16.747C17.2864 16.747 17.7584 16.2749 17.7584 15.6904V2.09056C17.736 0.944124 16.8143 0 15.6454 0Z" fill="black"/>
<path d="M4.563 7.68975L5.75439 4.40779L4.18085 0.0917969C3.01194 0.5189 2.405 1.80021 2.83211 2.96913L4.563 7.68975Z" fill="black"/>
</svg>
