<svg width="53" height="53" viewBox="0 0 53 53" fill="none" xmlns="http://www.w3.org/2000/svg">
<circle cx="26.5" cy="26.5" r="26.5" fill="black"/>
<path fill-rule="evenodd" clip-rule="evenodd" d="M15.7601 14.029C14.8093 14.029 14.0385 14.7928 14.0385 15.735V32.9876L17.934 29.1276C18.4516 28.6147 19.1537 28.3266 19.8857 28.3266H32.0749C33.0257 28.3266 33.7966 27.5628 33.7966 26.6206V15.735C33.7966 14.7928 33.0257 14.029 32.0749 14.029H15.7601ZM13 15.735C13 14.2245 14.2357 13 15.7601 13H32.0749C33.5993 13 34.835 14.2245 34.835 15.735V26.6206C34.835 28.1311 33.5993 29.3556 32.0749 29.3556H19.8857C19.4291 29.3556 18.9912 29.5353 18.6683 29.8552L14.4462 34.0388C13.9125 34.5677 13 34.1931 13 33.4453V15.735ZM18.4383 18.6324C18.4383 18.3482 18.6707 18.1179 18.9575 18.1179H29.4514C29.7382 18.1179 29.9706 18.3482 29.9706 18.6324C29.9706 18.9165 29.7382 19.1469 29.4514 19.1469H18.9575C18.6707 19.1469 18.4383 18.9165 18.4383 18.6324ZM36.4474 20.3113C36.4474 20.0271 36.6798 19.7968 36.9666 19.7968H37.2399C38.7643 19.7968 40 21.0212 40 22.5317V39.1589C40 39.9067 39.0875 40.2813 38.5538 39.7524L35.6981 36.9228C35.3752 36.6029 34.9373 36.4231 34.4807 36.4231H22.7561C21.2317 36.4231 19.996 35.1986 19.996 33.6882V32.3072C19.996 32.023 20.2284 31.7927 20.5152 31.7927C20.8019 31.7927 21.0344 32.023 21.0344 32.3072V33.6882C21.0344 34.6303 21.8052 35.3941 22.7561 35.3941H34.4807C35.2127 35.3941 35.9148 35.6823 36.4324 36.1952L38.9615 38.7013V22.5317C38.9615 21.5895 38.1907 20.8258 37.2399 20.8258H36.9666C36.6798 20.8258 36.4474 20.5954 36.4474 20.3113ZM18.4383 22.1526C18.4383 21.8685 18.6707 21.6381 18.9575 21.6381H26.1447C26.4315 21.6381 26.664 21.8685 26.664 22.1526C26.664 22.4368 26.4315 22.6671 26.1447 22.6671H18.9575C18.6707 22.6671 18.4383 22.4368 18.4383 22.1526Z" fill="white"/>
</svg>
