<svg width="200" height="200" viewBox="0 0 200 200" fill="none" xmlns="http://www.w3.org/2000/svg">
<path d="M200 100C200 155.228 155.228 200 100 200C44.7715 200 0 155.228 0 100C0 44.7715 44.7715 0 100 0C155.228 0 200 44.7715 200 100Z" fill="black"/>
<path d="M104.265 73.951H64.564C63.2988 73.951 62.2731 72.9407 62.2731 71.6946C62.2731 70.4484 63.2988 69.4381 64.564 69.4381H104.265C105.53 69.4381 106.556 70.4484 106.556 71.6946C106.556 72.9407 105.53 73.951 104.265 73.951Z" fill="white"/>
<path d="M104.265 89.7462H64.564C63.2988 89.7462 62.2731 88.7359 62.2731 87.4897C62.2731 86.2436 63.2988 85.2333 64.564 85.2333H104.265C105.53 85.2333 106.556 86.2436 106.556 87.4897C106.556 88.7359 105.53 89.7462 104.265 89.7462Z" fill="white"/>
<path fill-rule="evenodd" clip-rule="evenodd" d="M63.5139 110.052L44.6212 123.327C43.1097 124.39 41 123.322 41 121.491V62.9371C41 56.3558 46.4376 51 53.119 51H111.128C117.81 51 123.247 56.3558 123.247 62.9371L123.248 96.2037C123.248 102.785 117.81 108.141 111.129 108.141H69.577C67.3918 108.141 65.2927 108.803 63.5139 110.052ZM45.5817 62.9371C45.5817 58.8422 48.9619 55.5129 53.119 55.5129H111.128C115.285 55.5129 118.666 58.8422 118.666 62.9371V96.2037C118.666 100.299 115.285 103.628 111.128 103.628H69.5768C66.4294 103.628 63.4154 104.578 60.8532 106.379L45.5817 117.109V62.9371Z" fill="white"/>
<path d="M127.424 129.881C130.571 129.881 133.585 130.831 136.147 132.631L151.418 143.362V89.1904C151.418 85.0953 148.039 81.7644 143.881 81.7644H134.702C133.437 81.7644 132.411 80.7541 132.411 79.508C132.411 78.2618 133.437 77.2515 134.702 77.2515H143.881C150.562 77.2515 156 82.608 156 89.1904L156 147.743C156 149.576 153.885 150.638 152.379 149.58L133.486 136.305C131.708 135.055 129.609 134.394 127.424 134.394H85.8705C79.1896 134.394 73.752 129.037 73.752 122.455V119.423C73.752 118.176 74.7777 117.166 76.0429 117.166C77.308 117.166 78.3337 118.176 78.3337 119.423V122.455C78.3337 126.55 81.7131 129.881 85.8705 129.881H127.424Z" fill="white"/>
</svg>
