<svg width="88" height="104" viewBox="0 0 88 104" fill="none" xmlns="http://www.w3.org/2000/svg">
<path d="M15.6984 48.1185C16.3546 50.3115 17.4483 54.4782 20.0733 56.8905C22.042 64.1273 27.7294 72.5703 36.9167 75.8598C39.1042 76.6273 41.401 77.0659 43.8072 77.0659C46.104 77.0659 48.4009 76.6273 50.5883 75.8598C59.7757 72.5703 65.463 64.237 67.4318 56.8905C70.0567 54.4782 71.1504 50.3115 71.8067 48.1185C72.791 44.6098 73.7754 39.6756 71.1504 36.1668C71.0411 36.0571 70.9317 35.9475 70.8223 35.7282C71.0411 34.5221 71.1504 33.3159 71.2598 32.2194C74.3223 11.6054 62.9475 10.2896 61.635 10.2896C61.5256 10.2896 61.5256 10.1799 61.4162 10.1799C60.1038 4.80714 52.4477 -0.784964 45.2291 0.640474C38.1198 2.17556 23.1357 0.421176 23.1357 0.421176C22.917 3.601 25.6513 5.79398 25.6513 5.79398C13.0734 13.4694 15.3702 29.9168 16.5733 35.7282C16.464 35.8378 16.3546 35.9475 16.2452 36.1668C13.7297 39.6756 14.714 44.6098 15.6984 48.1185ZM22.2607 38.4694C22.3701 38.4694 22.4795 38.4694 22.5889 38.4694V38.3598C22.2607 37.2633 20.7295 31.0133 26.0888 27.2852C30.4637 28.2721 37.0261 28.4914 45.9947 24.6536C63.1662 17.3071 64.6974 38.5791 64.6974 38.5791C64.8068 38.5791 64.9162 38.5791 65.0256 38.5791C66.7755 38.5791 68.6349 40.0045 66.6661 46.8028C65.1349 52.1756 63.7131 53.7106 62.7287 53.7106C61.7444 60.0703 56.8226 68.1843 48.729 71.0352C47.0884 71.5835 45.3384 71.9124 43.5885 71.9124C41.8385 71.9124 40.0885 71.5835 38.4479 71.0352C30.4637 68.1843 25.4326 60.0703 24.4482 53.7106C23.3545 53.601 21.9326 52.1756 20.5108 46.8028C18.6514 39.7852 20.5108 38.4694 22.2607 38.4694Z" fill="#E3E3E3"/>
<path d="M65.7917 71.5738C62.5105 75.3073 58.0262 78.5362 52.3389 80.3525C49.6045 81.2606 46.7608 81.6642 43.8078 81.6642C40.8547 81.6642 37.9016 81.1597 35.1673 80.2516C29.4799 78.3344 25.105 75.1054 21.8238 71.4729C17.1208 73.7937 8.91781 78.0317 0.386719 83.7832C10.1209 96.2953 25.98 103.052 43.8078 103.052C61.6356 103.052 77.4946 96.2953 87.2288 83.8841C78.6977 78.1326 70.6041 73.8946 65.7917 71.5738Z" fill="#E3E3E3"/>
</svg>
