<svg width="20" height="20" viewBox="0 0 20 20" fill="none" xmlns="http://www.w3.org/2000/svg">
<path d="M11.4988 1.14269L12.7793 5.22652C12.9902 5.90192 13.5927 6.37313 14.2857 6.37313H18.4131C19.9496 6.37313 20.5823 8.41504 19.3471 9.35747L16.0029 11.8863C15.4456 12.3104 15.2196 13.0486 15.4305 13.7397L16.7109 17.8236C17.1779 19.3471 15.5209 20.6037 14.2706 19.677L10.9264 17.1482C10.3691 16.7241 9.61587 16.7241 9.05851 17.1482L5.71434 19.677C4.47911 20.6194 2.80703 19.3471 3.27401 17.8236L4.55443 13.7397C4.76532 13.0643 4.53937 12.3104 3.98201 11.8863L0.652902 9.35747C-0.58233 8.41504 0.05035 6.37313 1.58686 6.37313H5.71434C6.40728 6.37313 7.00983 5.91763 7.22073 5.22652L8.50115 1.14269C8.95306 -0.380896 11.0168 -0.380896 11.4988 1.14269Z" fill="#CDCDCD"/>
</svg>
