<svg width="27" height="37" viewBox="0 0 27 37" fill="none" xmlns="http://www.w3.org/2000/svg">
<path d="M26.7617 36.7974L26.7617 0.00012207H8.01086e-05L8.01086e-05 36.7974L13.3809 27.8768L26.7617 36.7974Z" fill="white"/>
<path d="M11.8101 11.2838L12.5778 8.8352L12.5778 8.83522L12.58 8.8278C12.7051 8.40609 13.2755 8.37267 13.4224 8.83594C13.4225 8.8361 13.4225 8.83627 13.4226 8.83644L14.1903 11.2849C14.3769 11.8827 14.9203 12.3239 15.5714 12.3239H18.0479C18.2551 12.3239 18.411 12.4525 18.4744 12.6559C18.5383 12.861 18.4857 13.0786 18.3057 13.2164C18.3054 13.2166 18.3052 13.2168 18.305 13.217L16.3002 14.733L16.299 14.7339C15.7896 15.1215 15.5956 15.7854 15.7801 16.3898L15.7801 16.3898L15.7812 16.3934L16.5485 18.8407C16.5486 18.8411 16.5488 18.8416 16.5489 18.842C16.6223 19.0833 16.5311 19.2874 16.3785 19.4032C16.229 19.5167 16.0387 19.5359 15.8617 19.4057L13.8586 17.891C13.8584 17.8908 13.8582 17.8907 13.8581 17.8906C13.345 17.5006 12.646 17.5006 12.1329 17.8906C12.1327 17.8907 12.1325 17.8908 12.1323 17.891L10.127 19.4074L10.1253 19.4087C9.95544 19.5383 9.76829 19.5226 9.61607 19.4069C9.46057 19.2888 9.36917 19.0816 9.44206 18.842C9.44219 18.8415 9.44232 18.8411 9.44245 18.8407L10.2098 16.3934L10.2099 16.3929C10.3963 15.7959 10.2014 15.1215 9.69197 14.7339L9.69165 14.7336L7.69503 13.217C7.6949 13.2169 7.69478 13.2168 7.69466 13.2167C7.51434 13.0789 7.46167 12.8612 7.52564 12.6559C7.58904 12.4525 7.7449 12.3239 7.95212 12.3239H10.4286C11.0738 12.3239 11.6218 11.8979 11.8101 11.2838Z" fill="#E3E3E3" stroke="#E3E3E3"/>
</svg>
