<svg width="18" height="18" viewBox="0 0 18 18" fill="none" xmlns="http://www.w3.org/2000/svg">
<path d="M10.6762 1.76456L10.6758 1.76332C10.1481 0.0953775 7.83267 0.0608597 7.32273 1.76803L6.29948 5.03163L6.29947 5.03162L6.29835 5.03528C6.19081 5.3877 5.89573 5.5985 5.57148 5.5985H2.26949C1.40115 5.5985 0.797793 6.18454 0.587032 6.86073C0.376883 7.53495 0.534989 8.36159 1.21904 8.88349L1.21988 8.88413L3.88284 10.9069C3.88293 10.907 3.88301 10.9071 3.8831 10.9071C3.88312 10.9072 3.88314 10.9072 3.88316 10.9072C4.15374 11.1133 4.27501 11.494 4.16638 11.8424C4.16634 11.8425 4.16631 11.8426 4.16627 11.8428L3.14211 15.1093L3.1421 15.1093L3.14116 15.1123C2.88789 15.9387 3.21823 16.7095 3.78212 17.1381C4.34937 17.5692 5.1794 17.6691 5.87404 17.1397C5.87428 17.1395 5.87452 17.1393 5.87476 17.1391L8.54839 15.1173L8.54957 15.1164C8.81657 14.9133 9.17138 14.9133 9.43837 15.1164L9.43956 15.1173L12.1149 17.1404L12.1149 17.1404L12.1187 17.1433C12.8165 17.6605 13.643 17.564 14.2101 17.1336C14.7743 16.7053 15.0995 15.9369 14.8468 15.1123L14.8468 15.1123L14.8458 15.1093L13.8221 11.8441C13.7123 11.4818 13.8345 11.1133 14.1045 10.9074C14.1047 10.9073 14.1049 10.9071 14.1051 10.9069L16.7793 8.88479L16.781 8.88349C17.465 8.36159 17.6231 7.53495 17.413 6.86073C17.2022 6.18454 16.5989 5.5985 15.7305 5.5985H12.4285C12.1095 5.5985 11.8093 5.37997 11.7007 5.03218L11.7005 5.03163L10.6762 1.76456Z" fill="#E3E3E3" stroke="white"/>
</svg>
