<svg width="23" height="23" viewBox="0 0 23 23" fill="none" xmlns="http://www.w3.org/2000/svg">
<path d="M11.486 0C5.14216 0 0 5.14216 0 11.486C0 17.8299 5.14216 22.9721 11.486 22.9721C17.8299 22.9721 22.9721 17.8299 22.9721 11.486C22.9721 5.14216 17.8578 0 11.486 0ZM14.8676 6.59538C14.3086 6.59538 13.7776 6.59538 13.2187 6.59538C12.8834 6.56744 12.52 6.8469 12.4642 7.18226C12.4642 7.76914 12.4642 8.38396 12.4642 8.97084C13.2746 8.97084 14.0571 8.97084 14.8676 8.97084C14.8117 9.83718 14.6999 10.7035 14.5601 11.5419C13.8615 11.5419 13.1349 11.5419 12.4362 11.5419C12.4362 14.0851 12.4362 16.6561 12.4362 19.1993C11.3742 19.1993 10.3402 19.1993 9.27825 19.1993C9.2503 16.6561 9.27825 14.0851 9.27825 11.5419C8.77521 11.5419 8.24423 11.5419 7.74119 11.5419C7.74119 10.6756 7.74119 9.83718 7.74119 8.97084C8.24423 8.97084 8.77521 8.97084 9.27825 8.97084C9.3062 8.13244 9.2503 7.29405 9.3062 6.45565C9.36209 5.78493 9.61361 5.11422 10.1166 4.66707C10.7035 4.10814 11.5699 3.91252 12.3524 3.88457C13.1908 3.88457 14.0571 3.88457 14.8955 3.88457C14.8676 4.8068 14.8676 5.70109 14.8676 6.59538Z" fill="#A2A2A2"/>
</svg>
