<svg width="71" height="60" viewBox="0 0 71 60" fill="none" xmlns="http://www.w3.org/2000/svg">
<path d="M64.2825 0H5.72814C2.5913 0 0 2.57615 0 5.81906V53.5839C0 56.8268 2.5913 59.4029 5.72814 59.4029H64.2976C67.4193 59.4029 70.0258 56.8268 70.0258 53.5839V14.7295V14.7143V14.6992V5.81906C70.0106 2.57615 67.4193 0 64.2825 0ZM5.72814 2.42461H64.2976C66.0706 2.42461 67.586 3.90968 67.586 5.81906V13.4869H2.42461V5.81906C2.42461 3.90968 3.92484 2.42461 5.72814 2.42461ZM64.2825 56.9783H5.72814C3.93999 56.9783 2.42461 55.4933 2.42461 53.5839V15.9115H67.586V53.5839C67.586 55.4933 66.0706 56.9783 64.2825 56.9783Z" fill="black"/>
<path d="M17.6082 12.4868C19.9116 12.4868 21.7907 10.5471 21.7907 8.15284C21.7907 5.75854 19.9116 3.81885 17.6082 3.81885C15.3049 3.81885 13.4258 5.77369 13.4258 8.15284C13.4258 10.532 15.3049 12.4868 17.6082 12.4868ZM17.6082 6.25861C18.5781 6.25861 19.3661 7.10722 19.3661 8.16799C19.3661 9.22876 18.5781 10.0774 17.6082 10.0774C16.6384 10.0774 15.8504 9.22876 15.8504 8.16799C15.8504 7.10722 16.6384 6.25861 17.6082 6.25861Z" fill="black"/>
<path d="M27.2772 12.4868C29.5806 12.4868 31.4596 10.5471 31.4596 8.15282C31.4596 5.75852 29.5806 3.83398 27.2772 3.83398C24.9738 3.83398 23.0947 5.77367 23.0947 8.16797C23.0947 10.5623 24.9586 12.4868 27.2772 12.4868ZM27.2772 6.25859C28.247 6.25859 29.035 7.10721 29.035 8.16797C29.035 9.22874 28.247 10.0774 27.2772 10.0774C26.3073 10.0774 25.5193 9.22874 25.5193 8.16797C25.5193 7.10721 26.3073 6.25859 27.2772 6.25859Z" fill="black"/>
<path d="M7.95589 12.4868C10.2593 12.4868 12.1383 10.5471 12.1383 8.15282C12.1383 5.75852 10.2593 3.83398 7.95589 3.83398C5.65251 3.83398 3.77344 5.77367 3.77344 8.15282C3.77344 10.532 5.63736 12.4868 7.95589 12.4868ZM7.95589 6.25859C8.92573 6.25859 9.71373 7.10721 9.71373 8.16797C9.71373 9.22874 8.92573 10.0774 7.95589 10.0774C6.98605 10.0774 6.19805 9.22874 6.19805 8.16797C6.19805 7.10721 6.98605 6.25859 7.95589 6.25859Z" fill="black"/>
<path d="M41.2787 28.8679L18.4116 36.4145C17.7752 36.6266 17.4266 37.3085 17.6388 37.945C17.6994 38.1268 17.8055 38.2935 17.9267 38.4299L22.1698 42.673L17.366 47.5222C16.8962 47.992 16.8962 48.7648 17.366 49.2346L22.4425 54.3111C22.9123 54.7809 23.6851 54.7809 24.1549 54.3111L29.0041 49.5074L33.2472 53.7504C33.717 54.2202 34.4898 54.2202 34.9596 53.7504C35.096 53.614 35.1869 53.4473 35.2475 53.2655L42.7941 30.3984C43.0062 29.7619 42.6577 29.08 42.0212 28.8679C41.7939 28.7921 41.5212 28.7921 41.2787 28.8679ZM33.5806 50.6439L29.8679 46.9312C29.3981 46.4614 28.6253 46.4614 28.1555 46.9312L23.3063 51.735L19.927 48.3557L24.7308 43.5064C25.2005 43.0367 25.2005 42.2638 24.7308 41.7941L21.0181 38.0814L39.733 31.9138L33.5806 50.6439Z" fill="black"/>
<path d="M45.3552 27.5345C45.6735 27.5345 45.9917 27.4133 46.219 27.186L48.9618 24.4431C49.4316 23.9734 49.4316 23.2005 48.9618 22.7307C48.4921 22.261 47.7192 22.261 47.2495 22.7307L44.5066 25.4584C44.0369 25.9282 44.0369 26.701 44.5066 27.1708C44.7339 27.3981 45.037 27.5345 45.3552 27.5345Z" fill="black"/>
<path d="M46.219 37.6726C45.7492 37.2029 44.9764 37.2029 44.5066 37.6726C44.0369 38.1424 44.0369 38.9152 44.5066 39.385L47.2495 42.1279C47.7192 42.5976 48.4921 42.5976 48.9618 42.1279C49.4316 41.6581 49.4316 40.8852 48.9618 40.4155L46.219 37.6726Z" fill="black"/>
<path d="M32.2924 27.1708C32.7622 27.6406 33.535 27.6406 34.0048 27.1557C34.4746 26.6859 34.4746 25.9282 34.0048 25.4584L31.262 22.7156C30.7922 22.2458 30.0194 22.2458 29.5496 22.7156C29.0798 23.1854 29.0798 23.9582 29.5496 24.428L32.2924 27.1708Z" fill="black"/>
<path d="M39.2484 25.0037C39.9152 25.0037 40.4607 24.4582 40.4607 23.7914V19.8969C40.4607 19.2301 39.9152 18.6846 39.2484 18.6846C38.5817 18.6846 38.0361 19.2301 38.0361 19.8969V23.7914C38.0361 24.4582 38.5817 25.0037 39.2484 25.0037Z" fill="black"/>
<path d="M51.7807 31.2168H47.8861C47.2194 31.2168 46.6738 31.7623 46.6738 32.4291C46.6738 33.0959 47.2194 33.6414 47.8861 33.6414H51.7807C52.4474 33.6414 52.993 33.0959 52.993 32.4291C52.993 31.7623 52.4474 31.2168 51.7807 31.2168Z" fill="black"/>
</svg>
