<svg width="60" height="80" viewBox="0 0 60 80" fill="none" xmlns="http://www.w3.org/2000/svg">
<path d="M0.0109417 50.8062C0.0109417 51.2425 0.253338 51.6626 0.625012 51.8889L9.10888 57.0277V67.3538C9.10888 67.8224 9.36744 68.2425 9.75527 68.4688L29.2924 79.7968C29.6964 80.023 30.1812 80.023 30.5852 79.7968L50.1708 68.4688C50.5586 68.2425 50.801 67.8062 50.7849 67.3538V56.9792L59.2364 51.8889C59.6243 51.6626 59.8505 51.2586 59.8667 50.8062C59.8828 50.3699 59.6566 49.9497 59.3011 49.7073L51.8837 44.7786L59.3011 39.8499C59.899 39.462 60.0606 38.654 59.6566 38.0561C59.5596 37.8945 59.4142 37.7652 59.2526 37.6683L43.3676 28.0209C43.4645 27.3745 43.513 26.712 43.513 26.0656C43.513 22.2842 41.9293 18.6806 39.166 16.1112C36.1926 13.3479 32.2173 11.9258 28.1612 12.1682C24.5414 12.3783 21.1317 13.9296 18.5947 16.5152C16.0414 19.1169 14.6355 22.4943 14.6194 26.0171C14.6194 27.0029 14.7163 27.9886 14.9426 28.9582L0.625012 37.6683C0.0109416 38.04 -0.182975 38.8318 0.188699 39.4459C0.285657 39.6075 0.414935 39.7529 0.576533 39.8499L8.0585 44.7786L0.592693 49.7073C0.221018 49.9497 -0.00521809 50.3699 0.0109417 50.8062ZM11.6944 58.5952L18.3684 62.6513C18.7563 62.8937 19.241 62.9098 19.645 62.6997L28.6622 57.9649V76.4355L11.6944 66.6104V58.5952ZM24.9454 41.4335H33.1869V45.1179C33.2031 45.829 32.6536 46.4269 31.9264 46.443C31.9103 46.443 31.8941 46.443 31.878 46.443H26.3029C25.5595 46.4592 24.9454 45.8613 24.9293 45.1179V41.4335H24.9454ZM26.319 49.0286H31.8941C34.0434 49.0286 35.7725 47.2995 35.7886 45.1503C35.7886 45.1341 35.7886 45.1179 35.7886 45.1018V38.4601L46.9227 44.7624L29.955 54.329L13.0195 44.7786L22.3599 39.462V45.1179C22.376 47.2833 24.1374 49.0448 26.319 49.0286ZM31.2477 76.4355V57.9649L40.2649 62.6997C40.4426 62.7967 40.6527 62.8452 40.8628 62.8452C41.089 62.8452 41.3153 62.7805 41.5092 62.6513L48.2155 58.5467V66.5942L31.2477 76.4355ZM49.0235 55.0562L40.8143 60.0657L32.6536 55.7834L49.4921 46.2976L56.1822 50.7415L49.0235 55.0562ZM56.1984 38.8156L49.5083 43.2596L38.2126 36.8603C40.2649 35.2443 41.8324 33.0951 42.7212 30.655L56.1984 38.8156ZM20.4692 18.3251C22.5538 16.192 25.3656 14.9154 28.339 14.7538C28.5814 14.7376 28.8238 14.7376 29.0662 14.7376C32.1527 14.7214 35.1422 15.9011 37.4046 18.0019C39.6508 20.0865 40.9436 23.0114 40.9436 26.0817C40.9436 30.4934 38.1964 34.5495 33.9626 36.4078C33.4939 36.6179 33.1707 37.0704 33.1707 37.5875V38.8641H24.9293V37.539C24.9293 37.0219 24.6222 36.5533 24.1536 36.3432C19.9198 34.5333 17.2049 30.4934 17.2211 26.0333C17.2534 23.173 18.4007 20.442 20.4692 18.3251ZM15.799 31.4791C16.8656 33.8869 18.5785 35.9392 20.7601 37.4097L10.4825 43.2596L3.72768 38.8156L15.799 31.4791ZM10.4663 46.2976L27.2563 55.7834L19.0956 60.0657L10.8865 55.0562L3.72768 50.7415L10.4663 46.2976Z" fill="black"/>
<path d="M29.1473 9.04946C29.8583 9.04946 30.4401 8.46771 30.4401 7.75668V1.29278C30.4401 0.581751 29.8583 0 29.1473 0C28.4362 0 27.8545 0.581751 27.8545 1.29278V7.75668C27.8545 8.46771 28.4362 9.04946 29.1473 9.04946Z" fill="black"/>
<path d="M3.98614 26.7281H10.7086C11.4196 26.7281 12.0014 26.1464 12.0014 25.4354C12.0014 24.7243 11.4196 24.1426 10.7086 24.1426H3.98614C3.27511 24.1426 2.69336 24.7243 2.69336 25.4354C2.69336 26.1464 3.27511 26.7281 3.98614 26.7281Z" fill="black"/>
<path d="M46.1953 25.4354C46.1953 26.1464 46.7771 26.7281 47.4881 26.7281H54.2106C54.9216 26.7281 55.5033 26.1464 55.5033 25.4354C55.5033 24.7243 54.9216 24.1426 54.2106 24.1426H47.4881C46.7771 24.1426 46.1953 24.7243 46.1953 25.4354Z" fill="black"/>
<path d="M15.25 13.8488C15.7671 14.3336 16.5913 14.3175 17.0761 13.8004C17.5609 13.2832 17.5447 12.4591 17.0276 11.9743L12.2443 7.43341C11.7272 6.94862 10.9031 6.96478 10.4183 7.48189C9.93348 7.999 9.94964 8.82315 10.4668 9.30794L15.25 13.8488Z" fill="black"/>
<path d="M42.0587 14.2043C42.398 14.2043 42.7051 14.0751 42.9475 13.8488L47.7307 9.30794C48.2478 8.82315 48.264 7.999 47.7792 7.48189C47.2944 6.96478 46.4703 6.94862 45.9532 7.43341L41.1699 11.9743C40.6528 12.4591 40.6366 13.2832 41.1214 13.8004C41.3638 14.0589 41.7032 14.2043 42.0587 14.2043Z" fill="black"/>
</svg>
