<svg width="62" height="74" viewBox="0 0 62 74" fill="none" xmlns="http://www.w3.org/2000/svg">
<mask id="path-1-inside-1_8_2194" fill="white">
<path d="M59.907 53.1789C59.907 51.9327 59.5175 50.8422 58.8944 49.9076C60.2964 48.895 61.2311 47.1814 61.2311 45.3121C61.2311 43.4427 60.2964 41.8071 58.8944 40.7166C59.5175 39.7819 59.907 38.6915 59.907 37.4453C59.907 34.3297 57.3366 31.7593 54.2211 31.7593H39.5778C40.1231 29.9679 40.8241 27.3975 41.1356 24.7493C41.3693 22.9578 41.2135 20.9327 40.902 18.8297C40.3567 15.7141 37.9422 13.2995 34.8266 12.7543C32.3341 12.3648 29.9974 13.9226 29.4522 16.4151L28.206 22.101C27.5829 25.0608 26.0251 27.787 23.8442 29.89L17.1457 36.2769C16.5226 36.9 15.6658 37.2116 14.7311 37.2116H8.8115C7.79894 37.2116 7.02005 37.9905 7.02005 39.003C7.02005 40.0156 7.79894 40.7945 8.8115 40.7945H14.809C16.6005 40.7945 18.3919 40.0935 19.716 38.8473L26.4145 32.4603C29.1407 29.89 31.01 26.5407 31.7889 22.8799L33.0351 17.194C33.1909 16.5709 33.7361 16.1814 34.3592 16.2593C35.917 16.493 37.2412 17.8171 37.4748 19.3749C37.7864 21.1664 37.8643 22.8799 37.7085 24.3598C37.2412 28.6437 35.5276 32.8498 35.5276 32.8498C35.2939 33.395 35.3718 34.0181 35.6834 34.5633C35.9949 35.0307 36.5402 35.3422 37.1633 35.3422H40.7462L40.5904 36.0432C37.9422 46.6362 29.4522 45.8573 29.0628 45.7794C28.0502 45.6237 27.1934 46.4025 27.1155 47.3372C26.9597 48.3498 27.6608 49.2066 28.6733 49.2845C28.6733 49.2845 28.9849 49.2845 29.5301 49.2845C31.3216 49.2845 35.5276 48.895 39.0326 45.7015C39.1884 47.4151 40.0452 48.8171 41.2914 49.8297C40.6683 50.7644 40.2789 51.8548 40.2789 53.101C40.2789 54.8925 41.1356 56.5282 42.5376 57.6186C41.8366 58.5533 41.4472 59.7216 41.4472 60.9679C41.4472 61.8247 41.6809 62.6814 41.9924 63.3825C36.8517 64.2392 31.6331 64.395 27.8165 64.395C26.3366 64.395 24.8567 64.0056 23.5326 63.3046L26.8819 60.2669C27.7386 59.488 28.0502 58.3196 27.6608 57.1513C27.2713 56.0608 26.3366 55.2819 25.1683 55.1262L19.0929 54.4252L16.6004 48.895C16.1331 47.8046 15.1206 47.1814 13.9522 47.1814C12.7839 47.1814 11.7713 47.8046 11.304 48.895L8.73361 54.5031L2.65824 55.2041C1.48989 55.3598 0.555221 56.1387 0.165773 57.2292C-0.223674 58.3196 0.087884 59.488 0.944668 60.3448L5.46226 64.4729L4.29392 70.4704C4.06025 71.6387 4.52758 72.7292 5.46226 73.4302C6.00748 73.8196 6.55271 73.9754 7.17583 73.9754C7.64316 73.9754 8.18839 73.8196 8.65573 73.586L14.0301 70.5483L19.4045 73.586C20.417 74.1312 21.6633 74.1312 22.5979 73.4302C23.5326 72.7292 23.9999 71.6387 23.7663 70.4704L23.0653 66.9654C24.6231 67.5885 26.2587 67.9779 27.9723 67.9779C28.3618 67.9779 28.7512 67.9779 29.0628 67.9779C33.6582 67.9779 39.8115 67.6664 45.4196 66.4201C45.9648 66.5759 46.5879 66.7317 47.1331 66.7317H53.2085C56.3241 66.7317 58.8944 64.1614 58.8944 61.0458C58.8944 59.7995 58.505 58.6312 57.804 57.6965C59.0502 56.6061 59.907 54.9704 59.907 53.1789ZM15.1206 67.1211C14.4195 66.7317 13.5628 66.7317 12.8618 67.1211L8.03261 69.7694L9.12306 64.395C9.27884 63.6161 9.04517 62.7593 8.42206 62.2141L4.3718 58.5533L9.82407 57.9302C10.603 57.8523 11.304 57.3071 11.6934 56.6061L13.9522 51.6211L16.211 56.6061C16.5226 57.3071 17.2236 57.8523 18.0804 57.9302L23.5326 58.5533L19.4824 62.2141C18.8592 62.7593 18.6256 63.6161 18.7814 64.395L19.8718 69.7694L15.1206 67.1211ZM45.9648 35.4201H54.299C55.4673 35.4201 56.402 36.3548 56.402 37.5231C56.402 38.6915 55.4673 39.6262 54.299 39.6262H45.9648C44.7964 39.6262 43.8618 38.6915 43.8618 37.5231C43.8618 36.3548 44.7964 35.4201 45.9648 35.4201ZM53.1306 63.1488H47.0552C45.8869 63.1488 44.9522 62.2141 44.9522 61.0458C44.9522 59.8774 45.8869 58.9427 47.0552 58.9427H53.1306C54.299 58.9427 55.2336 59.8774 55.2336 61.0458C55.2336 62.1362 54.299 63.1488 53.1306 63.1488ZM54.2211 55.2819H45.9648C44.7964 55.2819 43.8618 54.3473 43.8618 53.1789C43.8618 52.0106 44.7964 51.0759 45.9648 51.0759H54.299C55.4673 51.0759 56.402 52.0106 56.402 53.1789C56.402 54.3473 55.3894 55.2819 54.2211 55.2819ZM55.5452 47.493H44.6407C43.4723 47.493 42.5376 46.5583 42.5376 45.39C42.5376 44.2216 43.4723 43.287 44.6407 43.287H55.5452C56.7135 43.287 57.6482 44.2216 57.6482 45.39C57.6482 46.5583 56.7135 47.493 55.5452 47.493Z"/>
</mask>
<path d="M59.907 53.1789C59.907 51.9327 59.5175 50.8422 58.8944 49.9076C60.2964 48.895 61.2311 47.1814 61.2311 45.3121C61.2311 43.4427 60.2964 41.8071 58.8944 40.7166C59.5175 39.7819 59.907 38.6915 59.907 37.4453C59.907 34.3297 57.3366 31.7593 54.2211 31.7593H39.5778C40.1231 29.9679 40.8241 27.3975 41.1356 24.7493C41.3693 22.9578 41.2135 20.9327 40.902 18.8297C40.3567 15.7141 37.9422 13.2995 34.8266 12.7543C32.3341 12.3648 29.9974 13.9226 29.4522 16.4151L28.206 22.101C27.5829 25.0608 26.0251 27.787 23.8442 29.89L17.1457 36.2769C16.5226 36.9 15.6658 37.2116 14.7311 37.2116H8.8115C7.79894 37.2116 7.02005 37.9905 7.02005 39.003C7.02005 40.0156 7.79894 40.7945 8.8115 40.7945H14.809C16.6005 40.7945 18.3919 40.0935 19.716 38.8473L26.4145 32.4603C29.1407 29.89 31.01 26.5407 31.7889 22.8799L33.0351 17.194C33.1909 16.5709 33.7361 16.1814 34.3592 16.2593C35.917 16.493 37.2412 17.8171 37.4748 19.3749C37.7864 21.1664 37.8643 22.8799 37.7085 24.3598C37.2412 28.6437 35.5276 32.8498 35.5276 32.8498C35.2939 33.395 35.3718 34.0181 35.6834 34.5633C35.9949 35.0307 36.5402 35.3422 37.1633 35.3422H40.7462L40.5904 36.0432C37.9422 46.6362 29.4522 45.8573 29.0628 45.7794C28.0502 45.6237 27.1934 46.4025 27.1155 47.3372C26.9597 48.3498 27.6608 49.2066 28.6733 49.2845C28.6733 49.2845 28.9849 49.2845 29.5301 49.2845C31.3216 49.2845 35.5276 48.895 39.0326 45.7015C39.1884 47.4151 40.0452 48.8171 41.2914 49.8297C40.6683 50.7644 40.2789 51.8548 40.2789 53.101C40.2789 54.8925 41.1356 56.5282 42.5376 57.6186C41.8366 58.5533 41.4472 59.7216 41.4472 60.9679C41.4472 61.8247 41.6809 62.6814 41.9924 63.3825C36.8517 64.2392 31.6331 64.395 27.8165 64.395C26.3366 64.395 24.8567 64.0056 23.5326 63.3046L26.8819 60.2669C27.7386 59.488 28.0502 58.3196 27.6608 57.1513C27.2713 56.0608 26.3366 55.2819 25.1683 55.1262L19.0929 54.4252L16.6004 48.895C16.1331 47.8046 15.1206 47.1814 13.9522 47.1814C12.7839 47.1814 11.7713 47.8046 11.304 48.895L8.73361 54.5031L2.65824 55.2041C1.48989 55.3598 0.555221 56.1387 0.165773 57.2292C-0.223674 58.3196 0.087884 59.488 0.944668 60.3448L5.46226 64.4729L4.29392 70.4704C4.06025 71.6387 4.52758 72.7292 5.46226 73.4302C6.00748 73.8196 6.55271 73.9754 7.17583 73.9754C7.64316 73.9754 8.18839 73.8196 8.65573 73.586L14.0301 70.5483L19.4045 73.586C20.417 74.1312 21.6633 74.1312 22.5979 73.4302C23.5326 72.7292 23.9999 71.6387 23.7663 70.4704L23.0653 66.9654C24.6231 67.5885 26.2587 67.9779 27.9723 67.9779C28.3618 67.9779 28.7512 67.9779 29.0628 67.9779C33.6582 67.9779 39.8115 67.6664 45.4196 66.4201C45.9648 66.5759 46.5879 66.7317 47.1331 66.7317H53.2085C56.3241 66.7317 58.8944 64.1614 58.8944 61.0458C58.8944 59.7995 58.505 58.6312 57.804 57.6965C59.0502 56.6061 59.907 54.9704 59.907 53.1789ZM15.1206 67.1211C14.4195 66.7317 13.5628 66.7317 12.8618 67.1211L8.03261 69.7694L9.12306 64.395C9.27884 63.6161 9.04517 62.7593 8.42206 62.2141L4.3718 58.5533L9.82407 57.9302C10.603 57.8523 11.304 57.3071 11.6934 56.6061L13.9522 51.6211L16.211 56.6061C16.5226 57.3071 17.2236 57.8523 18.0804 57.9302L23.5326 58.5533L19.4824 62.2141C18.8592 62.7593 18.6256 63.6161 18.7814 64.395L19.8718 69.7694L15.1206 67.1211ZM45.9648 35.4201H54.299C55.4673 35.4201 56.402 36.3548 56.402 37.5231C56.402 38.6915 55.4673 39.6262 54.299 39.6262H45.9648C44.7964 39.6262 43.8618 38.6915 43.8618 37.5231C43.8618 36.3548 44.7964 35.4201 45.9648 35.4201ZM53.1306 63.1488H47.0552C45.8869 63.1488 44.9522 62.2141 44.9522 61.0458C44.9522 59.8774 45.8869 58.9427 47.0552 58.9427H53.1306C54.299 58.9427 55.2336 59.8774 55.2336 61.0458C55.2336 62.1362 54.299 63.1488 53.1306 63.1488ZM54.2211 55.2819H45.9648C44.7964 55.2819 43.8618 54.3473 43.8618 53.1789C43.8618 52.0106 44.7964 51.0759 45.9648 51.0759H54.299C55.4673 51.0759 56.402 52.0106 56.402 53.1789C56.402 54.3473 55.3894 55.2819 54.2211 55.2819ZM55.5452 47.493H44.6407C43.4723 47.493 42.5376 46.5583 42.5376 45.39C42.5376 44.2216 43.4723 43.287 44.6407 43.287H55.5452C56.7135 43.287 57.6482 44.2216 57.6482 45.39C57.6482 46.5583 56.7135 47.493 55.5452 47.493Z" fill="black" stroke="#F2F0F0" mask="url(#path-1-inside-1_8_2194)"/>
<path d="M48.7848 6.05591V5.45235L48.358 5.87913L44.4635 9.7736C43.8601 10.377 42.928 10.377 42.3246 9.7736C41.7212 9.17023 41.7212 8.23807 42.3246 7.63469L49.2568 0.702531L49.262 0.697336L49.2668 0.691845C49.785 0.108869 50.7861 0.0930061 51.3957 0.702531L58.3278 7.63469C58.9312 8.23807 58.9312 9.17023 58.3278 9.7736L58.318 9.78339L58.3094 9.79421C58.0582 10.1082 57.6732 10.2456 57.2584 10.2456C56.8691 10.2456 56.4626 10.0473 56.1889 9.7736L52.2945 5.87913L51.8677 5.45235V6.05591V25.6062C51.8677 26.4807 51.2007 27.1476 50.3262 27.1476C49.4517 27.1476 48.7848 26.4807 48.7848 25.6062V6.05591Z" fill="black" stroke="#F2F0F0" stroke-width="0.5"/>
</svg>
