<svg width="80" height="81" viewBox="0 0 80 81" fill="none" xmlns="http://www.w3.org/2000/svg">
<path d="M75.8249 26.7532C75.7129 26.0806 75.105 25.6162 74.4332 25.6802C71.5858 25.9525 69.4422 28.4348 69.5862 31.3015L69.7942 39.8055C69.2823 39.8695 68.7864 39.9816 68.3225 40.1418C66.6428 40.7343 65.2671 41.9675 64.4993 43.585L61.348 50.1992C60.8681 51.2081 60.1642 52.105 59.2844 52.7936L58.6286 53.3221C55.3333 55.9646 53.4617 60.0004 53.5897 64.2283L52.4699 63.6999C51.83 63.3956 51.0622 63.6678 50.7583 64.3084L47.351 71.5472C47.0471 72.1878 47.319 72.9565 47.9589 73.2608L63.8434 80.8359C64.4833 81.1402 65.2511 80.8679 65.5551 80.2273L69.0103 72.9725C69.3143 72.3319 69.0423 71.5632 68.4025 71.2589L67.7786 70.9707L67.6186 68.7606C67.5546 67.8958 67.8266 67.047 68.3705 66.3904L76.5927 56.429C76.6087 56.413 76.6247 56.381 76.6407 56.365C78.3523 53.9787 79.2481 51.096 79.2161 48.1653C79.2161 48.1012 79.2161 48.0372 79.2001 47.9891L75.8249 26.7532ZM63.7795 77.9692L50.1984 71.4992L52.5499 66.5665L66.1309 73.0366L63.7795 77.9692ZM74.5771 54.8435L66.3709 64.7729C65.3951 65.9419 64.9312 67.4474 65.0432 68.9688L65.0912 69.7055L56.3091 65.5095C55.7012 61.6499 57.2049 57.7583 60.2602 55.324L60.9161 54.7955C62.0838 53.8506 63.0276 52.6495 63.6835 51.3042L66.8348 44.69C67.6186 43.0565 69.3463 42.1116 71.1379 42.3518L66.6108 51.8808C66.3069 52.5214 66.5629 53.2901 67.2027 53.5944C67.8426 53.8987 68.6104 53.6424 68.9143 53.0018V52.9858L74.0652 42.1276C74.3692 41.487 74.0972 40.7183 73.4574 40.414C73.1054 40.2539 72.7375 40.1097 72.3696 40.0136L72.1617 31.2214C72.1617 31.2054 72.1617 31.2054 72.1617 31.1894C72.1137 30.1324 72.6415 29.1395 73.5533 28.611L76.6727 48.2934C76.6567 50.6476 75.9368 52.9378 74.5771 54.8435Z" fill="black"/>
<path d="M2.62426 56.4451L10.8465 66.4064C11.3904 67.063 11.6623 67.9118 11.5983 68.7766L11.4384 70.9867L10.8145 71.275C10.1746 71.5792 9.90269 72.348 10.2066 72.9886L13.6619 80.2434C13.9658 80.884 14.7336 81.1562 15.3735 80.8519L31.2581 73.2768C31.8979 72.9725 32.1699 72.2038 31.8659 71.5632L28.4107 64.3084C28.1068 63.6678 27.3389 63.3956 26.6991 63.6999L25.5793 64.2284C25.7073 60.0004 23.8517 55.9646 20.5404 53.3221L19.8845 52.7936C19.0207 52.089 18.3169 51.2081 17.837 50.1992L14.6857 43.585C13.9178 41.9675 12.5421 40.7343 10.8625 40.1418C10.3826 39.9656 9.88669 39.8535 9.3908 39.8055L9.59876 31.3015C9.74272 28.4348 7.59919 25.9685 4.7518 25.6802C4.07995 25.6162 3.47208 26.0806 3.3601 26.7532L0.000827982 47.9891C0.000827982 48.0532 0.000827982 48.1012 0.000827982 48.1653C-0.0311651 51.1121 0.864642 53.9787 2.57627 56.365C2.59227 56.397 2.60826 56.413 2.62426 56.4451ZM29.0026 71.4992L15.4215 77.9692L13.086 73.0366L26.6671 66.5665L29.0026 71.4992ZM5.6796 28.611C6.5914 29.1395 7.11929 30.1324 7.0713 31.1894C7.0713 31.2054 7.0713 31.2054 7.0713 31.2214L6.86335 40.0137C6.49543 40.1258 6.1275 40.2539 5.77558 40.414C5.13572 40.7183 4.86378 41.487 5.16771 42.1276L10.3346 52.9858C10.6385 53.6264 11.3904 53.8987 12.0302 53.5944C12.6701 53.2901 12.942 52.5374 12.6381 51.8968V51.8808L8.11108 42.3518C9.90269 42.1116 11.6303 43.0565 12.4141 44.69L15.5655 51.3042C16.2213 52.6655 17.1651 53.8506 18.3329 54.7955L18.9887 55.324C22.0441 57.7583 23.5477 61.6499 22.9399 65.5096L14.1418 69.7055L14.1898 68.9688C14.3017 67.4474 13.8218 65.942 12.8621 64.7729L4.65582 54.8436C3.29612 52.9378 2.57627 50.6476 2.59227 48.2934L5.6796 28.611Z" fill="black"/>
<path d="M23.8039 47.0441H31.3383L31.9461 49.8307C32.3141 51.4963 33.7857 52.6654 35.4974 52.6494H43.8636C45.5592 52.6654 47.0469 51.4803 47.4148 49.8307L48.0227 47.0441H55.4291C56.1489 47.0281 56.7248 46.4515 56.7408 45.7309V41.8873C56.7408 41.4869 56.5488 41.1025 56.2129 40.8623L49.5424 35.8336V16.6636C49.5424 12.4677 47.5908 4.28402 40.3283 0.168158C39.9284 -0.0560525 39.4645 -0.0560525 39.0646 0.168158C31.7862 4.28402 29.8506 12.4677 29.8506 16.6636C29.8506 16.6957 29.8506 16.7117 29.8506 16.7437C29.8666 17.08 29.8826 20.6994 29.8826 35.8656L23.0361 40.8623C22.7001 41.1025 22.4922 41.4869 22.4922 41.9033V45.7469C22.5082 46.4676 23.0841 47.0441 23.8039 47.0441ZM44.8874 49.3022C44.7754 49.7827 44.3435 50.119 43.8476 50.103H35.4814C34.9855 50.119 34.5536 49.7827 34.4416 49.3022L33.9457 47.0601H45.3673L44.8874 49.3022ZM46.9669 35.3531H32.426C32.426 30.5486 32.426 27.0253 32.426 24.4629H46.9669V35.3531ZM39.6725 2.7786C45.3992 6.41401 46.9669 13.1563 46.9669 16.6636V21.9005H32.41C32.41 18.0569 32.3941 16.9359 32.3781 16.6476C32.3941 13.1403 33.9617 6.41401 39.6725 2.7786ZM25.0516 42.5439L31.4822 37.9155H47.9427L54.1654 42.5279V44.4817H25.0516V42.5439V42.5439Z" fill="black"/>
<path d="M40.8876 63.3954V55.1958C40.8876 54.4911 40.3117 53.9146 39.6079 53.9146C38.904 53.9146 38.3281 54.4911 38.3281 55.1958V63.3954C38.3281 64.1001 38.904 64.6766 39.6079 64.6766C40.3117 64.6766 40.8876 64.1001 40.8876 63.3954Z" fill="black"/>
<path d="M49.2059 58.8312V55.1958C49.2059 54.4911 48.6301 53.9146 47.9262 53.9146C47.2224 53.9146 46.6465 54.4911 46.6465 55.1958V58.8312C46.6465 59.5358 47.2224 60.1124 47.9262 60.1124C48.6301 60.1124 49.2059 59.5358 49.2059 58.8312Z" fill="black"/>
<path d="M31.4496 53.9146C30.7458 53.9146 30.1699 54.4911 30.1699 55.1958V58.8312C30.1699 59.5358 30.7458 60.1124 31.4496 60.1124C32.1535 60.1124 32.7294 59.5358 32.7294 58.8312V55.1958C32.7294 54.4911 32.1535 53.9146 31.4496 53.9146Z" fill="black"/>
<path d="M36.4248 18.5374C38.2164 20.3311 41.1118 20.3311 42.9034 18.5374C44.695 16.7437 44.695 13.845 42.9034 12.0513C41.1118 10.2576 38.2164 10.2576 36.4248 12.0513C35.561 12.9161 35.0811 14.0692 35.0811 15.2863C35.0811 16.5035 35.561 17.6726 36.4248 18.5374ZM38.2324 13.861C39.0162 13.0763 40.2959 13.0763 41.0958 13.861C41.8796 14.6457 41.8796 15.9269 41.0958 16.7277C40.3119 17.5124 39.0322 17.5124 38.2324 16.7277C37.8485 16.3433 37.6405 15.8309 37.6405 15.3024C37.6405 14.7579 37.8645 14.2454 38.2324 13.861Z" fill="black"/>
</svg>
