<svg width="174" height="51" viewBox="0 0 174 51" fill="none" xmlns="http://www.w3.org/2000/svg">
<path d="M167.45 50.0821H6.38433C3.10218 50.0821 0.460449 47.4341 0.460449 44.1443V5.94955C0.460449 2.65967 3.10218 0.0117188 6.38433 0.0117188H167.45C170.732 0.0117188 173.374 2.65967 173.374 5.94955V44.2245C173.374 47.4341 170.732 50.0821 167.45 50.0821Z" fill="black"/>
<path d="M87.717 27.4535C84.675 27.4535 82.1933 29.7804 82.1933 32.9098C82.1933 36.0392 84.675 38.3662 87.717 38.3662C90.759 38.3662 93.2406 36.0392 93.2406 32.9098C93.1605 29.7804 90.759 27.4535 87.717 27.4535ZM87.717 36.28C86.0359 36.28 84.5949 34.9159 84.5949 32.9901C84.5949 30.9841 86.0359 29.7002 87.717 29.7002C89.3981 29.7002 90.839 31.0643 90.839 32.9901C90.759 34.9159 89.318 36.28 87.717 36.28ZM75.7091 27.4535C72.6671 27.4535 70.1855 29.7804 70.1855 32.9098C70.1855 36.0392 72.6671 38.3662 75.7091 38.3662C78.7511 38.3662 81.2327 36.0392 81.2327 32.9098C81.2327 29.7804 78.7511 27.4535 75.7091 27.4535ZM75.7091 36.28C74.028 36.28 72.5871 34.9159 72.5871 32.9901C72.5871 30.9841 74.028 29.7002 75.7091 29.7002C77.3902 29.7002 78.8311 31.0643 78.8311 32.9901C78.7511 34.9159 77.3902 36.28 75.7091 36.28ZM61.4598 29.1385V31.4655H66.9834C66.8233 32.7494 66.343 33.7123 65.7026 34.4344C64.902 35.2368 63.6212 36.1195 61.3797 36.1195C57.9375 36.1195 55.2957 33.3913 55.2957 29.9409C55.2957 26.4906 57.9375 23.7624 61.3797 23.7624C63.2209 23.7624 64.5818 24.4845 65.5425 25.4474L67.1435 23.8426C65.7826 22.4785 63.9414 21.5156 61.2997 21.5156C56.5766 21.5156 52.654 25.3672 52.654 30.0212C52.654 34.7554 56.5766 38.5267 61.2997 38.5267C63.8613 38.5267 65.7026 37.7243 67.2235 36.1195C68.7445 34.5949 69.2249 32.4284 69.2249 30.6631C69.2249 30.1014 69.1448 29.62 69.0648 29.2188H61.4598V29.1385ZM119.738 30.9841C119.258 29.7804 117.897 27.4535 115.015 27.4535C112.213 27.4535 109.811 29.7002 109.811 32.9098C109.811 35.959 112.133 38.3662 115.255 38.3662C117.737 38.3662 119.178 36.8417 119.818 35.959L117.977 34.6751C117.336 35.5578 116.536 36.1997 115.255 36.1997C114.054 36.1997 113.174 35.638 112.613 34.5147L119.898 31.4655L119.738 30.9841ZM112.293 32.7494C112.213 30.6631 113.894 29.5397 115.175 29.5397C116.136 29.5397 116.936 30.0212 117.176 30.7433L112.293 32.7494ZM106.369 38.1255H108.771V21.9971H106.369V38.1255ZM102.447 28.6571H102.367C101.806 28.0151 100.765 27.4535 99.4847 27.4535C96.7629 27.4535 94.2012 29.8607 94.2012 32.9901C94.2012 36.0392 96.6828 38.4465 99.4847 38.4465C100.765 38.4465 101.806 37.8848 102.367 37.1626H102.447V37.965C102.447 40.0513 101.326 41.1747 99.4847 41.1747C98.0437 41.1747 97.0831 40.1315 96.7629 39.2489L94.6815 40.1315C95.3219 41.5759 96.8429 43.3412 99.5647 43.3412C102.367 43.3412 104.768 41.6561 104.768 37.6441V27.7744H102.447V28.6571ZM99.6448 36.28C97.9637 36.28 96.6028 34.9159 96.6028 32.9901C96.6028 31.0643 97.9637 29.62 99.6448 29.62C101.246 29.62 102.607 31.0643 102.607 32.9901C102.607 34.9159 101.326 36.28 99.6448 36.28ZM131.025 21.9971H125.262V38.1255H127.663V32.0272H131.025C133.667 32.0272 136.309 30.1014 136.309 27.0523C136.309 23.9229 133.667 21.9971 131.025 21.9971ZM131.105 29.7804H127.663V24.2438H131.105C132.867 24.2438 133.907 25.7684 133.907 26.972C133.907 28.2559 132.867 29.7804 131.105 29.7804ZM145.915 27.4535C144.154 27.4535 142.393 28.2559 141.592 29.9409L143.754 30.8236C144.234 29.9409 145.034 29.62 145.915 29.62C147.196 29.62 148.397 30.3421 148.477 31.7062V31.8667C148.076 31.626 147.116 31.2248 145.995 31.2248C143.674 31.2248 141.352 32.5086 141.352 34.8356C141.352 37.0021 143.273 38.3662 145.355 38.3662C146.956 38.3662 147.836 37.6441 148.397 36.7614H148.477V38.0453H150.798V31.8667C150.878 29.0583 148.717 27.4535 145.915 27.4535ZM145.675 36.28C144.874 36.28 143.754 35.8788 143.754 34.9159C143.754 33.632 145.115 33.2308 146.315 33.2308C147.356 33.2308 147.836 33.4715 148.477 33.7925C148.317 35.2368 147.036 36.28 145.675 36.28ZM159.284 27.7744L156.562 34.7554H156.482L153.6 27.7744H151.038L155.361 37.5638L152.88 43.0202H155.361L162.006 27.7744H159.284ZM137.67 38.1255H140.071V21.9971H137.67V38.1255Z" fill="white"/>
<path d="M13.4287 9.1595C13.0285 9.56071 12.8684 10.2026 12.8684 11.005V39.4906C12.8684 40.293 13.1085 40.9349 13.4287 41.3362L13.5088 41.4164L29.4392 25.4484V25.288V25.0472L13.5088 8.99902L13.4287 9.1595Z" fill="#85C8F2"/>
<path d="M34.7228 30.744L29.4394 25.4481V25.2876V25.0469L34.7228 19.751L34.8029 19.8312L41.127 23.4421C42.8882 24.4852 42.8882 26.1703 41.127 27.1331L34.8829 30.6637L34.7228 30.744Z" fill="url(#paint0_linear)"/>
<path d="M34.8825 30.6629L29.439 25.2065L13.4285 41.2547C13.9889 41.8967 15.0295 41.9769 16.0702 41.335L34.8825 30.6629Z" fill="url(#paint1_linear)"/>
<path d="M34.8832 19.751L16.0709 9.07894C14.9501 8.43702 13.9895 8.51726 13.4292 9.15918L29.4396 25.2074L34.8832 19.751Z" fill="url(#paint2_linear)"/>
<path d="M58.979 10.043C58.4987 9.64177 57.8583 9.32081 57.1378 9.32081C55.5368 9.32081 54.336 10.6047 54.336 12.2095C54.336 13.8143 55.5368 15.0982 57.1378 15.0982C58.4987 15.0982 59.4593 14.2957 59.5394 13.0119H57.378V12.2095H60.6601C60.6601 14.8574 59.2192 16.1413 57.0578 16.1413C54.8963 16.1413 53.2153 14.376 53.2153 12.2897C53.2153 10.1232 54.8963 8.35791 57.0578 8.35791C58.0184 8.35791 58.979 8.75912 59.6194 9.32081L58.979 10.043Z" fill="white"/>
<path d="M66.6644 8.4375V9.40039H63.2222V11.8076H66.2641V12.7705H63.2222V15.0975H66.8245V16.0604H62.2615V8.4375H66.6644Z" fill="white"/>
<path d="M73.2284 8.4375V9.40039H70.9068V16.0604H69.8661V9.40039H67.5446V8.4375H73.2284Z" fill="white"/>
<path d="M78.1913 8.4375V16.0604H77.1506V8.4375H78.1913Z" fill="white"/>
<path d="M85.1565 8.4375V9.40039H82.8349V16.0604H81.7943V9.40039H79.4727V8.4375H85.1565Z" fill="white"/>
<path d="M92.3613 8.35693C94.5227 8.35693 96.2038 10.1222 96.2038 12.2887C96.2038 14.4553 94.5227 16.1403 92.3613 16.1403C90.1999 16.1403 88.5188 14.375 88.5188 12.2887C88.5188 10.1222 90.1999 8.35693 92.3613 8.35693ZM92.3613 15.1774C93.9623 15.1774 95.1631 13.8936 95.1631 12.2887C95.1631 10.6839 93.9623 9.40007 92.3613 9.40007C90.7602 9.40007 89.5595 10.6839 89.5595 12.2887C89.5595 13.8936 90.7602 15.1774 92.3613 15.1774Z" fill="white"/>
<path d="M102.287 16.0604L98.8448 10.3633V16.0604H97.8041V8.4375H98.8448L102.287 14.1346V8.4375H103.328V16.0604H102.287Z" fill="white"/>
<defs>
<linearGradient id="paint0_linear" x1="39.9923" y1="25.2033" x2="8.86349" y2="25.2033" gradientUnits="userSpaceOnUse">
<stop stop-color="#F6DF33"/>
<stop offset="0.1941" stop-color="#F0CD33"/>
<stop offset="0.5469" stop-color="#E8B132"/>
<stop offset="0.8279" stop-color="#E4A030"/>
<stop offset="1" stop-color="#E29A2F"/>
</linearGradient>
<linearGradient id="paint1_linear" x1="31.9136" y1="28.1616" x2="2.5667" y2="57.4395" gradientUnits="userSpaceOnUse">
<stop stop-color="#D04749"/>
<stop offset="1" stop-color="#AA1E6A"/>
</linearGradient>
<linearGradient id="paint2_linear" x1="2.50576" y1="-7.23453" x2="26.4668" y2="16.6702" gradientUnits="userSpaceOnUse">
<stop stop-color="#5E9D71"/>
<stop offset="0.3168" stop-color="#72A970"/>
<stop offset="0.7398" stop-color="#86B96E"/>
<stop offset="1" stop-color="#8EC06E"/>
</linearGradient>
</defs>
</svg>
