<svg width="32" height="32" viewBox="0 0 32 32" fill="none" xmlns="http://www.w3.org/2000/svg">
<path d="M17.927 19.5511L17.9203 19.5463L17.9132 19.542C16.2804 18.5368 14.8223 17.1667 13.4087 15.4487C12.74 14.611 12.2874 13.8957 11.935 13.1669C12.2762 12.8609 12.5928 12.5412 12.8965 12.2344C13.001 12.1289 13.104 12.0248 13.206 11.9234L13.4436 11.6871L13.6812 11.4508C14.2432 10.8919 14.5734 10.2276 14.5734 9.54048C14.5734 8.85908 14.2744 8.19291 13.6791 7.62808L12.1763 6.13346C11.9905 5.94867 11.8389 5.79772 11.6877 5.62235L11.6815 5.61507L11.6746 5.6083L11.6727 5.60641C11.3327 5.26827 10.9885 4.92594 10.6436 4.60896C10.0751 4.0178 9.45912 3.75 8.75248 3.75C8.04428 3.75 7.43058 4.01869 6.83798 4.57998L6.83786 4.57985L6.83116 4.58669L4.95777 6.50232C4.25813 7.19866 3.83519 8.06699 3.75087 9.07322L3.75 9.08364V9.09409V9.61926C3.75 10.6833 3.9972 11.7908 4.50522 13.1207C5.38822 15.5152 6.72458 17.745 8.71927 20.1256L8.72001 20.1264C11.118 22.9618 14.024 25.2427 17.332 26.808C18.6063 27.4152 20.2776 28.1147 22.1737 28.2494L22.1826 28.25H22.1914H22.192H22.1927H22.1933H22.1939H22.1945H22.1951H22.1958H22.1964H22.197H22.1976H22.1983H22.1989H22.1995H22.2001H22.2008H22.2014H22.202H22.2027H22.2033H22.2039H22.2045H22.2052H22.2058H22.2064H22.2071H22.2077H22.2083H22.209H22.2096H22.2102H22.2109H22.2115H22.2122H22.2128H22.2134H22.2141H22.2147H22.2153H22.216H22.2166H22.2173H22.2179H22.2186H22.2192H22.2198H22.2205H22.2211H22.2218H22.2224H22.2231H22.2237H22.2244H22.225H22.2257H22.2263H22.227H22.2276H22.2283H22.2289H22.2296H22.2302H22.2309H22.2315H22.2322H22.2328H22.2335H22.2341H22.2348H22.2354H22.2361H22.2367H22.2374H22.2381H22.2387H22.2394H22.24H22.2407H22.2413H22.242H22.2427H22.2433H22.244H22.2446H22.2453H22.246H22.2466H22.2473H22.2479H22.2486H22.2493H22.2499H22.2506H22.2513H22.2519H22.2526H22.2533H22.2539H22.2546H22.2553H22.2559H22.2566H22.2573H22.2579H22.2586H22.2593H22.2599H22.2606H22.2613H22.2619H22.2626H22.2633H22.264H22.2646H22.2653H22.266H22.2667H22.2673H22.268H22.2687H22.2693H22.27H22.2707H22.2714H22.272H22.2727H22.2734H22.2741H22.2748H22.2754H22.2761H22.2768H22.2775H22.2781H22.2788H22.2795H22.2802H22.2809H22.2815H22.2822H22.2829H22.2836H22.2843H22.2849H22.2856H22.2863H22.287H22.2877H22.2883H22.289H22.2897H22.2904H22.2911H22.2918H22.2924H22.2931H22.2938H22.2945H22.2952H22.2959H22.2966H22.2972H22.2979H22.2986H22.2993H22.3H22.3007H22.3014H22.302H22.3027H22.3034H22.3041H22.3048H22.3055H22.3062H22.3069H22.3075H22.3082H22.3089H22.3096H22.3103H22.311H22.3117H22.3124H22.3131H22.3137H22.3144H22.3151H22.3158H22.3165H22.3172H22.3179H22.3186H22.3193H22.32H22.3207H22.3214H22.322H22.3227H22.3234H22.3241H22.3248H22.3255H22.3262H22.3269H22.3276H22.3283H22.329H22.3297H22.3304H22.3311H22.3317H22.3324H22.3331H22.3338H22.3345H22.3352H22.3359H22.3366H22.3373H22.338H22.3387H22.3394H22.3401H22.3408H22.3415H22.3422H22.3429H22.3436H22.3442H22.3449H22.3456H22.3463H22.347H22.3477H22.3484H22.3491H22.3498H22.3505H22.3512H22.3519H22.3526H22.3533H22.354H22.3547H22.3554H22.3561H22.3568H22.3575H22.3582H22.3589H22.3596H22.3603H22.3609H22.3616H22.3623H22.363H22.3637H22.3644H22.3651H22.3658H22.3665H22.3672H22.3679H22.3686H22.3693H22.37H22.3707H22.3714H22.3721H22.3728H22.3735H22.3742H22.3749H22.3756H22.3763H22.377H22.3777H22.3783H22.379H22.3797H22.3804H22.3811H22.3818H22.3825H22.3832H22.3839H22.3846H22.3853H22.386H22.3867H22.3874H22.3881H22.3888H22.3895H22.3902H22.3909H22.3916H22.3922H22.3929H22.3936H22.3943H22.395H22.3957H22.3964H22.3971H22.3978H22.3985H22.3992H22.3999H22.4006H22.4013H22.402H22.4026H22.4033H22.404H22.4047H22.4054H22.4061H22.4068H22.4075H22.4082H22.4089H22.4096H22.4103H22.4109H22.4116H22.4123H22.413H22.4137H22.4144H22.4151H22.4158H22.4165H22.4172H22.4178H22.4185H22.4192H22.4199H22.4206H22.4213H22.422H22.4227H22.4233H22.424H22.4247H22.4254H22.4261H22.4268H22.4275H22.4281H22.4288H22.4295H22.4302H22.4309H22.4316H22.4323H22.4329H22.4336H22.4343H22.435H22.4357H22.4364H22.437H22.4377H22.4384H22.4391H22.4398H22.4405H22.4411H22.4418H22.4425H22.4432H22.4439H22.4445H22.4452H22.4459H22.4466H22.4473H22.4479H22.4486H22.4493H22.45H22.4506H22.4513H22.452H22.4527H22.4533H22.454H22.4547H22.4554H22.456H22.4567H22.4574H22.4581H22.4587H22.4594H22.4601H22.4608H22.4614H22.4621H22.4628H22.4635H22.4641H22.4648H22.4655H22.4661H22.4668H22.4675H22.4681H22.4688H22.4695H22.4701H22.4708H22.4715H22.4721H22.4728H22.4735H22.4741H22.4748H22.4755H22.4761H22.4768H22.4775H22.4781H22.4788H22.4795H22.4801H22.4808H22.4814H22.4821H22.4828H22.4834H22.4841H22.4847H22.4854H22.486H22.4867H22.4874H22.488H22.4887H22.4893H22.49H22.4906H22.4913H22.492H22.4926H22.4933H22.4939H22.4946H22.4952H22.4959H22.4965H22.4972H22.4978H22.4985H22.4991H22.4998H22.5004H22.5011H22.5017H22.5024H22.503H22.5037H22.5043H22.5049H22.5056H22.5062H22.5069H22.5075H22.5082H22.5088H22.5094H22.5101H22.5107H22.5114H22.512H22.5126H22.5133H22.5139H22.5146H22.5152H22.5158H22.5165H22.5171H22.5177H22.5184H22.519H22.5196H22.5203H22.5209H22.5215H22.5222H22.5228H22.5234H22.524H22.5247H22.5253H22.5259H22.5266H22.5272H22.5278H22.5284H22.5291H22.5297H22.5303H22.5309H22.5316H22.5322H22.5328H22.5334H22.534H22.5347C23.8125 28.25 24.883 27.8052 25.725 26.8865L25.7472 26.8644L25.7546 26.857L25.7614 26.8491C26.0428 26.5183 26.3517 26.2108 26.7175 25.8729L26.7176 25.8731L26.7241 25.8665L27.0806 25.5121L27.437 25.1576L27.4373 25.1578L27.4461 25.1481C27.9512 24.5898 28.25 23.9549 28.25 23.2735C28.25 22.5927 27.9516 21.9277 27.3847 21.3637C27.3846 21.3636 27.3844 21.3634 27.3842 21.3632L24.3505 18.3199C23.8046 17.7493 23.1602 17.483 22.4818 17.483C21.8 17.483 21.1303 17.7782 20.5872 18.3457L18.8947 20.0289L18.712 19.9381L18.4743 19.8199L18.4626 19.8141L18.4504 19.8095C18.2452 19.733 18.0848 19.6632 17.927 19.5511ZM18.2777 21.4863L18.3405 21.5279H18.356L18.3706 21.5341L18.3715 21.5345C18.5458 21.6088 18.7256 21.6854 18.9175 21.6854C19.1465 21.6854 19.3599 21.6209 19.5158 21.5046C19.6356 21.4152 19.7248 21.3265 19.7535 21.2979L19.7538 21.2976L21.6284 19.4333C21.9146 19.1487 22.1647 19.0396 22.4377 19.059L22.4466 19.0596H22.4554C22.6056 19.0596 22.7466 19.1155 22.8986 19.191C22.9545 19.2188 23.0111 19.2587 23.0721 19.3072C23.0899 19.3214 23.1125 19.3401 23.1366 19.3601C23.1721 19.3893 23.2107 19.4213 23.2423 19.4457L26.266 22.4005C26.2662 22.4007 26.2665 22.401 26.2668 22.4013C26.5706 22.7038 26.6675 22.9837 26.6675 23.221C26.6675 23.5466 26.4808 23.8541 26.2396 24.0941L26.2343 24.0993L26.2294 24.1047C26.0248 24.3337 25.8205 24.5369 25.5902 24.7405L25.5847 24.7453L25.5795 24.7505C25.4979 24.8316 25.4135 24.914 25.3275 24.998C25.0616 25.2574 24.7797 25.5325 24.5154 25.8353C23.956 26.4139 23.3091 26.6997 22.4554 26.6997H22.455H22.4545H22.4541H22.4536H22.4531H22.4527H22.4522H22.4517H22.4512H22.4508H22.4503H22.4498H22.4494H22.4489H22.4484H22.4479H22.4475H22.447H22.4465H22.446H22.4456H22.4451H22.4446H22.4441H22.4437H22.4432H22.4427H22.4422H22.4417H22.4413H22.4408H22.4403H22.4398H22.4393H22.4388H22.4384H22.4379H22.4374H22.4369H22.4364H22.4359H22.4354H22.435H22.4345H22.434H22.4335H22.433H22.4325H22.432H22.4315H22.431H22.4306H22.4301H22.4296H22.4291H22.4286H22.4281H22.4276H22.4271H22.4266H22.4261H22.4256H22.4251H22.4246H22.4241H22.4236H22.4231H22.4226H22.4221H22.4216H22.4211H22.4206H22.4201H22.4196H22.4191H22.4186H22.4181H22.4176H22.4171H22.4166H22.4161H22.4156H22.4151H22.4146H22.4141H22.4135H22.413H22.4125H22.412H22.4115H22.411H22.4105H22.41H22.4095H22.409H22.4085H22.4079H22.4074H22.4069H22.4064H22.4059H22.4054H22.4049H22.4044H22.4038H22.4033H22.4028H22.4023H22.4018H22.4013H22.4007H22.4002H22.3997H22.3992H22.3987H22.3982H22.3976H22.3971H22.3966H22.3961H22.3956H22.395H22.3945H22.394H22.3935H22.393H22.3924H22.3919H22.3914H22.3909H22.3903H22.3898H22.3893H22.3888H22.3883H22.3877H22.3872H22.3867H22.3862H22.3856H22.3851H22.3846H22.3841H22.3835H22.383H22.3825H22.3819H22.3814H22.3809H22.3804H22.3798H22.3793H22.3788H22.3782H22.3777H22.3772H22.3767H22.3761H22.3756H22.3751H22.3745H22.374H22.3735H22.3729H22.3724H22.3719H22.3713H22.3708H22.3703H22.3697H22.3692H22.3687H22.3681H22.3676H22.3671H22.3665H22.366H22.3655H22.3649H22.3644H22.3639H22.3633H22.3628H22.3623H22.3617H22.3612H22.3607H22.3601H22.3596H22.3591H22.3585H22.358H22.3574H22.3569H22.3564H22.3558H22.3553H22.3548H22.3542H22.3537H22.3531H22.3526H22.3521H22.3515H22.351H22.3505H22.3499H22.3494H22.3488H22.3483H22.3478H22.3472H22.3467H22.3461H22.3456H22.3451H22.3445H22.344H22.3434H22.3429H22.3424H22.3418H22.3413H22.3407H22.3402H22.3397H22.3391H22.3386H22.338H22.3375H22.337H22.3364H22.3359H22.3353H22.3348H22.3343H22.3337H22.3332H22.3326H22.3321H22.3316H22.331H22.3305H22.3299H22.3294H22.3288H22.3283H22.3278H22.3272H22.3267H22.3261H22.3256H22.3251H22.3245H22.324H22.3234H22.3229H22.3223H22.3218H22.3213H22.3207H22.3202H22.3196H22.3191H22.3186H22.318H22.3175H22.3169H22.3164H22.3159H22.3153H22.3148H22.3142H22.3137H22.3131H22.3126H22.3121H22.3115H22.311H22.3104H22.3099H22.3094H22.3088H22.3083H22.3077H22.3072H22.3067H22.3061H22.3056H22.305H22.3045H22.304H22.3034H22.3029H22.3023H22.3018H22.3013H22.3007H22.3002H22.2996H22.2991H22.2986H22.298H22.2975H22.2969H22.2964H22.2959H22.2953H22.2948H22.2943H22.2937H22.2932H22.2926H22.2921H22.2916H22.291H22.2905H22.29H22.2894H22.2889H22.2883H22.2878H22.2873H22.2867H22.2862H22.2857H22.2851H22.2846H22.2841H22.2835H22.283H22.2825H22.2819H22.2814H22.2809H22.2803H22.2798H22.2792H22.2787H22.2782H22.2777H22.2771H22.2766H22.2761H22.2755H22.275H22.2745H22.2739H22.2734H22.2729H22.2723H22.2718H22.2713H22.2707H22.2702H22.2697H22.2691H22.2686H22.2681H22.2676H22.267H22.2665H22.266H22.2655H22.2649H22.2644H22.2639H22.2633H22.2628H22.2623H22.2618H22.2612H22.2607H22.2602H22.2597H22.2591H22.2586H22.2581H22.2576H22.257H22.2565H22.256H22.2555H22.255H22.2544H22.2539H22.2534H22.2529H22.2523H22.2518H22.2513H22.2508H22.2503H22.2497H22.2492H22.2487H22.2482H22.2477H22.2472H22.2466H22.2461H22.2456H22.2451H22.2446H22.2441H22.2435H22.243H22.2425H22.242H22.2415H22.241H22.2405H22.2399H22.2394H22.2389H22.2384H22.2379H22.2374H22.2369H22.2364H22.2359H22.2353H22.2348H22.2343H22.2338H22.2333H22.2328H22.2323H22.2318H22.2313H22.2308H22.2303H22.2298H22.2293H22.2288H22.2283H22.2278H22.2273H22.2268H22.2263H22.2258H22.2253H22.2248H22.2243H22.2238H22.2233H22.2228H22.2223H22.2218H22.2213H22.2208H22.2203H22.2198H22.2193H22.2188H22.2183H22.2178H22.2173H22.2168H22.2163H22.2158H22.2153H22.2148H22.2143H22.2139H22.2134H22.2129H22.2124H22.2119H22.2114H22.2109H22.2104H22.21H22.2095H22.209H22.2085H22.208H22.2075H22.2071H22.2066H22.2061H22.2056H22.2051H22.2046H22.2042H22.2037H22.2032H22.2027H22.2022H22.2018H22.2013H22.2008H22.2003H22.1999H22.1994H22.1994C20.5875 26.5962 19.0678 25.984 17.9158 25.4372C14.8078 23.9566 12.0901 21.8261 9.81477 19.1472C7.95456 16.9323 6.67796 14.8303 5.87168 12.6317L5.87169 12.6316L5.87067 12.629C5.42896 11.4661 5.2269 10.4992 5.2269 9.61926C5.2269 9.45661 5.22777 9.35096 5.24839 9.24841L5.25064 9.23724L5.25186 9.2259C5.32471 8.54973 5.58865 8.02309 6.02691 7.56215L7.89511 5.70417C8.18147 5.44438 8.46582 5.32659 8.69967 5.32659C8.94131 5.32659 9.2455 5.45082 9.46564 5.69165L9.47614 5.70313L9.48798 5.71323C9.8492 6.02116 10.1595 6.32959 10.5036 6.67179L10.7676 6.93437L11.0316 7.19695L12.5366 8.69367C12.8431 8.99854 12.9381 9.25287 12.9381 9.51422C12.9381 9.76444 12.8012 10.0462 12.5326 10.3387L12.299 10.5711L12.0613 10.8074C11.9378 10.9303 11.8188 11.0503 11.7024 11.1678C11.3643 11.5089 11.0471 11.8289 10.6991 12.1365L10.6936 12.1414L10.6884 12.1466L10.662 12.1728L10.8383 12.3501L10.662 12.1728C10.5229 12.3112 10.4291 12.4509 10.3715 12.5961C10.314 12.7415 10.2979 12.8796 10.2979 13.0066C10.2979 13.1472 10.3221 13.2953 10.3771 13.4282V13.452L10.3975 13.4994C10.8039 14.4425 11.3443 15.3273 12.1724 16.39L12.1724 16.39L12.1751 16.3934C13.6967 18.2783 15.3007 19.6878 17.0654 20.8313L17.0654 20.8313L17.0693 20.8338C17.2877 20.9695 17.5323 21.1046 17.7501 21.2129C17.8137 21.2445 17.8717 21.2724 17.9253 21.2982C18.0654 21.3656 18.1756 21.4186 18.2777 21.4863Z" fill="black" stroke="black" stroke-width="0.5"/>
</svg>
