<svg width="17" height="17" viewBox="0 0 17 17" fill="none" xmlns="http://www.w3.org/2000/svg">
<path d="M12.4436 9.63084L12.4418 9.63219C11.7307 10.1733 11.4613 11.0989 11.7179 11.9397L11.7178 11.9397L11.7196 11.9452L12.7493 15.2295C12.8372 15.519 12.7287 15.7591 12.5486 15.8958C12.373 16.0291 12.1565 16.05 11.9506 15.8988L9.26414 13.8673C9.26389 13.8671 9.26364 13.8669 9.26339 13.8667C8.54679 13.322 7.56988 13.322 6.85326 13.8667C6.85298 13.8669 6.8527 13.8671 6.85242 13.8673L4.16257 15.9013L4.16001 15.9033C3.96395 16.0529 3.75236 16.0373 3.57292 15.9009C3.38856 15.7607 3.28012 15.5164 3.36727 15.2295L4.39701 11.9452L4.39727 11.9444C4.65679 11.1132 4.38588 10.1733 3.67478 9.63219L3.6743 9.63182L0.996055 7.5974C0.995891 7.59727 0.995728 7.59715 0.995565 7.59702C0.783785 7.43513 0.719094 7.17949 0.796424 6.9314C0.872896 6.68605 1.0551 6.54166 1.29284 6.54166H4.61494C5.51676 6.54166 6.28145 5.94602 6.54382 5.09066L7.57361 1.80621L7.57369 1.80623L7.577 1.7951C7.72163 1.30747 8.38081 1.25736 8.55542 1.80731C8.5555 1.80756 8.55558 1.80781 8.55566 1.80806L9.58539 5.09233C9.58544 5.09249 9.58549 5.09266 9.58554 5.09282C9.84561 5.92499 10.6032 6.54166 11.5137 6.54166H14.8358C15.0736 6.54166 15.2558 6.68605 15.3323 6.9314C15.4095 7.1793 15.345 7.43472 15.1336 7.59664C15.1333 7.59689 15.133 7.59714 15.1326 7.5974L12.4436 9.63084Z" stroke="black" stroke-width="1.5"/>
</svg>
