<svg width="16" height="15" viewBox="0 0 16 15" fill="none" xmlns="http://www.w3.org/2000/svg">
<path d="M15.2681 7.64325C15.2681 7.30231 15.1256 6.97533 14.872 6.73425C14.6183 6.49316 14.2744 6.35772 13.9157 6.35772H10.8886C11.1819 5.54512 11.343 4.69472 11.3662 3.83591C11.3977 3.35991 11.2961 2.88447 11.0717 2.45789C10.8473 2.0313 10.5081 1.66876 10.0886 1.4071C9.84323 1.27854 9.56478 1.21807 9.28498 1.23258C9.00518 1.24709 8.73529 1.33598 8.50604 1.48915C8.46293 1.51342 8.42708 1.54778 8.4019 1.58896C8.37671 1.63013 8.36304 1.67675 8.36217 1.72437V3.267C8.36217 4.27901 7.60252 5.06126 6.79683 5.88728C6.49758 6.19362 6.22134 6.49995 5.93359 6.82817V13.7372C6.30258 13.9518 6.72679 14.0654 7.15939 14.0654H12.8798C13.1983 14.0639 13.5034 13.943 13.7286 13.7289C13.9538 13.5148 14.0811 13.2249 14.0826 12.9221C14.0842 12.686 14.0055 12.4557 13.8581 12.2657C14.0521 12.1492 14.2115 11.9875 14.3213 11.7961C14.431 11.6046 14.4875 11.3896 14.4854 11.1716C14.4854 10.9464 14.4218 10.7254 14.3013 10.5316C14.4905 10.4121 14.6451 10.2493 14.7507 10.0581C14.8564 9.86686 14.9096 9.65344 14.9055 9.43751C14.9093 9.16815 14.8204 8.90499 14.6523 8.68808C14.8364 8.5745 14.9887 8.42002 15.096 8.23799C15.2033 8.05595 15.2624 7.85183 15.2681 7.64325Z" stroke="black"/>
<path d="M3.72918 5.74219H0.733552C0.565938 5.74219 0.405189 5.80877 0.286668 5.92729C0.168147 6.04581 0.101563 6.20656 0.101562 6.37418V14.3436C0.101562 14.5112 0.168147 14.6719 0.286668 14.7904C0.405189 14.909 0.565938 14.9756 0.733552 14.9756H3.7039C3.87152 14.9756 4.03227 14.909 4.15079 14.7904C4.26931 14.6719 4.33589 14.5112 4.33589 14.3436V6.39946C4.33928 6.31645 4.32627 6.23358 4.2976 6.15561C4.26893 6.07763 4.22517 6.00607 4.16882 5.94503C4.11247 5.88398 4.04463 5.83464 3.96919 5.79984C3.89376 5.76503 3.8122 5.74544 3.72918 5.74219ZM2.80648 14.0276C2.68148 14.0276 2.55929 13.9905 2.45536 13.9211C2.35143 13.8516 2.27043 13.7529 2.2226 13.6374C2.17476 13.522 2.16225 13.3949 2.18663 13.2723C2.21102 13.1497 2.27121 13.0371 2.35959 12.9487C2.44798 12.8603 2.56059 12.8001 2.68318 12.7757C2.80578 12.7513 2.93285 12.7639 3.04833 12.8117C3.16381 12.8595 3.26251 12.9405 3.33196 13.0445C3.4014 13.1484 3.43847 13.2706 3.43847 13.3956C3.43847 13.5632 3.37188 13.7239 3.25336 13.8425C3.13484 13.961 2.97409 14.0276 2.80648 14.0276Z" fill="black"/>
</svg>
