<svg width="15" height="15" viewBox="0 0 15 15" fill="none" xmlns="http://www.w3.org/2000/svg">
<path d="M2.17526 2.75843C1.18518 3.74835 0.510888 5.00964 0.237664 6.3828C-0.0355603 7.75595 0.104553 9.17929 0.640286 10.4728C1.17602 11.7663 2.08331 12.8719 3.24741 13.6498C4.41151 14.4277 5.78014 14.8429 7.18021 14.8429C8.58029 14.8429 9.94892 14.4277 11.113 13.6498C12.2771 12.8719 13.1844 11.7663 13.7201 10.4728C14.2559 9.17929 14.396 7.75595 14.1228 6.3828C13.8495 5.00964 13.1752 3.74835 12.1852 2.75843C10.8577 1.43117 9.05739 0.685547 7.18021 0.685547C5.30304 0.685547 3.50273 1.43117 2.17526 2.75843ZM7.46408 3.65484C7.75333 3.65484 8.03074 3.76975 8.23527 3.97428C8.4398 4.17881 8.55471 4.45622 8.55471 4.74547C8.55471 5.03473 8.4398 5.31213 8.23527 5.51667C8.03074 5.7212 7.75333 5.8361 7.46408 5.8361C7.17296 5.83373 6.89467 5.71602 6.69022 5.50877C6.48577 5.30152 6.37185 5.02165 6.37344 4.73053C6.37581 4.44338 6.49196 4.16889 6.6964 3.96724C6.90085 3.76559 7.17692 3.65325 7.46408 3.65484ZM9.00291 10.9606C8.97131 11.0547 8.92043 11.1412 8.85351 11.2146C8.6724 11.4157 8.45125 11.5767 8.20426 11.6873C7.95727 11.798 7.68989 11.8557 7.41926 11.857C7.15452 11.8644 6.88963 11.8494 6.62743 11.8122C6.19416 11.7524 5.64138 11.2146 5.71608 10.6468L5.89536 9.48151C6.01488 8.8092 6.1344 8.12195 6.25392 7.44964C6.25392 7.40482 6.26886 7.36 6.26886 7.31518C6.26886 7.03132 6.17922 6.92674 5.89536 6.89686C5.77474 6.88423 5.65499 6.86427 5.5368 6.8371C5.47846 6.8214 5.4273 6.7861 5.39193 6.73713C5.35656 6.68815 5.33913 6.62849 5.34257 6.56817C5.35751 6.44865 5.43221 6.37395 5.58162 6.34407C5.66563 6.33121 5.75066 6.3262 5.8356 6.32913H7.89734C8.15132 6.32913 8.30073 6.44865 8.30073 6.70263C8.298 6.91384 8.27296 7.12417 8.22602 7.33012C8.09156 8.10701 7.94216 8.86896 7.8077 9.64585C7.76288 9.89983 7.70312 10.1538 7.67324 10.4078C7.66086 10.5331 7.67098 10.6596 7.70312 10.7813C7.71766 10.8553 7.75961 10.921 7.82056 10.9653C7.88152 11.0096 7.95697 11.0293 8.0318 11.0203C8.17158 11.0013 8.30762 10.961 8.43519 10.9008C8.53171 10.8451 8.63149 10.7952 8.73399 10.7514C8.91327 10.6917 9.04773 10.7962 9.00291 10.9606Z" fill="black"/>
</svg>
