<svg width="17" height="24" viewBox="0 0 17 24" fill="none" xmlns="http://www.w3.org/2000/svg">
<path d="M15.6957 8.34783C15.6957 9.26505 15.2604 10.6479 14.4845 12.3169C13.7263 13.9479 12.7066 15.7213 11.6739 17.3725C10.6433 19.0203 9.61106 20.5284 8.83557 21.6255C8.65839 21.8762 8.49477 22.1052 8.34783 22.3092C8.20089 22.1052 8.03727 21.8762 7.86008 21.6255C7.08459 20.5284 6.05234 19.0203 5.02174 17.3725C3.98901 15.7213 2.96932 13.9479 2.21115 12.3169C1.43527 10.6479 1 9.26505 1 8.34783C1 4.28973 4.28973 1 8.34783 1C12.4059 1 15.6957 4.28973 15.6957 8.34783Z" stroke="black" stroke-width="2"/>
<circle cx="8.3477" cy="8.34868" r="2.08696" fill="black"/>
</svg>
