<svg width="24" height="23" viewBox="0 0 24 23" fill="none" xmlns="http://www.w3.org/2000/svg">
<path d="M15.1351 5.70117H8.80706C7.23233 5.70117 5.94922 6.93082 5.94922 8.43993V14.5323C5.94922 16.0414 7.23233 17.271 8.80706 17.271H15.106C16.6807 17.271 17.9638 16.0414 17.9638 14.5323V8.43993C17.993 6.93082 16.7099 5.70117 15.1351 5.70117ZM11.9857 15.1471C9.85687 15.1471 8.10718 13.4983 8.10718 11.4582C8.10718 9.41806 9.85687 7.76922 11.9857 7.76922C14.1145 7.76922 15.8642 9.41806 15.8642 11.4582C15.8642 13.4983 14.1145 15.1471 11.9857 15.1471ZM15.9225 8.52377C15.4267 8.52377 15.0185 8.13252 15.0185 7.65743C15.0185 7.18234 15.4267 6.79109 15.9225 6.79109C16.4182 6.79109 16.8265 7.18234 16.8265 7.65743C16.8265 8.13252 16.4474 8.52377 15.9225 8.52377Z" fill="#A2A2A2"/>
<path d="M11.9854 0C5.36573 0 0 5.14216 0 11.486C0 17.8299 5.36573 22.9721 11.9854 22.9721C18.6051 22.9721 23.9708 17.8299 23.9708 11.486C23.9708 5.14216 18.6343 0 11.9854 0ZM19.3925 14.5601C19.3925 16.8238 17.4678 18.6683 15.1057 18.6683H8.8068C6.44472 18.6683 4.52005 16.8238 4.52005 14.5601V8.43985C4.52005 6.17619 6.44472 4.33171 8.8068 4.33171H15.1057C17.4678 4.33171 19.3925 6.17619 19.3925 8.43985V14.5601Z" fill="#A2A2A2"/>
<path d="M11.9856 13.8051C13.3545 13.8051 14.4643 12.7666 14.4643 11.4856C14.4643 10.2045 13.3545 9.16602 11.9856 9.16602C10.6166 9.16602 9.50684 10.2045 9.50684 11.4856C9.50684 12.7666 10.6166 13.8051 11.9856 13.8051Z" fill="#A2A2A2"/>
</svg>
