<svg width="83" height="39" viewBox="0 0 83 39" fill="none" xmlns="http://www.w3.org/2000/svg">
<path d="M29.9018 9.74506V38.3861H23.1732V21.5384L14.8204 27.7455L6.72864 21.5976V38.3861H0V9.74506L14.9074 19.5581L29.9018 9.74506Z" fill="black"/>
<path d="M54.8734 20.0606C54.8734 25.7651 50.349 30.3761 44.7515 30.3761C39.1539 30.3761 34.6295 25.7651 34.6295 20.0606C34.6295 14.356 39.1539 9.74506 44.7515 9.74506C50.349 9.74506 54.8734 14.356 54.8734 20.0606ZM49.0149 20.0606C49.0149 18.9078 48.5798 17.8142 47.7678 16.9866C46.9557 16.159 45.8826 15.7156 44.7515 15.7156C43.6204 15.7156 42.5473 16.159 41.7352 16.9866C40.9231 17.8142 40.4881 18.9078 40.4881 20.0606C40.4881 21.2133 40.9231 22.3069 41.7352 23.1345C42.5473 23.9326 43.6204 24.4055 44.7515 24.4055C45.8826 24.4055 46.9557 23.9326 47.7678 23.1345C48.5798 22.3069 49.0149 21.2133 49.0149 20.0606Z" fill="black"/>
<path d="M54.8732 32.5334H34.6293V38.3858H54.8732V32.5334Z" fill="black"/>
<path d="M82.9187 10.0405C82.9187 15.1834 82.8897 21.5383 82.8897 26.2083C82.8897 33.8637 76.2771 38.3268 70.8246 38.3268C65.8071 38.3268 58.8464 34.2184 58.8464 26.1197C58.8464 21.7452 58.8754 15.3312 58.8754 10.0405H65.14L65.111 26.1197C65.111 27.8931 65.7201 29.2823 66.9672 30.3464C68.2143 31.44 69.8095 31.9424 70.7956 31.9424C71.4046 31.9424 72.1007 31.7651 72.7388 31.5582C73.4638 31.2626 74.2179 30.8488 74.7689 30.3168C75.32 29.7848 75.813 29.2232 76.1031 28.5434C76.4511 27.834 76.5671 27.095 76.5671 26.2083L76.5961 10.0405H82.9187Z" fill="black"/>
<path d="M70.9004 9.65578L75.6377 4.82788L70.9004 -1.99309e-05L66.1631 4.82788L70.9004 9.65578Z" fill="#FF0033"/>
</svg>
