<svg width="83" height="39" viewBox="0 0 83 39" fill="none" xmlns="http://www.w3.org/2000/svg">
<path d="M29.9018 9.74512V38.3862H23.1732V21.5385L14.8204 27.7455L6.72864 21.5976V38.3862H0V9.74512L14.9074 19.5582L29.9018 9.74512Z" fill="white"/>
<path d="M54.8734 20.0606C54.8734 25.7652 50.349 30.3761 44.7515 30.3761C39.1539 30.3761 34.6295 25.7652 34.6295 20.0606C34.6295 14.3561 39.1539 9.74512 44.7515 9.74512C50.349 9.74512 54.8734 14.3561 54.8734 20.0606ZM49.0149 20.0606C49.0149 18.9079 48.5798 17.8143 47.7678 16.9867C46.9557 16.1591 45.8826 15.7157 44.7515 15.7157C43.6204 15.7157 42.5473 16.1591 41.7352 16.9867C40.9231 17.8143 40.4881 18.9079 40.4881 20.0606C40.4881 21.2134 40.9231 22.307 41.7352 23.1346C42.5473 23.9326 43.6204 24.4056 44.7515 24.4056C45.8826 24.4056 46.9557 23.9326 47.7678 23.1346C48.5798 22.307 49.0149 21.2134 49.0149 20.0606Z" fill="white"/>
<path d="M54.8732 32.5337H34.6293V38.386H54.8732V32.5337Z" fill="white"/>
<path d="M82.9187 10.0405C82.9187 15.1835 82.8897 21.5383 82.8897 26.2084C82.8897 33.8637 76.2771 38.3269 70.8246 38.3269C65.8071 38.3269 58.8464 34.2184 58.8464 26.1197C58.8464 21.7452 58.8754 15.3313 58.8754 10.0405H65.14L65.111 26.1197C65.111 27.8932 65.7201 29.2824 66.9672 30.3464C68.2143 31.44 69.8095 31.9425 70.7956 31.9425C71.4046 31.9425 72.1007 31.7652 72.7388 31.5583C73.4638 31.2627 74.2179 30.8489 74.7689 30.3169C75.32 29.7848 75.813 29.2232 76.1031 28.5434C76.4511 27.834 76.5671 27.0951 76.5671 26.2084L76.5961 10.0405H82.9187Z" fill="white"/>
<path d="M70.9003 9.65603L75.6376 4.82812L70.9003 0.00022421L66.163 4.82813L70.9003 9.65603Z" fill="white"/>
</svg>
