<svg width="83" height="39" viewBox="0 0 83 39" fill="none" xmlns="http://www.w3.org/2000/svg">
<path d="M29.9018 9.74506V38.3861H23.1732V21.5384L14.8204 27.7455L6.72864 21.5976V38.3861H0V9.74506L14.9074 19.5581L29.9018 9.74506Z" fill="white"/>
<path d="M54.8728 20.0606C54.8728 25.7651 50.3484 30.3761 44.7509 30.3761C39.1533 30.3761 34.6289 25.7651 34.6289 20.0606C34.6289 14.356 39.1533 9.74506 44.7509 9.74506C50.3484 9.74506 54.8728 14.356 54.8728 20.0606ZM49.0143 20.0606C49.0143 18.9078 48.5792 17.8142 47.7672 16.9866C46.9551 16.159 45.882 15.7156 44.7509 15.7156C43.6198 15.7156 42.5467 16.159 41.7346 16.9866C40.9225 17.8142 40.4875 18.9078 40.4875 20.0606C40.4875 21.2133 40.9225 22.3069 41.7346 23.1345C42.5467 23.9326 43.6198 24.4055 44.7509 24.4055C45.882 24.4055 46.9551 23.9326 47.7672 23.1345C48.5792 22.3069 49.0143 21.2133 49.0143 20.0606Z" fill="white"/>
<path d="M54.8728 32.5334H34.6289V38.3858H54.8728V32.5334Z" fill="white"/>
<path d="M82.9199 10.0405C82.9199 15.1834 82.8909 21.5383 82.8909 26.2083C82.8909 33.8637 76.2783 38.3268 70.8258 38.3268C65.8083 38.3268 58.8477 34.2184 58.8477 26.1197C58.8477 21.7452 58.8767 15.3312 58.8767 10.0405H65.1413L65.1123 26.1197C65.1123 27.8931 65.7213 29.2823 66.9684 30.3464C68.2155 31.44 69.8107 31.9424 70.7968 31.9424C71.4058 31.9424 72.1019 31.7651 72.74 31.5582C73.465 31.2626 74.2191 30.8488 74.7702 30.3168C75.3212 29.7848 75.8143 29.2232 76.1043 28.5434C76.4523 27.834 76.5683 27.095 76.5683 26.2083L76.5973 10.0405H82.9199Z" fill="white"/>
<path d="M70.8994 9.65578L75.6367 4.82788L70.8994 -1.99309e-05L66.1621 4.82788L70.8994 9.65578Z" fill="#FF0033"/>
</svg>
