<svg width="158" height="38" viewBox="0 0 158 38" fill="none" xmlns="http://www.w3.org/2000/svg">
<g clip-path="url(#clip0_6_236)">
<path d="M100.895 10.1846V20.1704H99.2746V12.8785L95.5476 19.0401H94.7374L91.0469 12.8623V20.1542H89.3901V10.1846H91.2535L95.1709 16.9295L99.2219 10.1846H100.895Z" fill="white"/>
<path d="M111.152 11.1077C111.885 11.7883 112.254 12.797 112.254 14.1419V20.1699H110.541V18.8573C110.226 19.3335 109.776 19.7045 109.248 19.9228C108.618 20.1831 107.941 20.3086 107.259 20.2914C106.299 20.3388 105.351 20.0525 104.577 19.4812C104.262 19.2243 104.006 18.9015 103.828 18.5353C103.651 18.169 103.556 17.7684 103.549 17.3614C103.543 16.9544 103.626 16.5511 103.793 16.1796C103.959 15.8082 104.205 15.4777 104.513 15.2114C105.153 14.6713 106.171 14.4012 107.567 14.4012H110.427V14.0407C110.449 13.7117 110.4 13.3819 110.284 13.0736C110.167 12.7653 109.985 12.4858 109.751 12.2541C109.189 11.7992 108.474 11.5761 107.753 11.6303C107.163 11.6303 106.577 11.7289 106.02 11.922C105.499 12.0937 105.015 12.3586 104.59 12.7038L103.836 11.3467C104.385 10.9154 105.013 10.5936 105.683 10.3988C106.421 10.1732 107.189 10.0612 107.96 10.0666C109.354 10.0828 110.418 10.4298 111.152 11.1077ZM109.374 18.4279C109.872 18.125 110.256 17.6646 110.464 17.1194V15.7259H107.676C106.145 15.7259 105.38 16.2404 105.38 17.2693C105.372 17.4999 105.421 17.7289 105.522 17.9359C105.624 18.143 105.775 18.3217 105.963 18.4563C106.443 18.7708 107.011 18.9228 107.583 18.8897C108.212 18.906 108.832 18.746 109.374 18.4279Z" fill="white"/>
<path d="M117.14 19.6233C116.359 19.2022 115.711 18.5724 115.268 17.8044C114.82 16.9992 114.584 16.0929 114.584 15.1712C114.584 14.2496 114.82 13.3433 115.268 12.5381C115.709 11.7717 116.358 11.1454 117.14 10.7313C117.977 10.2874 118.914 10.063 119.862 10.0791C120.704 10.0629 121.538 10.2505 122.293 10.626C122.988 10.9779 123.562 11.5294 123.941 12.2099L122.564 13.0931C122.277 12.6384 121.874 12.268 121.397 12.0195C120.919 11.7783 120.389 11.656 119.854 11.663C119.239 11.6514 118.631 11.8008 118.092 12.0965C117.579 12.3771 117.157 12.7989 116.876 13.3118C116.572 13.8764 116.419 14.5098 116.431 15.151C116.418 15.7974 116.571 16.4362 116.876 17.0063C117.157 17.5193 117.579 17.941 118.092 18.2217C118.631 18.5173 119.239 18.6667 119.854 18.6551C120.389 18.6622 120.919 18.5399 121.397 18.2986C121.874 18.0502 122.277 17.6798 122.564 17.2251L123.941 18.092C123.559 18.7721 122.986 19.3255 122.293 19.6841C121.54 20.0642 120.705 20.2547 119.862 20.2391C118.917 20.2702 117.979 20.0581 117.14 19.6233Z" fill="white"/>
<path d="M133.579 11.7685H129.933V20.1704H128.126V11.7685H124.48V10.1846H133.599L133.579 11.7685Z" fill="white"/>
<path d="M143.974 15.7788H135.872C135.915 16.1916 136.04 16.5917 136.239 16.956C136.437 17.3204 136.706 17.6417 137.03 17.9015C137.73 18.4511 138.6 18.7378 139.489 18.7117C140.029 18.7312 140.566 18.6325 141.064 18.4226C141.561 18.2127 142.007 17.8966 142.369 17.4964L143.37 18.6631C142.913 19.1978 142.333 19.6147 141.681 19.8784C140.966 20.1611 140.201 20.2988 139.432 20.2835C138.457 20.3021 137.492 20.078 136.625 19.6313C135.832 19.2207 135.174 18.5907 134.729 17.8164C134.278 17.0117 134.047 16.1019 134.061 15.1792C134.048 14.2639 134.273 13.361 134.713 12.5582C135.133 11.8001 135.758 11.1754 136.516 10.7555C137.299 10.3151 138.185 10.09 139.084 10.1033C139.978 10.0878 140.859 10.3131 141.636 10.7555C142.381 11.1822 142.989 11.8116 143.39 12.5704C143.822 13.3958 144.04 14.3166 144.022 15.2481C144.015 15.4257 143.999 15.6028 143.974 15.7788ZM136.921 12.4083C136.332 12.9475 135.967 13.6873 135.896 14.4825H142.301C142.226 13.69 141.859 12.9536 141.272 12.4164C140.663 11.9039 139.892 11.6229 139.096 11.6229C138.3 11.6229 137.53 11.9039 136.921 12.4164V12.4083Z" fill="white"/>
<path d="M154.713 10.7317C155.468 11.1494 156.091 11.7695 156.512 12.5223C156.937 13.3448 157.16 14.2575 157.16 15.1838C157.16 16.11 156.937 17.0228 156.512 17.8453C156.092 18.6011 155.469 19.2243 154.713 19.644C153.916 20.0779 153.02 20.2984 152.112 20.284C151.434 20.2967 150.761 20.1583 150.143 19.8789C149.548 19.6016 149.028 19.1847 148.628 18.6636V23.8246H146.818V10.1848H148.551V11.7688C148.943 11.226 149.469 10.7946 150.079 10.517C150.716 10.2366 151.408 10.0983 152.104 10.1119C153.013 10.0899 153.911 10.3035 154.713 10.7317ZM153.684 18.2585C154.197 17.9647 154.617 17.5341 154.899 17.0148C155.189 16.4457 155.34 15.8162 155.34 15.1777C155.34 14.5392 155.189 13.9097 154.899 13.3406C154.616 12.8298 154.195 12.4087 153.684 12.1252C153.159 11.8302 152.565 11.6806 151.962 11.6918C151.364 11.6834 150.775 11.8359 150.257 12.1334C149.749 12.4207 149.329 12.8408 149.042 13.3487C148.74 13.9096 148.588 14.5389 148.6 15.1757C148.588 15.814 148.738 16.445 149.033 17.0108C149.312 17.5327 149.733 17.9642 150.249 18.2545C150.775 18.5442 151.366 18.6961 151.966 18.6961C152.567 18.6961 153.158 18.5442 153.684 18.2545V18.2585Z" fill="white"/>
<path d="M29.8359 9.70215V37.7272H23.1112V21.2435L14.7903 27.3201L6.72471 21.2881V37.7272H-0.00404358V9.70215L14.8754 19.3153L29.8359 9.70215Z" fill="white"/>
<path d="M54.7618 19.7973C54.7634 21.7961 54.1721 23.7504 53.0628 25.413C51.9534 27.0757 50.3758 28.3719 48.5296 29.1377C46.6834 29.9035 44.6515 30.1045 42.691 29.7153C40.7305 29.326 38.9295 28.364 37.5159 26.9509C36.1023 25.5379 35.1395 23.7373 34.7495 21.777C34.3595 19.8166 34.5596 17.7847 35.3247 15.9381C36.0898 14.0916 37.3854 12.5135 39.0476 11.4035C40.7098 10.2934 42.6639 9.70135 44.6626 9.70215C47.3404 9.70215 49.9086 10.7656 51.8024 12.6587C53.6963 14.5518 54.7607 17.1195 54.7618 19.7973ZM48.9 19.7973C48.8982 19.1013 48.7249 18.4164 48.3955 17.8032C48.0662 17.1901 47.5908 16.6675 47.0115 16.2816C46.4322 15.8958 45.7668 15.6586 45.074 15.5911C44.3813 15.5235 43.6825 15.6276 43.0395 15.8942C42.3966 16.1608 41.8292 16.5817 41.3876 17.1197C40.9459 17.6576 40.6436 18.2961 40.5073 18.9787C40.371 19.6613 40.4049 20.3669 40.6061 21.0332C40.8073 21.6995 41.1695 22.306 41.6608 22.7991C42.4573 23.593 43.536 24.0387 44.6606 24.0387C45.7851 24.0387 46.8639 23.593 47.6604 22.7991C48.0559 22.4061 48.3692 21.9382 48.582 21.4229C48.7948 20.9075 48.9029 20.3549 48.9 19.7973Z" fill="white"/>
<path d="M54.7578 31.9951H34.5594V37.7273H54.7578V31.9951Z" fill="white"/>
<path d="M82.7383 9.97392C82.7383 15.0175 82.714 21.2317 82.714 25.8013C82.714 33.3038 76.1189 37.6587 70.6824 37.6587C65.6834 37.6587 58.74 33.6481 58.74 25.7162C58.74 21.4464 58.7643 15.1471 58.7643 9.97392H65.015L64.9907 25.7162C64.9585 26.5026 65.1097 27.2858 65.4324 28.0037C65.7552 28.7215 66.2405 29.3545 66.8502 29.8523C67.5939 30.5883 68.5366 31.0908 69.5622 31.2981C70.5878 31.5054 71.6517 31.4084 72.6229 31.019C73.3633 30.7341 74.0486 30.3229 74.6484 29.8037C75.203 29.3208 75.6584 28.7347 75.9893 28.078C76.3275 27.3652 76.49 26.5817 76.4632 25.7932L76.4875 9.96582L82.7383 9.97392Z" fill="white"/>
<path d="M71.4157 0.489757L71.9909 2.256C72.0365 2.39958 72.1267 2.52488 72.2483 2.61375C72.37 2.70261 72.5168 2.75042 72.6674 2.75023H74.5349C74.6839 2.75355 74.8281 2.80346 74.9472 2.89295C75.0664 2.98244 75.1545 3.10701 75.1992 3.24915C75.2439 3.3913 75.2429 3.54388 75.1964 3.68545C75.15 3.82703 75.0603 3.95047 74.94 4.03846L73.4371 5.12819C73.3131 5.21788 73.221 5.34491 73.1743 5.49069C73.1277 5.63647 73.1289 5.79336 73.1778 5.93839L73.7531 7.70464C73.8042 7.84876 73.8077 8.0055 73.7629 8.15172C73.7181 8.29795 73.6276 8.42591 73.5045 8.51671C73.3815 8.60752 73.2325 8.65636 73.0796 8.65602C72.9267 8.65569 72.7779 8.60619 72.6552 8.51485L71.1523 7.42107C71.0314 7.33222 70.8852 7.2843 70.7351 7.2843C70.585 7.2843 70.4388 7.33222 70.3178 7.42107L68.8149 8.51485C68.6922 8.60619 68.5435 8.65569 68.3905 8.65602C68.2376 8.65636 68.0886 8.60752 67.9656 8.51671C67.8426 8.42591 67.752 8.29795 67.7072 8.15172C67.6625 8.0055 67.6659 7.84876 67.7171 7.70464L68.2923 5.93839C68.3412 5.79336 68.3424 5.63647 68.2958 5.49069C68.2491 5.34491 68.157 5.21788 68.033 5.12819L66.5301 4.03846C66.4098 3.95047 66.3202 3.82703 66.2737 3.68545C66.2272 3.54388 66.2262 3.3913 66.2709 3.24915C66.3156 3.10701 66.4037 2.98244 66.5229 2.89295C66.642 2.80346 66.7862 2.75355 66.9352 2.75023H68.7905C68.9412 2.75042 69.088 2.70261 69.2096 2.61375C69.3313 2.52488 69.4215 2.39958 69.4671 2.256L70.0424 0.489757C70.0843 0.339874 70.174 0.207816 70.298 0.113744C70.422 0.0196711 70.5733 -0.03125 70.729 -0.03125C70.8846 -0.03125 71.036 0.0196711 71.1599 0.113744C71.2839 0.207816 71.3738 0.339874 71.4157 0.489757Z" fill="#FF0033"/>
</g>
<defs>
<clipPath id="clip0_6_236">
<rect width="157.16" height="37.7273" fill="white"/>
</clipPath>
</defs>
</svg>
