<svg width="464" height="215" viewBox="0 0 464 215" fill="none" xmlns="http://www.w3.org/2000/svg">
<g clip-path="url(#clip0_6_250)">
<path d="M167.326 54.4961V215.001H129.673V120.586L82.9325 155.371L37.6523 120.918V215.001H0V54.4961L83.4194 109.488L167.326 54.4961Z" fill="black"/>
<path d="M307.061 112.304C307.061 144.273 281.743 170.112 250.42 170.112C219.097 170.112 193.779 144.273 193.779 112.304C193.779 80.3358 219.097 54.4961 250.42 54.4961C281.743 54.4961 307.061 80.3358 307.061 112.304ZM274.278 112.304C274.278 105.844 271.843 99.7157 267.299 95.0778C262.755 90.4398 256.75 87.9553 250.42 87.9553C244.091 87.9553 238.086 90.4398 233.542 95.0778C228.997 99.7157 226.563 105.844 226.563 112.304C226.563 118.764 228.997 124.893 233.542 129.531C238.086 134.003 244.091 136.653 250.42 136.653C256.75 136.653 262.755 134.003 267.299 129.531C271.843 124.893 274.278 118.764 274.278 112.304Z" fill="black"/>
<path d="M307.061 182.206H193.779V215.003H307.061V182.206Z" fill="black"/>
<path d="M464 56.1543C464 84.9755 463.838 120.588 463.838 146.759C463.838 189.66 426.834 214.671 396.323 214.671C368.246 214.671 329.295 191.647 329.295 146.262C329.295 121.747 329.458 85.8037 329.458 56.1543H364.513L364.351 146.262C364.351 156.2 367.759 163.986 374.738 169.949C381.717 176.077 390.643 178.893 396.161 178.893C399.569 178.893 403.464 177.899 407.035 176.74C411.092 175.083 415.312 172.764 418.395 169.783C421.479 166.801 424.238 163.654 425.861 159.845C427.808 155.869 428.457 151.728 428.457 146.759L428.62 56.1543H464Z" fill="black"/>
<path d="M396.743 53.998L423.253 26.9424L396.743 -0.113185L370.234 26.9424L396.743 53.998Z" fill="#FF0033"/>
<g clip-path="url(#clip1_6_250)">
<path d="M167.326 54.4961V215.001H129.673V120.586L82.9325 155.371L37.6523 120.918V215.001H0V54.4961L83.4194 109.488L167.326 54.4961Z" fill="white"/>
<path d="M307.061 112.304C307.061 144.273 281.743 170.112 250.42 170.112C219.097 170.112 193.779 144.273 193.779 112.304C193.779 80.3359 219.097 54.4961 250.42 54.4961C281.743 54.4961 307.061 80.3359 307.061 112.304ZM274.278 112.304C274.278 105.844 271.843 99.7157 267.299 95.0778C262.755 90.4399 256.75 87.9553 250.42 87.9553C244.091 87.9553 238.086 90.4399 233.542 95.0778C228.997 99.7157 226.563 105.844 226.563 112.304C226.563 118.764 228.997 124.893 233.542 129.531C238.086 134.003 244.091 136.653 250.42 136.653C256.75 136.653 262.755 134.003 267.299 129.531C271.843 124.893 274.278 118.764 274.278 112.304Z" fill="white"/>
<path d="M307.061 182.206H193.779V215.003H307.061V182.206Z" fill="white"/>
<path d="M464 56.1543C464 84.9755 463.838 120.588 463.838 146.759C463.838 189.66 426.834 214.671 396.323 214.671C368.246 214.671 329.295 191.647 329.295 146.262C329.295 121.747 329.458 85.8037 329.458 56.1543H364.513L364.351 146.262C364.351 156.2 367.759 163.986 374.738 169.949C381.717 176.077 390.643 178.893 396.161 178.893C399.569 178.893 403.464 177.899 407.035 176.74C411.092 175.083 415.312 172.764 418.395 169.783C421.479 166.801 424.238 163.654 425.861 159.845C427.808 155.869 428.457 151.728 428.457 146.759L428.62 56.1543H464Z" fill="white"/>
<path d="M396.743 53.998L423.253 26.9424L396.743 -0.113188L370.234 26.9424L396.743 53.998Z" fill="white"/>
</g>
</g>
<defs>
<clipPath id="clip0_6_250">
<rect width="464" height="215" fill="white"/>
</clipPath>
<clipPath id="clip1_6_250">
<rect width="464" height="215" fill="white"/>
</clipPath>
</defs>
</svg>
