<svg width="64" height="62" viewBox="0 0 64 62" fill="none" xmlns="http://www.w3.org/2000/svg">
<path d="M36.7963 3.54233L40.8937 16.2022C41.5685 18.2959 43.4967 19.7567 45.7141 19.7567H58.9221C63.8389 19.7567 65.8635 26.0866 61.9107 29.0081L51.2094 36.8475C49.4258 38.1622 48.7028 40.4507 49.3776 42.5932L53.475 55.253C54.9693 59.9761 49.6668 63.8715 45.6659 60.9987L34.9646 53.1593C33.181 51.8446 30.7708 51.8446 28.9872 53.1593L18.2859 60.9987C14.3332 63.9202 8.98249 59.9761 10.4768 55.253L14.5742 42.5932C15.249 40.4994 14.526 38.1622 12.7424 36.8475L2.08929 29.0081C-1.86346 26.0866 0.16112 19.7567 5.07795 19.7567H18.2859C20.5033 19.7567 22.4315 18.3446 23.1063 16.2022L27.2037 3.54233C28.6498 -1.18078 35.2538 -1.18078 36.7963 3.54233Z" fill="black"/>
</svg>
