<svg width="774" height="774" viewBox="0 0 774 774" fill="none" xmlns="http://www.w3.org/2000/svg">
<circle cx="387" cy="387" r="387" fill="black"/>
<path d="M406.589 278.084C438.926 278.084 465.2 304.358 465.537 336.021C465.537 338.042 464.863 340.063 464.863 342.421M435.895 336.695C435.895 320.863 422.758 307.726 406.926 307.726M492.147 356.905C493.832 350.505 494.505 343.768 494.505 336.695C494.505 288.526 455.095 249.116 406.926 249.116M430.842 174H343.263C258.379 174 190 242.379 190 327.263V392.947C190 452.232 224.021 506.126 277.579 531.389V604.821C277.579 608.526 280.947 611.895 285.326 611.895C287.011 611.895 289.032 611.221 290.379 609.874L353.705 546.211H430.842C515.726 546.211 584.105 477.832 584.105 392.947V327.263C584.105 242.379 515.726 174 430.842 174ZM488.442 461.326L466.547 483.221C442.968 506.126 382.337 479.853 328.779 425.284C275.221 370.716 251.305 309.074 273.874 286.168L295.768 264.274C304.526 256.189 318.337 256.526 327.095 264.947L358.758 297.958C366.842 306.716 366.842 319.853 358.084 328.611C355.726 330.968 353.032 332.316 350 333.663C338.884 337.032 333.158 347.811 335.853 358.926C341.242 383.179 371.895 413.495 395.137 419.558C405.916 422.253 417.032 416.189 420.737 405.747C424.442 394.968 436.568 388.905 448.021 392.611C451.389 393.621 454.084 395.979 456.779 398L488.442 431.011C496.526 439.095 496.526 452.568 488.442 461.326Z" stroke="white" stroke-width="12" stroke-linecap="round" stroke-linejoin="round"/>
</svg>
