<svg width="200" height="200" viewBox="0 0 200 200" fill="none" xmlns="http://www.w3.org/2000/svg">
<path d="M200 100C200 155.228 155.228 200 100 200C44.7715 200 0 155.228 0 100C0 44.7715 44.7715 0 100 0C155.228 0 200 44.7715 200 100Z" fill="black"/>
<path d="M102.5 39C71.3446 39 46 64.3446 46 95.5C46 106.129 48.9532 116.446 54.5554 125.406C52.3237 133.225 48.2926 148.015 48.2491 148.169C48.0405 148.934 48.2643 149.751 48.8359 150.301C49.4074 150.85 50.2332 151.046 50.985 150.816L73.3808 143.927C82.1535 149.212 92.1996 152 102.5 152C133.655 152 159 126.655 159 95.5C159 64.3446 133.655 39 102.5 39ZM102.5 147.654C92.6799 147.654 83.114 144.909 74.8346 139.72C74.4847 139.5 74.0827 139.39 73.6807 139.39C73.4655 139.39 73.2504 139.422 73.0418 139.485L53.4863 145.505C54.9227 140.261 57.5043 130.882 59.0015 125.664C59.1754 125.06 59.0776 124.408 58.7364 123.88C53.2472 115.434 50.3462 105.62 50.3462 95.5C50.3462 66.7437 73.7437 43.3462 102.5 43.3462C131.256 43.3462 154.654 66.7437 154.654 95.5C154.654 124.256 131.256 147.654 102.5 147.654Z" fill="white"/>
<path d="M139.41 108.812C135.398 106.585 131.982 104.351 129.49 102.721C127.586 101.478 126.21 100.581 125.202 100.074C122.384 98.6683 120.248 99.6614 119.435 100.483C119.333 100.585 119.241 100.696 119.163 100.813C116.236 105.205 112.414 109.406 111.294 109.632C110.001 109.429 103.949 105.989 97.9344 100.981C91.7933 95.8629 87.9295 90.9626 87.3623 87.6248C91.3021 83.5698 92.7212 81.0186 92.7212 78.1154C92.7212 75.1231 85.7412 62.63 84.4787 61.3675C83.2118 60.1028 80.3585 59.905 75.9972 60.7742C75.5778 60.859 75.1909 61.0654 74.8867 61.3675C74.3587 61.8955 62.0025 74.4929 67.8742 89.7609C74.3195 106.518 90.8632 125.995 111.955 129.159C114.352 129.517 116.599 129.696 118.702 129.696C131.111 129.696 138.434 123.452 140.496 111.068C140.651 110.162 140.214 109.258 139.41 108.812ZM112.6 124.86C90.296 121.516 76.2471 99.4181 71.9313 88.2006C67.6504 77.0745 75.5452 67.1544 77.527 64.9118C79.1394 64.638 80.8366 64.5228 81.545 64.6336C83.0249 66.6915 88.149 76.3726 88.375 78.1154C88.375 79.2563 88.0034 80.8448 83.579 85.2713C83.1705 85.6777 82.9423 86.2297 82.9423 86.8077C82.9423 98.1859 106.942 113.971 111.192 113.971C114.889 113.971 119.709 107.758 122.453 103.71C122.612 103.716 122.879 103.771 123.259 103.962C124.042 104.355 125.398 105.24 127.112 106.361C129.377 107.841 132.384 109.805 135.935 111.842C134.323 119.599 129.816 127.446 112.6 124.86Z" fill="white"/>
</svg>
