<svg width="201" height="200" viewBox="0 0 201 200" fill="none" xmlns="http://www.w3.org/2000/svg">
<path d="M200.316 100C200.316 155.228 155.545 200 100.316 200C45.0878 200 0.316254 155.228 0.316254 100C0.316254 44.7715 45.0878 0 100.316 0C155.545 0 200.316 44.7715 200.316 100Z" fill="black"/>
<path d="M112.065 39H88.9352C64.7094 39 45 58.797 45 83.1315V104.065C45 122.187 56.0838 138.473 72.75 145.106V158.677C72.75 159.597 73.2888 160.428 74.1259 160.8C74.4266 160.935 74.7457 161 75.0625 161C75.6244 161 76.1818 160.793 76.6142 160.398L90.0244 148.196H112.065C136.291 148.196 156 128.399 156 104.065V83.1315C156 58.797 136.291 39 112.065 39ZM151.375 104.065C151.375 125.837 133.742 143.55 112.065 143.55H89.1318C88.5583 143.55 88.0056 143.763 87.5801 144.151L77.375 153.438V143.496C77.375 142.511 76.7576 141.633 75.8326 141.308C60.1584 135.739 49.625 120.772 49.625 104.065V83.1315C49.625 61.3597 67.2601 43.6466 88.9352 43.6466H112.065C133.742 43.6466 151.375 61.3597 151.375 83.1315V104.065Z" fill="white"/>
<path d="M131.062 109.845L116.849 100.57C115.295 99.5551 113.445 99.2112 111.635 99.5876C109.822 99.971 108.263 101.047 107.252 102.615L106.584 103.646C100.433 101.604 93.6504 98.9952 89.5896 87.1857L91.2708 85.7174C94.1568 83.1966 94.4598 78.7869 91.9507 75.8827L80.8322 63.0325C79.9951 62.0636 78.5336 61.9637 77.5692 62.8024L70.5878 68.8988C64.4643 74.2471 67.3249 82.158 68.2661 84.7578C68.3077 84.874 68.3586 84.9855 68.4187 85.0947C68.6615 85.5315 74.4589 95.926 83.8222 105.507C93.2226 115.128 110.194 124.013 110.714 124.271C112.652 125.534 114.833 126.141 116.99 126.141C120.778 126.141 124.492 124.275 126.708 120.855L131.744 113.063C132.438 111.983 132.133 110.544 131.062 109.845ZM122.827 118.323C120.744 121.548 116.438 122.463 113.038 120.261C112.87 120.172 96.0091 111.351 87.1222 102.255C78.8157 93.7537 73.3004 84.3094 72.5488 82.9921C70.7173 77.832 71.0411 74.6607 73.6218 72.4071L78.8596 67.8348L88.4611 78.9309C89.3144 79.916 89.215 81.3565 88.2391 82.2092L85.4017 84.6858C84.7102 85.2899 84.4374 86.2448 84.7079 87.123C89.5457 102.917 98.9529 106.019 105.821 108.284L106.822 108.616C107.824 108.955 108.92 108.567 109.493 107.68L111.133 105.143C111.471 104.618 111.988 104.262 112.59 104.134C113.193 104.004 113.808 104.125 114.331 104.467L126.606 112.475L122.827 118.323Z" fill="white"/>
<path d="M105.779 76.747C104.549 76.3916 103.27 77.1095 102.921 78.3455C102.572 79.5792 103.284 80.864 104.512 81.2148C107.958 82.1999 110.703 84.9623 111.674 88.4264C111.961 89.4486 112.888 90.1201 113.899 90.1201C114.107 90.1201 114.317 90.0922 114.528 90.0341C115.756 89.6856 116.472 88.4031 116.126 87.1671C114.722 82.1627 110.756 78.1689 105.779 76.747Z" fill="white"/>
<path d="M123.378 90.6219C123.586 90.6219 123.796 90.594 124.007 90.5359C125.237 90.1874 125.951 88.9026 125.604 87.669C122.876 77.9505 115.177 70.1999 105.511 67.4351C104.283 67.0797 103.004 67.8022 102.655 69.0359C102.306 70.2696 103.018 71.5544 104.246 71.9052C112.379 74.2285 118.857 80.7548 121.153 88.9305C121.442 89.9528 122.367 90.6219 123.378 90.6219Z" fill="white"/>
<path d="M104.514 56.6154C103.284 56.26 102.005 56.9779 101.656 58.2162C101.307 59.4499 102.019 60.7347 103.247 61.0855C117.027 65.0235 128.005 76.0779 131.895 89.9319C132.181 90.9541 133.109 91.6256 134.119 91.6256C134.327 91.6256 134.538 91.5977 134.748 91.5396C135.976 91.1911 136.693 89.9063 136.346 88.6726C132.024 73.276 119.828 60.9949 104.514 56.6154Z" fill="white"/>
</svg>
