<svg width="200" height="200" viewBox="0 0 200 200" fill="none" xmlns="http://www.w3.org/2000/svg">
<path d="M200 100C200 155.228 155.228 200 100 200C44.7715 200 0 155.228 0 100C0 44.7715 44.7715 0 100 0C155.228 0 200 44.7715 200 100Z" fill="black"/>
<path fill-rule="evenodd" clip-rule="evenodd" d="M114.406 82.9223L61.6388 115.88C58.8849 114.968 56.1306 114.058 53.3767 113.149L53.3706 113.147C47.5253 111.216 41.6814 109.285 35.8442 107.337L35.841 107.336L35.8379 107.335C32.1022 106.156 30.1028 103.556 30.0039 100.944C29.9054 98.343 31.687 95.5568 35.8864 93.9923L35.8886 93.9915L136.402 55.2026L136.407 55.2004C136.875 55.005 139.845 53.8871 142.67 54.0093C144.077 54.0701 145.397 54.4361 146.365 55.3245C147.319 56.2008 147.993 57.6434 148 59.9911L129.889 149.512C129.773 149.78 128.895 151.71 127.034 153.206C126.035 154.008 124.758 154.682 123.163 154.914C121.569 155.145 119.629 154.939 117.296 153.938C116.372 153.54 114.492 152.325 111.958 150.537C109.44 148.759 106.314 146.442 102.919 143.872C96.1294 138.732 88.2738 132.587 82.0701 127.735L82.0654 127.731C78.137 124.659 74.8684 122.102 72.9566 120.65C86.9387 108.289 100.921 95.9284 114.893 83.5534L120.349 78.9912L114.406 82.9223ZM125.322 147.794L125.296 147.845C125.093 148.227 124.584 149.034 123.65 149.572C122.694 150.122 121.347 150.359 119.552 149.677L119.498 149.656L80.58 120.357L80.9422 120.037C91.8139 110.425 127.358 78.9927 129.168 77.331C130.053 76.5178 130.856 75.4655 131.216 74.3747C131.571 73.3019 131.497 72.2069 130.661 71.2157C129.835 70.2394 128.709 69.9386 127.497 70.0415C126.275 70.1452 124.998 70.661 123.965 71.28L123.962 71.2819L60.9753 110.611L37.4423 102.818L37.439 102.817C36.6337 102.535 36.0024 102.219 35.5674 101.873C35.1363 101.529 34.8411 101.106 34.8571 100.613C34.873 100.125 35.1909 99.7148 35.6352 99.3846C36.0834 99.0516 36.7209 98.7525 37.5237 98.4894L138.261 59.6313C138.448 59.5517 139.379 59.1708 140.341 58.9268C140.868 58.7932 141.443 58.6901 141.923 58.718C142.163 58.732 142.413 58.7804 142.626 58.902C142.854 59.0316 143.023 59.2369 143.087 59.5159L143.106 59.5981L125.322 147.794Z" fill="white"/>
</svg>
