<svg width="20" height="20" viewBox="0 0 20 20" fill="none" xmlns="http://www.w3.org/2000/svg">
<path d="M2.92951 2.92836C1.53082 4.32682 0.578254 6.10865 0.19227 8.0485C-0.193713 9.98835 0.00422526 11.9991 0.761054 13.8265C1.51788 15.6538 2.79961 17.2157 4.44413 18.3146C6.08866 19.4135 8.02212 20 10 20C11.9779 20 13.9113 19.4135 15.5559 18.3146C17.2004 17.2157 18.4821 15.6538 19.2389 13.8265C19.9958 11.9991 20.1937 9.98835 19.8077 8.0485C19.4217 6.10865 18.4692 4.32682 17.0705 2.92836C15.1952 1.05335 12.6519 0 10 0C7.34812 0 4.80482 1.05335 2.92951 2.92836ZM10.401 4.19472C10.8096 4.19472 11.2015 4.35704 11.4905 4.64599C11.7794 4.93493 11.9417 5.32682 11.9417 5.73545C11.9417 6.14408 11.7794 6.53597 11.4905 6.82491C11.2015 7.11386 10.8096 7.27618 10.401 7.27618C9.98976 7.27284 9.59661 7.10654 9.30779 6.81376C9.01896 6.52098 8.85803 6.12561 8.86028 5.71434C8.86362 5.30869 9.0277 4.92091 9.31652 4.63604C9.60535 4.35118 9.99535 4.19247 10.401 4.19472ZM12.5749 14.5155C12.5303 14.6485 12.4584 14.7707 12.3639 14.8743C12.108 15.1584 11.7956 15.3859 11.4467 15.5422C11.0977 15.6985 10.72 15.7801 10.3377 15.7819C9.9637 15.7924 9.5895 15.7712 9.21908 15.7186C8.60701 15.6341 7.82609 14.8743 7.93162 14.0723L8.18489 12.426C8.35374 11.4763 8.52258 10.5054 8.69143 9.55563C8.69143 9.49231 8.71254 9.42899 8.71254 9.36567C8.71254 8.96466 8.5859 8.81692 8.18489 8.77471C8.01448 8.75687 7.84532 8.72868 7.67835 8.69028C7.59593 8.66812 7.52366 8.61824 7.47369 8.54906C7.42372 8.47987 7.3991 8.39558 7.40397 8.31038C7.42507 8.14153 7.5306 8.036 7.74166 7.99379C7.86035 7.97561 7.98047 7.96855 8.10046 7.97268H11.0131C11.3719 7.97268 11.5829 8.14153 11.5829 8.50033C11.5791 8.79871 11.5437 9.09584 11.4774 9.38678C11.2875 10.4843 11.0764 11.5607 10.8864 12.6582C10.8231 13.017 10.7387 13.3758 10.6965 13.7346C10.679 13.9116 10.6933 14.0903 10.7387 14.2623C10.7592 14.3667 10.8185 14.4596 10.9046 14.5222C10.9907 14.5848 11.0973 14.6126 11.203 14.6C11.4005 14.5731 11.5927 14.5162 11.7729 14.4311C11.9093 14.3524 12.0502 14.2819 12.195 14.22C12.4483 14.1356 12.6382 14.2834 12.5749 14.5155Z" fill="#FF0033"/>
</svg>
