<svg width="25" height="22" viewBox="0 0 25 22" fill="none" xmlns="http://www.w3.org/2000/svg">
<path d="M14.4139 1.23944L15.9905 5.78404C16.2157 6.50704 17.004 7.02348 17.9049 7.02348H23.0851C24.9995 7.02348 25.7878 9.29578 24.2112 10.3286L20.0445 13.1174C19.3689 13.5305 19.031 14.3568 19.3689 15.1831L20.9454 19.7277C21.5085 21.3803 19.4815 22.8263 17.9049 21.7934L13.7382 19.0047C13.0626 18.5916 12.0491 18.5916 11.3734 19.0047L7.20671 21.6901C5.63013 22.723 3.60311 21.3803 4.16617 19.6244L5.74275 15.0798C5.96797 14.3568 5.74275 13.5305 5.06707 13.0141L0.787791 10.3286C-0.788786 9.29578 -0.000497546 7.02348 1.91392 7.02348H7.0941C7.995 7.02348 8.67067 6.50704 9.00851 5.78404L10.5851 1.23944C11.2608 -0.413146 13.8509 -0.413146 14.4139 1.23944Z" fill="#FF0033"/>
</svg>
