<svg width="22" height="22" viewBox="0 0 22 22" fill="none" xmlns="http://www.w3.org/2000/svg">
<path d="M21.0504 8.78341L20.1799 7.83377C19.8633 7.51723 19.705 7.12154 19.705 6.72586V5.45967C19.705 3.71867 18.2806 2.29421 16.5396 2.29421H15.2734C14.8777 2.29421 14.482 2.13593 14.1655 1.81939L13.2158 0.948882C11.9496 -0.238169 9.97122 -0.238169 8.70504 0.948882L7.83453 1.81939C7.51798 2.0568 7.1223 2.29421 6.72662 2.29421H5.46043C3.71942 2.29421 2.29496 3.71867 2.29496 5.45967V6.72586C2.29496 7.12154 2.13669 7.51723 1.82014 7.83377L0.94964 8.70428C-0.316547 9.97046 -0.316547 11.9489 0.94964 13.2151L1.82014 14.1647C2.13669 14.4813 2.29496 14.8769 2.29496 15.2726V16.5388C2.29496 18.2798 3.71942 19.7043 5.46043 19.7043H6.72662C7.1223 19.7043 7.51798 19.8626 7.83453 20.1791L8.70504 21.0496C9.97122 22.3158 11.9496 22.3158 13.2158 21.0496L14.1655 20.1791C14.482 19.8626 14.8777 19.7043 15.2734 19.7043H16.5396C18.2806 19.7043 19.705 18.2798 19.705 16.5388V15.2726C19.705 14.8769 19.8633 14.4813 20.1799 14.1647L21.0504 13.2942C22.3165 12.028 22.3165 9.97046 21.0504 8.78341ZM7.35971 7.27982C7.83453 6.805 8.70504 6.805 9.17986 7.27982C9.65468 7.75464 9.65468 8.62514 9.17986 9.09996C8.70504 9.57478 7.83453 9.57478 7.35971 9.09996C6.80576 8.62514 6.80576 7.83377 7.35971 7.27982ZM14.6403 14.6395C14.1655 15.1143 13.295 15.1143 12.8201 14.6395C12.3453 14.1647 12.3453 13.2942 12.8201 12.8194C13.295 12.3446 14.1655 12.3446 14.6403 12.8194C15.1151 13.2942 15.1942 14.1647 14.6403 14.6395ZM7.59712 15.5892C7.1223 15.2726 6.72662 14.7978 6.33094 14.323L14.4029 6.33018C14.8777 6.64672 15.2734 7.12154 15.6691 7.59636L7.59712 15.5892Z" fill="#FF0033"/>
</svg>
