<svg width="323" height="149" viewBox="0 0 323 149" fill="none" xmlns="http://www.w3.org/2000/svg">
<path d="M116.479 37.7676V149.001H90.2683V83.5696L57.731 107.676L26.2106 83.7992V149.001H0V37.7676L58.07 75.8785L116.479 37.7676Z" fill="white"/>
<path d="M213.751 77.83C213.751 99.9848 196.127 117.892 174.323 117.892C152.518 117.892 134.894 99.9848 134.894 77.83C134.894 55.6751 152.518 37.7676 174.323 37.7676C196.127 37.7676 213.751 55.6751 213.751 77.83ZM190.93 77.83C190.93 73.3531 189.236 69.1058 186.072 65.8916C182.909 62.6774 178.729 60.9556 174.323 60.9556C169.917 60.9556 165.736 62.6774 162.573 65.8916C159.41 69.1058 157.715 73.3531 157.715 77.83C157.715 82.3069 159.41 86.5542 162.573 89.7683C165.736 92.8677 169.917 94.7044 174.323 94.7044C178.729 94.7044 182.909 92.8677 186.072 89.7683C189.236 86.5542 190.93 82.3069 190.93 77.83Z" fill="white"/>
<path d="M213.751 126.273H134.894V149.002H213.751V126.273Z" fill="white"/>
<path d="M323 38.916C323 58.8898 322.887 83.5701 322.887 101.707C322.887 131.438 297.128 148.772 275.889 148.772C256.344 148.772 229.229 132.816 229.229 101.363C229.229 84.3736 229.342 59.4638 229.342 38.916H253.745L253.632 101.363C253.632 108.25 256.005 113.646 260.863 117.778C265.721 122.025 271.934 123.977 275.776 123.977C278.148 123.977 280.86 123.288 283.345 122.485C286.169 121.337 289.107 119.73 291.253 117.663C293.4 115.597 295.321 113.416 296.45 110.776C297.806 108.021 298.258 105.151 298.258 101.707L298.371 38.916H323Z" fill="white"/>
<path d="M276.181 37.422L294.635 18.6719L276.181 -0.0782624L257.728 18.6719L276.181 37.422Z" fill="white"/>
</svg>
