<svg width="474" height="219" viewBox="0 0 474 219" fill="none" xmlns="http://www.w3.org/2000/svg">
<path d="M170.932 55.5098V219.001H132.468V122.83L84.7198 158.261L38.4638 123.167V219.001H0V55.5098L85.2172 111.525L170.932 55.5098Z" fill="white"/>
<path d="M313.676 114.393C313.676 146.957 287.813 173.277 255.815 173.277C223.817 173.277 197.953 146.957 197.953 114.393C197.953 81.8303 223.817 55.5098 255.815 55.5098C287.813 55.5098 313.676 81.8303 313.676 114.393ZM280.186 114.393C280.186 107.813 277.699 101.571 273.057 96.8464C268.415 92.1222 262.281 89.5914 255.815 89.5914C249.349 89.5914 243.214 92.1222 238.572 96.8464C233.93 101.571 231.443 107.813 231.443 114.393C231.443 120.974 233.93 127.216 238.572 131.94C243.214 136.496 249.349 139.195 255.815 139.195C262.281 139.195 268.415 136.496 273.057 131.94C277.699 127.216 280.186 120.974 280.186 114.393Z" fill="white"/>
<path d="M313.676 185.596H197.953V219.002H313.676V185.596Z" fill="white"/>
<path d="M474.002 57.1989C474.002 86.5564 473.836 122.831 473.836 149.489C473.836 193.188 436.036 218.665 404.867 218.665C376.185 218.665 336.395 195.213 336.395 148.983C336.395 124.012 336.56 87.4 336.56 57.1989H372.371L372.206 148.983C372.206 159.106 375.687 167.036 382.816 173.11C389.945 179.353 399.064 182.221 404.701 182.221C408.183 182.221 412.162 181.209 415.809 180.028C419.954 178.341 424.264 175.979 427.414 172.942C430.565 169.905 433.383 166.699 435.041 162.818C437.03 158.769 437.694 154.551 437.694 149.489L437.859 57.1989H474.002Z" fill="white"/>
<path d="M405.298 55.0023L432.379 27.4433L405.298 -0.115599L378.218 27.4433L405.298 55.0023Z" fill="#FF0033"/>
</svg>
