<svg width="512" height="512" viewBox="0 0 512 512" fill="none" xmlns="http://www.w3.org/2000/svg">
<circle cx="256" cy="256" r="256" fill="#A2A2A2"/>
<path d="M157.976 267.893C149.72 284.16 159.094 291.936 180.482 305.22C198.665 316.479 223.784 320.597 239.919 322.244C233.306 328.616 263.61 299.402 176.334 383.547C157.828 401.326 187.621 429.852 206.113 412.45L256.176 364.053C275.341 382.534 293.713 400.246 306.238 412.518C324.744 429.987 354.523 401.704 336.219 383.614C334.846 382.305 268.378 318.396 272.432 322.311C288.77 320.664 313.511 316.304 331.479 305.288L331.465 305.274C352.853 291.923 362.227 284.16 354.092 267.893C349.176 258.659 335.923 250.937 318.279 264.288C318.279 264.288 294.453 282.581 256.028 282.581C217.588 282.581 193.776 264.288 193.776 264.288C176.145 250.869 162.838 258.659 157.976 267.893Z" fill="white"/>
<path d="M256.001 257.916C302.844 257.916 341.095 221.224 341.095 176.053C341.095 130.693 302.844 94 256.001 94C209.143 94 170.893 130.693 170.893 176.053C170.893 221.224 209.143 257.916 256.001 257.916ZM256.001 135.566C279.018 135.566 297.794 153.67 297.794 176.053C297.794 198.247 279.018 216.35 256.001 216.35C232.983 216.35 214.208 198.247 214.208 176.053C214.194 153.656 232.969 135.566 256.001 135.566Z" fill="white"/>
</svg>
