<svg width="15" height="16" viewBox="0 0 15 16" fill="none" xmlns="http://www.w3.org/2000/svg">
<path d="M8.82578 10.1844C7.82111 9.56582 6.92807 8.72525 6.06693 7.6785C5.63636 7.13927 5.34931 6.67933 5.12605 6.20354L5.11011 6.15596L5.15795 6.12424C5.445 5.87048 5.70015 5.60087 5.9553 5.34711C6.05098 5.25195 6.14667 5.15679 6.24235 5.06163C6.56129 4.74443 6.73671 4.37966 6.73671 4.01488C6.73671 3.65011 6.57724 3.28533 6.24235 2.96813L5.33337 2.06412C5.22174 1.9531 5.12605 1.85794 5.03037 1.74693C4.82306 1.54075 4.61575 1.33457 4.40844 1.14425C4.08949 0.811196 3.75461 0.668457 3.37188 0.668457C2.98915 0.668457 2.65426 0.811196 2.31937 1.12839L1.18713 2.28616C0.788451 2.68266 0.549245 3.17431 0.501404 3.74527C0.501404 3.84042 0.501404 3.95144 0.501404 4.06246C0.501404 4.68099 0.644927 5.33125 0.947922 6.12424C1.47418 7.55163 2.27153 8.88385 3.46756 10.3112C4.9028 12.0082 6.64103 13.3722 8.61846 14.3079C9.38392 14.6727 10.3726 15.085 11.4889 15.1643C11.5527 15.1643 11.6325 15.1643 11.6962 15.1643C12.4298 15.1643 13.0358 14.9106 13.5142 14.3872L13.5302 14.3714C13.7056 14.1652 13.8969 13.9749 14.1202 13.7687C14.2637 13.6259 14.4073 13.4832 14.5508 13.3405C14.8378 13.0233 14.9973 12.6744 14.9973 12.3096C14.9973 11.9448 14.8378 11.58 14.5189 11.2628L12.685 9.42309C12.382 9.10589 12.0311 8.96315 11.6644 8.96315C11.2976 8.96315 10.9308 9.12175 10.6278 9.43895L9.5115 10.5491L9.46366 10.5016C9.36798 10.454 9.27229 10.4064 9.17661 10.3588C9.04904 10.3112 8.93741 10.2637 8.82578 10.1844ZM8.87362 10.9298C9.00119 10.9932 9.11282 11.0408 9.2085 11.1042C9.2085 11.1042 9.20851 11.1042 9.22445 11.1042L9.2404 11.1201C9.35203 11.1677 9.43176 11.1994 9.5115 11.1994C9.62313 11.1994 9.71881 11.1677 9.7826 11.1201C9.84639 11.0725 9.89423 11.0249 9.91018 11.0091L11.0424 9.88302C11.2338 9.6927 11.4251 9.59754 11.6484 9.6134C11.776 9.6134 11.8876 9.66098 11.9833 9.70856C12.079 9.75614 12.1587 9.83544 12.2225 9.88302L14.0564 11.6752C14.2637 11.8814 14.3435 12.0875 14.3435 12.2779C14.3435 12.5316 14.1999 12.7537 14.0405 12.9122C13.9129 13.055 13.7853 13.1819 13.6418 13.3087C13.4345 13.5149 13.2112 13.7211 13.0039 13.959C12.6371 14.3396 12.2066 14.53 11.6484 14.53C11.6006 14.53 11.5368 14.53 11.4889 14.53C10.4843 14.4665 9.54339 14.0859 8.84172 13.7528C6.94402 12.8488 5.28553 11.5483 3.89813 9.91474C2.76589 8.56665 1.98448 7.28201 1.49012 5.93392C1.21902 5.22023 1.09145 4.61756 1.09145 4.06246C1.09145 3.9673 1.09145 3.888 1.10739 3.8087C1.15523 3.36463 1.33065 3.01571 1.6177 2.71438L2.74994 1.58833C2.94131 1.41387 3.14862 1.31871 3.33998 1.31871C3.53135 1.31871 3.75461 1.41387 3.91408 1.58833C4.13734 1.77865 4.3287 1.96896 4.53601 2.17514C4.64764 2.28616 4.74332 2.38132 4.85495 2.49234L5.76394 3.39635C5.97125 3.60253 6.05098 3.79284 6.05098 3.99902C6.05098 4.2052 5.93936 4.41138 5.76394 4.6017C5.66826 4.69686 5.57257 4.79201 5.47689 4.88717C5.18984 5.17265 4.93469 5.44227 4.64764 5.69602L4.6317 5.71188C4.48817 5.85462 4.45628 5.9815 4.45628 6.10838C4.45628 6.18768 4.47222 6.26698 4.50412 6.33042V6.34628C4.74333 6.90137 5.06227 7.42475 5.55663 8.05914C6.46561 9.18519 7.42243 10.0258 8.47494 10.7077C8.60252 10.787 8.74604 10.8663 8.87362 10.9298Z" fill="black"/>
</svg>
