<svg width="201" height="200" viewBox="0 0 201 200" fill="none" xmlns="http://www.w3.org/2000/svg">
<path d="M171.089 29.2893C210.142 68.3417 210.142 131.658 171.089 170.711C132.037 209.763 68.7202 209.763 29.6677 170.711C-9.38469 131.658 -9.38469 68.3417 29.6677 29.2893C68.7202 -9.76311 132.037 -9.76311 171.089 29.2893Z" fill="#E2E2E2"/>
<path fill-rule="evenodd" clip-rule="evenodd" d="M92.495 73.3485L92.4946 73.349C91.7575 74.0861 91.0174 74.8262 90.3006 75.5668C88.2763 77.6388 86.1886 79.75 83.9607 81.7645L83.722 81.9804L83.8497 82.2758C85.4663 86.0157 87.7777 89.6707 91.1994 94.0018L91.2016 94.0045L91.2038 94.0072C97.9712 102.305 105.058 108.772 112.871 113.733C113.679 114.247 114.579 114.709 115.532 115.185C116.296 115.567 117.094 115.966 117.867 116.411L118.165 116.583L126.937 107.811C129.37 105.378 132.191 104.107 135.101 104.107C138.01 104.107 140.804 105.377 143.163 107.828L143.166 107.831L143.169 107.835L157.487 122.152C159.976 124.642 161.197 127.492 161.203 130.338C161.208 133.184 159.998 136.078 157.528 138.653L157.528 138.653C156.438 139.79 155.3 140.905 154.182 141.974L154.18 141.977C154.066 142.088 153.952 142.198 153.838 142.308L153.838 142.309C152.321 143.78 150.852 145.204 149.549 146.777L149.516 146.817L149.503 146.844C149.501 146.845 149.5 146.847 149.498 146.848L149.497 146.85C149.492 146.855 149.488 146.859 149.482 146.865L149.475 146.872L149.469 146.878C145.674 150.999 141.031 152.999 135.22 152.999C134.704 152.999 134.209 152.977 133.682 152.955L133.629 152.952L133.624 152.952C124.877 152.385 117.01 149.083 111.09 146.277C95.5687 138.753 81.9693 128.121 70.6702 114.614C61.3579 103.425 55.0978 92.9632 50.9497 81.7041L50.9493 81.7031C48.2486 74.4301 47.2187 68.4466 47.6645 62.8374C48.0369 58.3942 49.8246 54.5627 52.9899 51.3974L61.896 42.4913C64.375 40.1297 67.1731 38.9265 70.0633 38.9265C72.9796 38.9265 75.7531 40.1314 78.1346 42.4668L78.1392 42.4712L78.1439 42.4756C79.7545 43.9678 81.3914 45.6283 82.9631 47.2475L83.0293 47.3157C83.8157 48.1252 84.5839 48.9161 85.3976 49.7298L92.4969 56.8291L92.4984 56.8305C95.0273 59.3362 96.32 62.2045 96.32 65.0879C96.32 67.9696 95.0048 70.8388 92.4969 73.3466L92.495 73.3485ZM52.5822 63.2631L52.5824 63.2608C52.8777 59.9888 54.1378 57.2459 56.5001 54.8837L65.3651 46.0187L65.3679 46.0159C66.8103 44.6233 68.4413 43.8649 70.0633 43.8649C71.6646 43.8649 73.2479 44.626 74.6643 46.0642C76.0537 47.3504 77.3717 48.6905 78.7489 50.0909C78.9605 50.3061 79.1735 50.5227 79.3884 50.7408L79.3895 50.7419L79.3906 50.7431C79.7943 51.1586 80.2041 51.5743 80.6182 51.9944L80.6275 52.0038L80.6288 52.0051C81.0383 52.4206 81.452 52.8402 81.8659 53.2659L81.8681 53.2682L88.963 60.363C90.4873 61.8873 91.3339 63.4956 91.3339 65.1355C91.3339 66.7754 90.4873 68.3837 88.963 69.908C88.5952 70.2758 88.2272 70.6497 87.8577 71.0252L87.8571 71.0258C87.4885 71.4003 87.1184 71.7764 86.7482 72.1466C86.5808 72.3159 86.4141 72.4845 86.248 72.6525C84.2231 74.701 82.2847 76.6619 80.1626 78.5416L80.1617 78.5425L80.1615 78.5428L80.1612 78.543L80.1609 78.5433L80.1607 78.5435L80.1599 78.5443L80.1597 78.5446L80.1594 78.5448L80.1592 78.5451L80.1589 78.5453L80.1576 78.5466L80.1574 78.5469L80.1571 78.5471L80.1569 78.5474L80.1566 78.5476L80.1564 78.5479L80.1561 78.5481L80.1559 78.5484L80.1556 78.5486L80.1505 78.5537L80.1502 78.554L80.1495 78.5547L80.1493 78.5549L80.1443 78.5599L80.1441 78.5601L80.1439 78.5604L80.1436 78.5606L80.1434 78.5608L80.1432 78.561L80.1429 78.5613L80.1427 78.5615L80.142 78.5622L80.1418 78.5624L80.1416 78.5627L80.1413 78.5629L80.1411 78.5631L80.1409 78.5633L80.1384 78.5658L80.1382 78.5661L80.1379 78.5663L80.1357 78.5685L80.1355 78.5687L80.1353 78.5689L80.1342 78.5701L80.134 78.5703L80.1337 78.5705L80.1326 78.5716L80.1324 78.5718L80.1322 78.572L80.1307 78.5736L80.1305 78.5738L80.1302 78.574L80.1281 78.5761L80.1279 78.5764L80.1277 78.5766L80.1274 78.5768L80.1272 78.577L80.127 78.5772L80.1268 78.5774L80.1266 78.5776L80.1264 78.5779L80.1262 78.5781L80.1259 78.5783L80.1257 78.5785L80.1255 78.5787L80.1251 78.5791L80.1249 78.5794L80.1247 78.5796L80.1232 78.5811L80.123 78.5813L80.1227 78.5815L80.1221 78.5821L80.1219 78.5823L80.1217 78.5825L80.1215 78.5827L80.1213 78.583L80.1211 78.5832L80.1194 78.5849L80.1192 78.5851L80.1189 78.5853L80.1175 78.5867L80.1173 78.587L80.1171 78.5872L80.1166 78.5876L80.1164 78.5878L80.1162 78.588L80.1154 78.5888L80.1152 78.5891L80.115 78.5893L80.1139 78.5903L80.1137 78.5905L80.1135 78.5907L80.1133 78.5909L80.112 78.5922L80.1118 78.5924L80.1116 78.5926L80.1114 78.5928L80.1104 78.5939L80.1101 78.5941L80.1099 78.5943L80.1091 78.5951L80.1089 78.5953L80.1087 78.5955L80.1083 78.596L80.108 78.5962L80.1078 78.5964L80.1064 78.5979L80.1062 78.5981L80.1059 78.5983L80.1043 78.6L80.1041 78.6002L80.1038 78.6004L80.1036 78.6006L80.1034 78.6008L80.1032 78.601L80.1026 78.6017L80.1024 78.6019L80.1021 78.6021L80.1007 78.6036L80.1004 78.6038L80.1002 78.604L80.0998 78.6044L80.0996 78.6046L80.0994 78.6048L80.0992 78.6051L80.099 78.6053L80.0987 78.6055L80.0985 78.6057L80.0983 78.6059L80.0981 78.6061L80.0979 78.6063L80.0977 78.6066L80.0975 78.6068L80.0972 78.607L80.0951 78.6091L80.0949 78.6094L80.0946 78.6096L80.0931 78.6111L80.0929 78.6113L80.0927 78.6115L80.0916 78.6126L80.0914 78.6129L80.0911 78.6131L80.09 78.6142L80.0898 78.6144L80.0896 78.6146L80.0874 78.6169L80.0871 78.6171L80.0869 78.6173L80.0844 78.6198L80.0842 78.62L80.084 78.6202L80.0837 78.6205L80.0835 78.6207L80.0833 78.6209L80.0826 78.6216L80.0824 78.6219L80.0821 78.6221L80.0819 78.6223L80.0817 78.6225L80.0814 78.6228L80.0812 78.623L80.081 78.6232L80.076 78.6282L80.0758 78.6284L80.0751 78.6291L80.0748 78.6294L80.0697 78.6345L80.0694 78.6348L80.0692 78.635L80.0689 78.6353L80.0687 78.6355L80.0684 78.6358L80.0682 78.636L80.0679 78.6363L80.0677 78.6365L80.0664 78.6378L80.0662 78.6381L80.0659 78.6383L80.0657 78.6386L80.0654 78.6388L80.0646 78.6396L80.0644 78.6399L80.0641 78.6401L80.0639 78.6404L80.0636 78.6406L80.0618 78.6425L80.0615 78.6427L80.061 78.6432L80.0607 78.6435L80.0604 78.6438L80.0602 78.644L80.0599 78.6443L80.0588 78.6454L80.0586 78.6456L80.0583 78.6459L80.058 78.6462L80.0578 78.6465L80.0567 78.6475L80.0564 78.6478L80.0561 78.6481L80.0553 78.6489L80.055 78.6492L80.0548 78.6495L80.0545 78.6497L80.0542 78.65L80.0531 78.6511C79.1284 79.5759 78.7624 80.4506 78.6655 81.2382C78.5673 82.0373 78.7405 82.7905 78.9704 83.4803C78.9777 83.502 78.985 83.5205 78.9971 83.5508L78.9982 83.5535C79.0084 83.5791 79.0221 83.6133 79.0362 83.6541C80.8503 88.0086 83.3735 92.1619 87.3279 97.1347C94.4481 105.916 101.94 112.718 110.184 117.954L110.186 117.955L110.188 117.956C111.018 118.497 111.894 118.94 112.763 119.379L112.765 119.38C112.94 119.469 113.116 119.558 113.291 119.647C114.235 120.119 115.128 120.578 115.931 121.087C115.981 121.112 116.024 121.137 116.059 121.157L116.062 121.159C116.105 121.183 116.137 121.201 116.171 121.219L116.174 121.22L116.176 121.221C116.906 121.597 117.598 121.767 118.281 121.767C119.992 121.767 121.117 120.675 121.514 120.278L130.423 111.368C131.859 109.933 133.468 109.117 135.101 109.117C137.093 109.117 138.679 110.34 139.641 111.374L154 125.71L154 125.71C155.486 127.196 156.271 128.794 156.258 130.459C156.245 132.12 155.439 133.754 153.937 135.318C152.929 136.398 151.875 137.428 150.755 138.5C150.686 138.567 150.618 138.634 150.549 138.701L150.486 138.761C148.899 140.302 147.279 141.874 145.808 143.635L145.801 143.644L145.793 143.652C142.964 146.703 139.578 148.132 135.244 148.132C134.824 148.132 134.382 148.107 133.978 148.084L133.976 148.083C126.072 147.577 118.741 144.496 113.276 141.894L113.274 141.893C98.3973 134.694 85.3393 124.482 74.5072 111.521L74.5063 111.52C65.5949 100.793 59.5863 90.792 55.6106 80.0627C53.1429 73.474 52.194 68.1408 52.582 63.2655L52.5822 63.2631Z" fill="white"/>
</svg>
