<svg width="23" height="24" viewBox="0 0 23 24" fill="none" xmlns="http://www.w3.org/2000/svg">
<path d="M22.2006 17.3766L19.3475 14.3896C18.847 13.8442 18.2714 13.5844 17.6457 13.5844C17.02 13.5844 16.4193 13.8701 15.9188 14.3896L14.242 16.1299C14.0918 16.0519 13.9416 15.974 13.7915 15.8961C13.5913 15.7922 13.4161 15.7143 13.2659 15.6104C11.7142 14.5974 10.3127 13.2468 8.96123 11.5325C8.2855 10.6494 7.83501 9.92208 7.50965 9.14286C7.96014 8.72727 8.36058 8.28571 8.76101 7.87013C8.91118 7.71429 9.06134 7.55844 9.2115 7.4026C9.73707 6.85714 10.0124 6.23377 10.0124 5.58442C10.0124 4.93506 9.73707 4.31169 9.2115 3.76623L7.78495 2.28571C7.60976 2.1039 7.4596 1.94805 7.30944 1.76623C6.98408 1.42857 6.65873 1.09091 6.33337 0.779221C5.83283 0.25974 5.25721 0 4.63153 0C4.00585 0 3.43022 0.25974 2.90465 0.779221L1.12772 2.67532C0.47701 3.35065 0.101602 4.18182 0.02652 5.14286C-0.0735888 6.33766 0.151656 7.58442 0.702254 9.11688C1.52815 11.4805 2.80454 13.6623 4.68158 16C6.95906 18.8052 9.68702 21.039 12.8154 22.5974C14.0167 23.1948 15.5934 23.8701 17.3704 24C17.4705 24 17.5956 24 17.6957 24C18.872 24 19.8731 23.5584 20.6489 22.6753L20.674 22.6493C20.9493 22.3117 21.2496 22 21.6 21.6623C21.8252 21.4286 22.0505 21.1948 22.2757 20.961C23.2518 19.8701 23.2518 18.4416 22.2006 17.3766ZM21.2996 20.1039C21.0994 20.3377 20.8992 20.5455 20.674 20.7532C20.3486 21.0909 19.9982 21.4286 19.6729 21.8182C19.1223 22.4156 18.4966 22.7013 17.6457 22.7013C17.5706 22.7013 17.4705 22.7013 17.3954 22.7013C15.8437 22.5974 14.3921 21.974 13.2909 21.4286C10.3377 19.9481 7.7349 17.8442 5.58256 15.1688C3.80563 12.961 2.60432 10.8831 1.82848 8.67533C1.35296 7.32468 1.15274 6.25974 1.22783 5.24675C1.27788 4.5974 1.52815 4.05195 1.97864 3.58442L3.75557 1.74026C4.03087 1.48052 4.3312 1.32468 4.6065 1.32468C4.8818 1.32468 5.18212 1.45455 5.4324 1.74026C5.75775 2.05195 6.05808 2.36364 6.38343 2.7013C6.55862 2.88312 6.70878 3.03896 6.88397 3.22078L8.31052 4.7013C8.61085 5.01299 8.73599 5.2987 8.73599 5.58442C8.73599 5.87013 8.58582 6.18182 8.31052 6.46753C8.16036 6.62338 8.0102 6.77922 7.86003 6.93507C7.40954 7.4026 7.00911 7.84416 6.55862 8.25974L6.53359 8.28571C6.13316 8.7013 6.18321 9.11688 6.28332 9.42857C6.28332 9.45455 6.28332 9.45455 6.30835 9.48052C6.68376 10.3896 7.1843 11.2727 7.98517 12.3117C9.41172 14.1558 10.9384 15.5584 12.5902 16.6753C12.7904 16.8052 13.0156 16.9351 13.2159 17.039C13.4161 17.1429 13.5913 17.2208 13.7414 17.3247C13.7665 17.3247 13.7665 17.3507 13.7915 17.3507C13.9667 17.4286 14.1168 17.4805 14.267 17.4805C14.6674 17.4805 14.9177 17.2208 14.9928 17.1169L16.7697 15.2727C17.045 14.987 17.3203 14.8571 17.6206 14.8571C17.971 14.8571 18.2463 15.0909 18.4465 15.2727L21.3247 18.2597C22.0254 19.013 21.7001 19.6623 21.2996 20.1039Z" fill="white"/>
</svg>
