<svg width="16" height="16" viewBox="0 0 16 16" fill="none" xmlns="http://www.w3.org/2000/svg">
<path d="M15.4435 11.5844L13.4587 9.59307C13.1105 9.22944 12.7101 9.05628 12.2748 9.05628C11.8396 9.05628 11.4217 9.24675 11.0735 9.59307L9.90704 10.7532C9.80257 10.7013 9.69811 10.6494 9.59365 10.5974C9.45437 10.5281 9.3325 10.4762 9.22804 10.4069C8.1486 9.7316 7.17363 8.83117 6.23348 7.68831C5.7634 7.09957 5.45002 6.61472 5.22368 6.09524C5.53707 5.81818 5.81563 5.52381 6.09419 5.24675C6.19866 5.14286 6.30312 5.03896 6.40758 4.93506C6.77319 4.57143 6.96471 4.15584 6.96471 3.72294C6.96471 3.29004 6.77319 2.87446 6.40758 2.51082L5.4152 1.52381C5.29332 1.4026 5.18886 1.2987 5.0844 1.17749C4.85807 0.952381 4.63173 0.727273 4.4054 0.51948C4.0572 0.17316 3.65676 0 3.22151 0C2.78625 0 2.38582 0.17316 2.0202 0.51948L0.784074 1.78355C0.331408 2.23377 0.0702548 2.78788 0.0180241 3.42857C-0.0516168 4.22511 0.105075 5.05628 0.4881 6.07792C1.06264 7.65368 1.95056 9.10822 3.25633 10.6667C4.84066 12.5368 6.73837 14.026 8.91465 15.0649C9.75034 15.4632 10.8472 15.9134 12.0833 16C12.153 16 12.24 16 12.3096 16C13.1279 16 13.8243 15.7056 14.3641 15.1169L14.3815 15.0996C14.573 14.8745 14.7819 14.6667 15.0256 14.4416C15.1823 14.2857 15.339 14.1299 15.4957 13.974C16.1747 13.2468 16.1747 12.2944 15.4435 11.5844ZM14.8167 13.4026C14.6774 13.5584 14.5382 13.697 14.3815 13.8355C14.1551 14.0606 13.9114 14.2857 13.6851 14.5455C13.302 14.9437 12.8668 15.1342 12.2748 15.1342C12.2226 15.1342 12.153 15.1342 12.1007 15.1342C11.0213 15.0649 10.0115 14.6494 9.24545 14.2857C7.19104 13.2987 5.38037 11.8961 3.8831 10.1126C2.64697 8.64069 1.81128 7.25541 1.27156 5.78355C0.940766 4.88312 0.801484 4.17316 0.853715 3.49784C0.888536 3.06493 1.06264 2.7013 1.37602 2.38961L2.61215 1.16017C2.80366 0.987013 3.01258 0.883117 3.2041 0.883117C3.39561 0.883117 3.60453 0.969697 3.77863 1.16017C4.00497 1.36797 4.21389 1.57576 4.44022 1.80087C4.56209 1.92208 4.66656 2.02597 4.78843 2.14719L5.78081 3.1342C5.98973 3.34199 6.07679 3.53247 6.07679 3.72294C6.07679 3.91342 5.97232 4.12121 5.78081 4.31169C5.67635 4.41558 5.57189 4.51948 5.46743 4.62338C5.15404 4.93506 4.87548 5.22944 4.56209 5.50649L4.54468 5.52381C4.26612 5.80087 4.30094 6.07792 4.37058 6.28571C4.37058 6.30303 4.37058 6.30303 4.38799 6.32035C4.64915 6.92641 4.99735 7.51515 5.55448 8.20779C6.54686 9.43723 7.60888 10.3723 8.75796 11.1169C8.89724 11.2035 9.05393 11.29 9.19322 11.3593C9.3325 11.4286 9.45437 11.4805 9.55883 11.5498C9.57624 11.5498 9.57624 11.5671 9.59365 11.5671C9.71552 11.619 9.81998 11.6537 9.92445 11.6537C10.203 11.6537 10.3771 11.4805 10.4293 11.4113L11.6655 10.1818C11.857 9.99134 12.0485 9.90476 12.2574 9.90476C12.5012 9.90476 12.6927 10.0606 12.832 10.1818L14.8341 12.1732C15.3216 12.6753 15.0953 13.1082 14.8167 13.4026Z" fill="white"/>
</svg>
