<svg width="11" height="16" viewBox="0 0 11 16" fill="none" xmlns="http://www.w3.org/2000/svg">
<path d="M10.1117 5.68626C10.1117 6.32024 9.81967 7.21174 9.35093 8.22006C8.88662 9.21886 8.26534 10.2986 7.64081 11.2971C7.0168 12.2948 6.39238 13.207 5.92374 13.87C5.6895 14.2014 5.49438 14.4703 5.35794 14.6561C5.35318 14.6626 5.34848 14.669 5.34386 14.6753C5.33924 14.669 5.33454 14.6626 5.32977 14.6561C5.19334 14.4703 4.99821 14.2014 4.76398 13.87C4.29534 13.207 3.67092 12.2948 3.04691 11.2971C2.42237 10.2986 1.80109 9.21886 1.33678 8.22006C0.868045 7.21174 0.57605 6.32024 0.57605 5.68626C0.57605 3.05308 2.71067 0.918457 5.34386 0.918457C7.97705 0.918457 10.1117 3.05308 10.1117 5.68626Z" stroke="black" stroke-width="0.5"/>
<circle cx="5.34381" cy="5.68634" r="1.25445" fill="black"/>
</svg>
