<svg width="231" height="231" viewBox="0 0 231 231" fill="none" xmlns="http://www.w3.org/2000/svg">
<mask id="mask0" style="mask-type:alpha" maskUnits="userSpaceOnUse" x="0" y="0" width="231" height="231">
<path d="M231 115.5C231 51.6868 179.335 0 115.55 0C51.7639 0 0 51.6868 0 115.5C0 179.313 51.7639 231 115.55 231C179.335 231 231 179.313 231 115.5ZM163.935 115.5C163.935 128.422 158.968 140.648 149.728 149.792C140.587 159.036 128.366 164.006 115.45 164.006C102.534 164.006 90.3135 159.036 81.1729 149.792C72.0323 140.548 66.9652 128.422 66.9652 115.5C66.9652 102.578 71.9329 90.3524 81.1729 81.2078C90.3135 72.262 102.534 66.994 115.45 66.994C128.366 66.994 140.587 72.262 149.728 81.2078C158.968 90.3524 163.935 102.479 163.935 115.5Z" fill="#FF0033"/>
</mask>
<g mask="url(#mask0)">
<rect width="259.241" height="165.828" transform="matrix(1 0 0 -1 -13.7588 241.792)" fill="#FF0033"/>
</g>
</svg>
