<svg width="342" height="342" viewBox="0 0 342 342" fill="none" xmlns="http://www.w3.org/2000/svg">
<mask id="mask0" style="mask-type:alpha" maskUnits="userSpaceOnUse" x="0" y="0" width="342" height="342">
<path d="M341.786 171.467C341.786 265.685 265.505 342 171.327 342C77.1484 342 0.720215 265.685 0.720215 171.467C0.720215 77.2479 77.1484 0.933594 171.327 0.933594C265.505 0.933594 341.786 77.2479 341.786 171.467ZM242.767 171.467C242.767 152.388 235.432 134.337 221.79 120.835C208.294 107.187 190.25 99.8487 171.18 99.8487C152.11 99.8487 134.066 107.187 120.57 120.835C107.074 134.484 99.5927 152.388 99.5927 171.467C99.5927 190.545 106.927 208.597 120.57 222.098C134.066 235.307 152.11 243.085 171.18 243.085C190.25 243.085 208.294 235.307 221.79 222.098C235.432 208.597 242.767 190.692 242.767 171.467Z" fill="#FF0033"/>
</mask>
<g mask="url(#mask0)">
<rect x="-19.594" y="-14.104" width="382.764" height="244.841" fill="#FF0033"/>
</g>
</svg>
