<svg width="342" height="342" viewBox="0 0 342 342" fill="none" xmlns="http://www.w3.org/2000/svg">
<mask id="mask0_8_2227" style="mask-type:alpha" maskUnits="userSpaceOnUse" x="0" y="0" width="342" height="342">
<path d="M341.787 171.467C341.787 265.685 265.505 342 171.327 342C77.1489 342 0.720703 265.685 0.720703 171.467C0.720703 77.2479 77.1489 0.933594 171.327 0.933594C265.505 0.933594 341.787 77.2479 341.787 171.467ZM242.768 171.467C242.768 152.388 235.433 134.337 221.79 120.835C208.294 107.187 190.251 99.8487 171.18 99.8487C152.11 99.8487 134.067 107.187 120.571 120.835C107.075 134.484 99.5932 152.388 99.5932 171.467C99.5932 190.545 106.928 208.597 120.571 222.098C134.067 235.307 152.11 243.085 171.18 243.085C190.251 243.085 208.294 235.307 221.79 222.098C235.433 208.597 242.768 190.692 242.768 171.467Z" fill="#FF0033"/>
</mask>
<g mask="url(#mask0_8_2227)">
<rect x="-19.5938" y="-15.1035" width="382.764" height="244.841" fill="#FF0033"/>
</g>
</svg>
