<svg width="17" height="16" viewBox="0 0 17 16" fill="none" xmlns="http://www.w3.org/2000/svg">
<path d="M14.0447 10.2255C13.6518 10.2244 13.2627 10.3014 12.9008 10.4518C12.5388 10.6022 12.2115 10.8229 11.9384 11.1007L5.84894 8.2991C5.84894 8.19985 5.84894 8.1006 5.84894 7.99684C5.84894 7.89308 5.84894 7.79383 5.84894 7.69458L11.9384 4.89302C12.4128 5.37235 13.0419 5.67462 13.7181 5.74808C14.3942 5.82154 15.0753 5.66161 15.6447 5.29568C16.214 4.92976 16.6363 4.3806 16.8391 3.74225C17.0419 3.10391 17.0127 2.41611 16.7564 1.79663C16.5001 1.17716 16.0327 0.66456 15.4342 0.346624C14.8358 0.0286867 14.1435 -0.0748054 13.4759 0.0538716C12.8084 0.182549 12.2071 0.535389 11.7751 1.05196C11.3431 1.56854 11.1072 2.21671 11.1078 2.88546C11.1078 2.98922 11.1078 3.08847 11.1078 3.18772L5.0367 5.98928C4.63021 5.57746 4.10794 5.29427 3.53676 5.17599C2.96559 5.0577 2.3715 5.10969 1.83056 5.3253C1.28961 5.54091 0.826436 5.91033 0.500322 6.38627C0.174209 6.8622 0 7.42299 0 7.99684C0 8.57068 0.174209 9.13147 0.500322 9.60741C0.826436 10.0833 1.28961 10.4528 1.83056 10.6684C2.3715 10.884 2.96559 10.936 3.53676 10.8177C4.10794 10.6994 4.63021 10.4162 5.0367 10.0044L11.1262 12.806C11.1262 12.9052 11.1262 13.0045 11.1262 13.1082C11.1253 13.6795 11.2968 14.2381 11.6189 14.7135C11.9411 15.1889 12.3994 15.5597 12.936 15.7789C13.4726 15.9981 14.0632 16.056 14.6332 15.9451C15.2032 15.8342 15.727 15.5595 16.1382 15.1559C16.5494 14.7523 16.8295 14.2379 16.9432 13.6777C17.0569 13.1175 16.999 12.5367 16.7769 12.0089C16.5547 11.481 16.1783 11.0298 15.6952 10.7124C15.2122 10.3949 14.6442 10.2255 14.0631 10.2255H14.0447Z" fill="#FF0033"/>
</svg>
