<svg width="33" height="34" viewBox="0 0 33 34" fill="none" xmlns="http://www.w3.org/2000/svg">
<path d="M16.48 0C7.37789 0 0 7.60146 0 16.9793C0 26.3572 7.37789 33.9587 16.48 33.9587C25.582 33.9587 32.9599 26.3572 32.9599 16.9793C32.9599 7.60146 25.6221 0 16.48 0ZM21.3317 9.7497C20.5298 9.7497 19.7679 9.7497 18.966 9.7497C18.4848 9.70838 17.9635 10.1215 17.8834 10.6173C17.8834 11.4848 17.8834 12.3937 17.8834 13.2612C19.0462 13.2612 20.1689 13.2612 21.3317 13.2612C21.2515 14.5419 21.0911 15.8226 20.8906 17.062C19.8882 17.062 18.8457 17.062 17.8433 17.062C17.8433 20.8214 17.8433 24.6221 17.8433 28.3815C16.3196 28.3815 14.836 28.3815 13.3123 28.3815C13.2722 24.6221 13.3123 20.8214 13.3123 17.062C12.5905 17.062 11.8287 17.062 11.1069 17.062C11.1069 15.7813 11.1069 14.5419 11.1069 13.2612C11.8287 13.2612 12.5905 13.2612 13.3123 13.2612C13.3524 12.0219 13.2722 10.7825 13.3524 9.54313C13.4326 8.55164 13.7934 7.56015 14.5152 6.89915C15.3572 6.0729 16.6002 5.78372 17.723 5.74241C18.9259 5.74241 20.1689 5.74241 21.3718 5.74241C21.3317 7.10571 21.3317 8.4277 21.3317 9.7497Z" fill="white"/>
</svg>
