<svg width="36" height="34" viewBox="0 0 36 34" fill="none" xmlns="http://www.w3.org/2000/svg">
<path d="M15.9653 19.4992L21.5206 16.69L15.9653 13.9634V19.4992Z" fill="white"/>
<path d="M17.9781 0C8.0486 0 0 7.60146 0 16.9793C0 26.3572 8.0486 33.9587 17.9781 33.9587C27.9077 33.9587 35.9563 26.3572 35.9563 16.9793C35.9563 7.60146 27.9514 0 17.9781 0ZM28.0389 20.9453C27.8202 22.3913 27.0765 23.1762 25.5018 23.3414C23.7959 23.5067 19.9028 23.6306 18.1531 23.6306C16.3597 23.6306 12.7728 23.548 10.9793 23.4241C9.44836 23.3001 8.3548 22.4739 8.17983 21.0279C8.00486 19.9538 7.91738 18.7145 7.91738 16.7315C7.91738 14.5006 8.00486 13.5504 8.22357 12.5589C8.52977 11.113 9.22965 10.4107 10.8919 10.2868C12.6416 10.1215 14.26 10.0389 17.9344 10.0389C19.7278 10.0389 23.6209 10.1215 25.4143 10.2868C26.9891 10.4107 27.8639 11.3196 28.0389 12.7655C28.1701 13.757 28.3013 15.2029 28.3013 16.7728C28.3013 19.3755 28.0389 20.9453 28.0389 20.9453Z" fill="white"/>
</svg>
