<svg width="34" height="34" viewBox="0 0 34 34" fill="none" xmlns="http://www.w3.org/2000/svg">
<path d="M16.9017 0C7.5667 0 0 7.5667 0 16.9017C0 26.2367 7.5667 33.8034 16.9017 33.8034C26.2367 33.8034 33.8034 26.2367 33.8034 16.9017C33.8445 7.5667 26.2778 0 16.9017 0ZM24.2217 18.8345C24.345 18.999 24.674 19.328 25.1675 19.7804L25.2086 19.8215C26.2778 20.8496 27.0181 21.672 27.4293 22.3711C27.4704 22.4123 27.4704 22.4534 27.5115 22.5356C27.5527 22.5767 27.5527 22.7001 27.5938 22.8235C27.6349 22.988 27.6349 23.1113 27.5938 23.2347C27.5527 23.3581 27.4704 23.4403 27.3059 23.5637C27.1414 23.646 26.9358 23.7282 26.6068 23.7282L23.646 23.7693C23.4815 23.8104 23.2347 23.7693 22.988 23.7282C22.7412 23.646 22.5356 23.5637 22.3711 23.4815L22.1244 23.3581C21.8776 23.1936 21.6309 22.9469 21.3019 22.6179C21.0141 22.2889 20.7262 22.001 20.5206 21.7132C20.315 21.4664 20.0682 21.2197 19.8215 21.0552C19.5747 20.8907 19.3691 20.8084 19.1635 20.8907C19.1224 20.8907 19.1224 20.9318 19.0813 20.9318C19.0401 20.9318 18.9579 21.0141 18.8756 21.0963C18.7934 21.1785 18.7111 21.3019 18.6289 21.4253C18.5466 21.5487 18.5055 21.7543 18.4233 22.0421C18.3822 22.2889 18.341 22.6179 18.341 22.9469C18.341 23.0702 18.341 23.1525 18.2999 23.2758C18.2588 23.3581 18.2588 23.4403 18.2177 23.4815L18.1765 23.5226C18.0532 23.6871 17.8476 23.7693 17.5597 23.7693H16.2437C15.7091 23.8104 15.1334 23.7282 14.5577 23.5637C13.982 23.3992 13.4885 23.1936 13.0361 22.9469C12.5838 22.7001 12.2136 22.4534 11.8435 22.1655C11.4734 21.9188 11.2267 21.672 11.0211 21.5075L10.7332 21.2197C10.651 21.1374 10.5687 21.0141 10.4042 20.8907C10.2808 20.7262 9.99298 20.3972 9.58175 19.8215C9.17052 19.2457 8.75928 18.7111 8.34805 18.0943C7.93681 17.4774 7.48446 16.655 6.94985 15.668C6.41525 14.6399 5.92177 13.6118 5.42829 12.5426C5.38716 12.4193 5.34604 12.2959 5.34604 12.2136C5.34604 12.1314 5.34604 12.0492 5.38716 12.0492L5.42829 11.9669C5.55166 11.8024 5.75727 11.7613 6.08626 11.7613L9.25276 11.7202C9.33501 11.7202 9.41726 11.7613 9.4995 11.8024C9.58175 11.8435 9.664 11.8847 9.664 11.8847L9.70512 11.9258C9.82849 12.008 9.91074 12.1314 9.99298 12.2959C10.1575 12.666 10.322 13.0772 10.5276 13.4885C10.7332 13.8997 10.8977 14.2287 11.0211 14.4343L11.1856 14.7633C11.3912 15.2157 11.6379 15.6269 11.8435 15.9559C12.0492 16.2849 12.2548 16.5727 12.4193 16.7372C12.5838 16.9428 12.7483 17.0662 12.9127 17.1896C13.0772 17.3129 13.2006 17.3541 13.324 17.3541C13.4473 17.3541 13.5296 17.3541 13.653 17.3129L13.6941 17.2718C13.6941 17.2718 13.7763 17.1485 13.8175 17.0251C13.8997 16.9017 13.9408 16.6961 13.982 16.4905C14.0231 16.2849 14.0642 15.9559 14.1053 15.5446C14.1464 15.1334 14.1464 14.6811 14.1053 14.1053C14.1053 13.7763 14.0642 13.5296 13.982 13.2417C13.9408 12.995 13.8586 12.8305 13.8175 12.7071L13.7352 12.5838C13.5296 12.337 13.2006 12.1725 12.7483 12.0903C12.666 12.0903 12.666 11.9669 12.7894 11.8024C12.9127 11.6379 13.0772 11.5557 13.2417 11.4734C13.653 11.2678 14.5577 11.1856 15.997 11.1856C16.6138 11.1856 17.1485 11.2267 17.5597 11.3501C17.7242 11.3912 17.8476 11.4323 17.9298 11.5146C18.0532 11.5968 18.0943 11.679 18.1765 11.8024C18.2177 11.9258 18.2588 12.0492 18.2999 12.1725C18.341 12.2959 18.341 12.4604 18.341 12.7071C18.341 12.9127 18.341 13.1595 18.341 13.324C18.341 13.5296 18.341 13.7763 18.2999 14.1464C18.2999 14.4754 18.2999 14.8044 18.2999 15.0923C18.2999 15.1745 18.2999 15.339 18.2999 15.5858C18.2999 15.8325 18.2999 15.997 18.2999 16.1204C18.2999 16.2437 18.2999 16.4082 18.341 16.5727C18.3822 16.7372 18.4233 16.9017 18.4644 17.0251C18.5466 17.1485 18.6289 17.2307 18.7111 17.3129C18.7523 17.3129 18.8345 17.3541 18.9168 17.3541C18.999 17.3541 19.0813 17.3129 19.2046 17.2307C19.328 17.1485 19.4925 16.984 19.657 16.8195C19.8215 16.655 20.0271 16.4082 20.2738 16.0381C20.5206 15.668 20.7673 15.2568 21.0552 14.8044C21.5075 14.0231 21.9188 13.1184 22.2889 12.2136C22.33 12.1314 22.3711 12.0492 22.4122 12.008C22.4534 11.9669 22.4945 11.9258 22.5356 11.8847L22.5767 11.8435C22.5767 11.8435 22.6179 11.8435 22.6179 11.8024C22.659 11.8024 22.7001 11.7613 22.7824 11.7613C22.8646 11.7613 22.9469 11.7613 23.0291 11.7613L26.3601 11.7202C26.648 11.679 26.8947 11.679 27.1003 11.7613C27.3059 11.8024 27.4293 11.8847 27.4704 11.9669L27.5527 12.0903C27.7172 12.5838 27.1414 13.7352 25.8255 15.5035C25.661 15.7503 25.3731 16.0792 25.0853 16.4905C24.4684 17.2718 24.1394 17.7653 24.0572 18.012C23.9338 18.2177 23.9749 18.5055 24.2217 18.8345Z" fill="white"/>
</svg>
