<svg width="33" height="33" viewBox="0 0 33 33" fill="none" xmlns="http://www.w3.org/2000/svg">
<path d="M16.2917 32.5833C25.2893 32.5833 32.5833 25.2893 32.5833 16.2917C32.5833 7.29403 25.2893 0 16.2917 0C7.29403 0 0 7.29403 0 16.2917C0 25.2893 7.29403 32.5833 16.2917 32.5833Z" fill="white"/>
<path d="M16.8279 25.3541C15.218 25.3506 13.6341 24.9471 12.2187 24.1797L7.08008 25.5374L8.43772 20.5141C7.37406 18.6666 6.94955 16.5199 7.22999 14.4066C7.51043 12.2933 8.48016 10.3316 9.98885 8.82549C11.4975 7.31937 13.4609 6.353 15.5747 6.07617C17.6884 5.79935 19.8344 6.22752 21.6801 7.29433C23.5258 8.36115 24.968 10.007 25.7831 11.9768C26.5983 13.9466 26.7409 16.1302 26.1889 18.1893C25.6369 20.2484 24.421 22.0679 22.7298 23.3657C21.0386 24.6635 18.9665 25.3672 16.8347 25.3677L16.8279 25.3541ZM12.436 22.4012L12.7279 22.5777C13.9613 23.3075 15.3676 23.6942 16.8008 23.6978C18.587 23.7051 20.3249 23.1181 21.7409 22.0294C23.1569 20.9406 24.1707 19.4118 24.6226 17.6837C25.0744 15.9556 24.9388 14.1263 24.237 12.4838C23.5351 10.8412 22.307 9.47869 20.7458 8.6107C19.1847 7.74271 17.3792 7.41853 15.6137 7.68921C13.8481 7.95988 12.2226 8.81003 10.9932 10.1058C9.76382 11.4016 9.00024 13.0695 8.82271 14.8469C8.64518 16.6242 9.06376 18.4102 10.0126 19.9235L10.2026 20.229L9.39485 23.2022L12.436 22.4012ZM21.7222 17.9753C21.6611 17.8735 21.4982 17.8124 21.2606 17.6902C21.023 17.568 19.8283 17.0114 19.6043 16.9028C19.3803 16.7942 19.2242 16.7806 19.0612 17.025C18.8983 17.2693 18.4367 17.8124 18.2942 17.9753C18.1516 18.1382 18.0091 18.1518 17.7715 18.0296C17.0547 17.7504 16.3946 17.3433 15.8233 16.8281C15.2867 16.3428 14.8287 15.7772 14.4656 15.1514C14.4393 15.1129 14.421 15.0695 14.4119 15.0238C14.4028 14.9781 14.403 14.931 14.4125 14.8854C14.422 14.8397 14.4406 14.7965 14.4672 14.7582C14.4939 14.7199 14.528 14.6874 14.5675 14.6627C14.6761 14.5541 14.8118 14.3776 14.934 14.235C15.0309 14.1128 15.1108 13.9781 15.1716 13.8345C15.2073 13.7689 15.2259 13.6954 15.2259 13.6207C15.2259 13.546 15.2073 13.4725 15.1716 13.4069C15.1105 13.2847 14.6286 12.0967 14.4249 11.608C14.2213 11.1192 14.0312 11.2007 13.8818 11.1939H13.4203C13.2973 11.1967 13.1764 11.2253 13.0653 11.278C12.9542 11.3306 12.8554 11.406 12.7754 11.4994C12.4993 11.7605 12.2811 12.0768 12.135 12.4275C11.9888 12.7783 11.9179 13.1559 11.9268 13.5358C12.0045 14.4381 12.3416 15.2987 12.8976 16.0135C13.9294 17.5792 15.3552 18.8458 17.0316 19.6859C17.4753 19.8803 17.9284 20.0525 18.3892 20.2018C18.8842 20.3508 19.4069 20.3833 19.9166 20.2969C20.2526 20.2261 20.5705 20.0872 20.8507 19.8887C21.1309 19.6902 21.3675 19.4364 21.5457 19.1429C21.721 18.7804 21.7825 18.3734 21.7222 17.9753Z" fill="black"/>
</svg>
