<svg width="33" height="33" viewBox="0 0 33 33" fill="none" xmlns="http://www.w3.org/2000/svg">
<path d="M16.2917 0C13.0695 0 9.91966 0.955489 7.24051 2.74564C4.56136 4.53579 2.47321 7.0802 1.24014 10.0571C0.00705889 13.034 -0.31557 16.3097 0.313047 19.47C0.941664 22.6303 2.49329 25.5332 4.77172 27.8116C7.05015 30.09 9.95305 31.6417 13.1133 32.2703C16.2736 32.8989 19.5493 32.5763 22.5262 31.3432C25.5031 30.1101 28.0475 28.022 29.8377 25.3428C31.6278 22.6637 32.5833 19.5138 32.5833 16.2917C32.5833 11.9708 30.8669 7.827 27.8116 4.77172C24.7563 1.71644 20.6125 0 16.2917 0V0ZM25.4568 7.5726L21.8059 24.7035C21.7916 24.7823 21.7581 24.8565 21.7086 24.9195C21.659 24.9826 21.5948 25.0325 21.5215 25.0651C21.4483 25.0977 21.3682 25.1118 21.2882 25.1064C21.2082 25.101 21.1307 25.076 21.0625 25.0338L15.4459 21.3103L12.4955 24.0592C12.4346 24.1109 12.3622 24.147 12.2843 24.1644C12.2064 24.1819 12.1254 24.1801 12.0484 24.1593C11.9713 24.1385 11.9005 24.0993 11.8419 24.045C11.7834 23.9907 11.739 23.923 11.7124 23.8477L9.79945 17.7784L4.64202 15.6606C4.55133 15.6164 4.47489 15.5475 4.42141 15.462C4.36794 15.3764 4.33959 15.2775 4.33959 15.1766C4.33959 15.0757 4.36794 14.9768 4.42141 14.8912C4.47489 14.8056 4.55133 14.7368 4.64202 14.6926L24.796 7.01754C24.8782 6.98447 24.9679 6.97438 25.0554 6.98834C25.143 7.0023 25.225 7.03979 25.2929 7.0968C25.3608 7.15381 25.4119 7.2282 25.4407 7.31201C25.4696 7.39581 25.4751 7.48589 25.4568 7.5726Z" fill="white"/>
<path d="M12.3436 22.0405L12.6707 18.9249L21.7697 10.0308L10.7842 17.2432L12.3436 22.0405Z" fill="white"/>
</svg>
