<svg width="35" height="34" viewBox="0 0 35 34" fill="none" xmlns="http://www.w3.org/2000/svg">
<path d="M22.072 8.42773H12.8436C10.5471 8.42773 8.6759 10.2455 8.6759 12.4763V21.4824C8.6759 23.7133 10.5471 25.531 12.8436 25.531H22.0295C24.326 25.531 26.1972 23.7133 26.1972 21.4824V12.4763C26.2397 10.2455 24.3685 8.42773 22.072 8.42773ZM17.4791 22.3913C14.3746 22.3913 11.8229 19.9539 11.8229 16.9381C11.8229 13.9223 14.3746 11.4848 17.4791 11.4848C20.5836 11.4848 23.1352 13.9223 23.1352 16.9381C23.1352 19.9539 20.5836 22.3913 17.4791 22.3913ZM23.2203 12.6003C22.4973 12.6003 21.9019 12.0219 21.9019 11.3196C21.9019 10.6173 22.4973 10.0389 23.2203 10.0389C23.9432 10.0389 24.5386 10.6173 24.5386 11.3196C24.5386 12.0219 23.9857 12.6003 23.2203 12.6003Z" fill="white"/>
<path d="M17.4787 0C7.82503 0 0 7.60146 0 16.9793C0 26.3572 7.82503 33.9587 17.4787 33.9587C27.1324 33.9587 34.9575 26.3572 34.9575 16.9793C34.9575 7.60146 27.175 0 17.4787 0ZM28.2807 21.5237C28.2807 24.87 25.4739 27.5966 22.0292 27.5966H12.8433C9.39854 27.5966 6.59174 24.87 6.59174 21.5237V12.4763C6.59174 9.13001 9.39854 6.4034 12.8433 6.4034H22.0292C25.4739 6.4034 28.2807 9.13001 28.2807 12.4763V21.5237Z" fill="white"/>
<path d="M17.479 20.4081C19.4754 20.4081 21.0938 18.873 21.0938 16.9792C21.0938 15.0855 19.4754 13.5503 17.479 13.5503C15.4825 13.5503 13.8641 15.0855 13.8641 16.9792C13.8641 18.873 15.4825 20.4081 17.479 20.4081Z" fill="white"/>
</svg>
