<svg width="214" height="205" viewBox="0 0 214 205" fill="none" xmlns="http://www.w3.org/2000/svg">
<path fill-rule="evenodd" clip-rule="evenodd" d="M0 0H185.061V126.794L214 155.149H176.969L199.207 203.759L196.495 204.996L174.172 156.211L149.949 179.947V158.649H0.00365463L0 0ZM149.945 155.662V92.3875L182.079 123.869V37.9609H2.97171V155.658L149.945 155.662ZM2.98268 34.9812H182.09V2.98709H2.98268V34.9812ZM24.6985 17.4467C24.3059 17.4617 23.9265 17.5921 23.6073 17.8215C23.2882 18.0508 23.0434 18.3692 22.9035 18.7368C22.7636 19.1044 22.7347 19.5051 22.8205 19.8891C22.9062 20.273 23.1028 20.6232 23.3857 20.8961C23.6687 21.169 24.0255 21.3526 24.4118 21.424C24.7982 21.4953 25.1969 21.4514 25.5585 21.2975C25.92 21.1437 26.2285 20.8868 26.4454 20.5588C26.6622 20.2308 26.778 19.8461 26.7783 19.4527C26.7736 19.1841 26.716 18.9191 26.6088 18.6729C26.5017 18.4266 26.3471 18.204 26.1539 18.0176C25.9607 17.8313 25.7327 17.685 25.483 17.587C25.2332 17.489 24.9667 17.4413 24.6985 17.4467ZM19.6396 19.4527C19.6237 18.4467 19.907 17.4586 20.4535 16.6143C20.9999 15.7701 21.7849 15.1077 22.7084 14.7116C23.632 14.3155 24.6523 14.2035 25.6396 14.39C26.6268 14.5764 27.5364 15.0528 28.2525 15.7585C28.9685 16.4643 29.4588 17.3674 29.6607 18.3531C29.8626 19.3387 29.7672 20.3622 29.3865 21.2933C29.0058 22.2244 28.3571 23.021 27.5229 23.5818C26.6887 24.1425 25.7068 24.442 24.7021 24.4422C24.0426 24.4475 23.3885 24.3226 22.7771 24.0747C22.1657 23.8269 21.6091 23.4608 21.139 22.9975C20.6689 22.5342 20.2945 21.9827 20.0373 21.3744C19.78 20.7662 19.6449 20.1132 19.6396 19.4527ZM47.9093 17.4467C47.5162 17.4596 47.1356 17.5882 46.8149 17.8163C46.4943 18.0444 46.2478 18.3621 46.1063 18.7296C45.9647 19.0971 45.9343 19.4982 46.0189 19.8829C46.1034 20.2676 46.2992 20.6188 46.5818 20.8928C46.8643 21.1668 47.2212 21.3514 47.6079 21.4236C47.9945 21.4959 48.3939 21.4525 48.7561 21.2989C49.1183 21.1453 49.4273 20.8883 49.6446 20.56C49.8619 20.2317 49.978 19.8466 49.9782 19.4527C49.9686 18.9116 49.7449 18.3964 49.3563 18.0203C48.9677 17.6441 48.446 17.4378 47.9056 17.4467H47.9093ZM42.8468 19.4527C42.8308 18.4467 43.1141 17.4586 43.6606 16.6143C44.2071 15.7701 44.9921 15.1077 45.9156 14.7116C46.8391 14.3155 47.8595 14.2035 48.8467 14.39C49.834 14.5764 50.7436 15.0528 51.4596 15.7585C52.1757 16.4643 52.6659 17.3674 52.8679 18.3531C53.0698 19.3387 52.9743 20.3622 52.5937 21.2933C52.213 22.2244 51.5642 23.021 50.7301 23.5818C49.8959 24.1425 48.914 24.442 47.9093 24.4422C47.2498 24.4475 46.5956 24.3226 45.9843 24.0747C45.3729 23.8269 44.8163 23.4608 44.3462 22.9975C43.8761 22.5342 43.5017 21.9827 43.2444 21.3744C42.9872 20.7662 42.852 20.1132 42.8468 19.4527ZM72.8966 17.4467C72.504 17.4617 72.1245 17.5921 71.8054 17.8215C71.4862 18.0508 71.2415 18.3692 71.1016 18.7368C70.9617 19.1044 70.9328 19.5051 71.0185 19.8891C71.1043 20.273 71.3008 20.6232 71.5838 20.8961C71.8668 21.169 72.2236 21.3526 72.6099 21.424C72.9962 21.4953 73.395 21.4514 73.7565 21.2975C74.1181 21.1437 74.4265 20.8868 74.6434 20.5588C74.8603 20.2308 74.9761 19.8461 74.9764 19.4527C74.9712 19.1839 74.9131 18.9189 74.8056 18.6726C74.698 18.4263 74.5431 18.2037 74.3496 18.0174C74.1561 17.8311 73.9279 17.6848 73.6779 17.5869C73.428 17.489 73.1612 17.4413 72.8929 17.4467H72.8966ZM67.8377 19.4527C67.8217 18.4465 68.1051 17.4583 68.6518 16.614C69.1984 15.7696 69.9836 15.1072 70.9073 14.7112C71.8311 14.3152 72.8516 14.2035 73.839 14.3902C74.8264 14.5769 75.7359 15.0537 76.4518 15.7598C77.1678 16.4659 77.6577 17.3694 77.8592 18.3553C78.0607 19.3412 77.9648 20.3648 77.5835 21.2958C77.2023 22.2269 76.553 23.0233 75.7183 23.5836C74.8837 24.1439 73.9014 24.4428 72.8966 24.4422C72.237 24.4475 71.5829 24.3226 70.9715 24.0747C70.3602 23.8269 69.8035 23.4608 69.3334 22.9975C68.8633 22.5342 68.4889 21.9827 68.2317 21.3744C67.9744 20.7662 67.8393 20.1132 67.834 19.4527H67.8377ZM80.0535 47.0357L124.373 70.5554V123.104L80.0499 144.819L33.917 123.122V70.5407L80.0535 47.0357ZM36.9216 73.9744L78.5439 96.8242V140.814L36.8997 121.23L36.9216 73.9744ZM81.5266 140.77L121.369 121.244V74.022L81.5266 96.8022V140.77ZM80.0206 94.2288L119.793 71.4998L101.466 61.7735L60.8416 83.7044L80.0206 94.2288ZM57.7273 81.9985L98.3005 60.0969L80.0243 50.3998L38.5957 71.4998L57.7273 81.9985ZM152.928 99.4928V172.841L174.034 152.162H206.689L152.928 99.4928ZM63.1919 107.707L48.9108 98.962L50.468 96.4178L64.749 105.163L63.1919 107.707Z" fill="black"/>
</svg>
