<svg width="23" height="23" viewBox="0 0 23 23" fill="none" xmlns="http://www.w3.org/2000/svg">
<path d="M11.486 0C5.14216 0 0 5.14216 0 11.486C0 17.8299 5.14216 22.9721 11.486 22.9721C17.8299 22.9721 22.9721 17.8299 22.9721 11.486C23 5.14216 17.8578 0 11.486 0ZM16.4605 12.7995C16.5443 12.9113 16.7679 13.1349 17.1033 13.4423L17.1312 13.4702C17.8578 14.1689 18.3609 14.7278 18.6403 15.2029C18.6683 15.2309 18.6683 15.2588 18.6962 15.3147C18.7242 15.3426 18.7242 15.4265 18.7521 15.5103C18.7801 15.6221 18.7801 15.706 18.7521 15.7898C18.7242 15.8736 18.6683 15.9295 18.5565 16.0134C18.4447 16.0693 18.305 16.1252 18.0814 16.1252L16.0693 16.1531C15.9575 16.181 15.7898 16.1531 15.6221 16.1252C15.4544 16.0693 15.3147 16.0134 15.2029 15.9575L15.0352 15.8736C14.8676 15.7618 14.6999 15.5942 14.4763 15.3706C14.2807 15.147 14.0851 14.9514 13.9453 14.7558C13.8056 14.5881 13.6379 14.4204 13.4702 14.3086C13.3026 14.1968 13.1628 14.1409 13.0231 14.1968C12.9951 14.1968 12.9951 14.2248 12.9672 14.2248C12.9392 14.2248 12.8834 14.2807 12.8275 14.3366C12.7716 14.3925 12.7157 14.4763 12.6598 14.5601C12.6039 14.644 12.5759 14.7837 12.52 14.9793C12.4921 15.147 12.4642 15.3706 12.4642 15.5942C12.4642 15.678 12.4642 15.7339 12.4362 15.8177C12.4083 15.8736 12.4083 15.9295 12.3803 15.9575L12.3524 15.9854C12.2685 16.0972 12.1288 16.1531 11.9332 16.1531H11.0389C10.6756 16.181 10.2843 16.1252 9.89307 16.0134C9.50182 15.9016 9.16646 15.7618 8.85905 15.5942C8.55164 15.4265 8.30012 15.2588 8.0486 15.0632C7.79708 14.8955 7.6294 14.7278 7.48967 14.616L7.29405 14.4204C7.23815 14.3645 7.18226 14.2807 7.07047 14.1968C6.98663 14.0851 6.79101 13.8615 6.51154 13.4702C6.23208 13.079 5.95261 12.7157 5.67315 12.2965C5.39368 11.8773 5.08627 11.3183 4.72296 10.6476C4.35966 9.94897 4.0243 9.2503 3.68894 8.52369C3.661 8.43985 3.63305 8.35602 3.63305 8.30012C3.63305 8.24423 3.63305 8.18834 3.661 8.18834L3.68894 8.13244C3.77278 8.02066 3.91251 7.99271 4.13609 7.99271L6.28797 7.96476C6.34386 7.96476 6.39976 7.99271 6.45565 8.02066C6.51154 8.0486 6.56744 8.07655 6.56744 8.07655L6.59538 8.1045C6.67922 8.16039 6.73511 8.24423 6.79101 8.35601C6.90279 8.60753 7.01458 8.887 7.15431 9.16646C7.29405 9.44593 7.40583 9.6695 7.48967 9.80923L7.60146 10.0328C7.74119 10.3402 7.90887 10.6197 8.0486 10.8433C8.18833 11.0668 8.32807 11.2625 8.43985 11.3742C8.55164 11.514 8.66343 11.5978 8.77521 11.6817C8.887 11.7655 8.97084 11.7934 9.05468 11.7934C9.13852 11.7934 9.19441 11.7934 9.27825 11.7655L9.3062 11.7375C9.3062 11.7375 9.36209 11.6537 9.39004 11.5699C9.44593 11.486 9.47388 11.3463 9.50182 11.2066C9.52977 11.0668 9.55771 10.8433 9.58566 10.5638C9.61361 10.2843 9.61361 9.97691 9.58566 9.58566C9.58566 9.36209 9.55771 9.19441 9.50182 8.99879C9.47388 8.83111 9.41798 8.71932 9.39004 8.63548L9.33414 8.55164C9.19441 8.38396 8.97084 8.27217 8.66343 8.21628C8.60753 8.21628 8.60753 8.13244 8.69137 8.02066C8.77521 7.90887 8.887 7.85298 8.99878 7.79708C9.27825 7.65735 9.89307 7.60146 10.8712 7.60146C11.2904 7.60146 11.6537 7.62941 11.9332 7.71324C12.045 7.74119 12.1288 7.76914 12.1847 7.82503C12.2685 7.88092 12.2965 7.93682 12.3524 8.02066C12.3803 8.1045 12.4083 8.18834 12.4362 8.27217C12.4642 8.35602 12.4642 8.4678 12.4642 8.63548C12.4642 8.77521 12.4642 8.94289 12.4642 9.05468C12.4642 9.19441 12.4642 9.36209 12.4362 9.61361C12.4362 9.83718 12.4362 10.0608 12.4362 10.2564C12.4362 10.3123 12.4362 10.4241 12.4362 10.5917C12.4362 10.7594 12.4362 10.8712 12.4362 10.955C12.4362 11.0389 12.4362 11.1507 12.4642 11.2625C12.4921 11.3742 12.52 11.486 12.548 11.5699C12.6039 11.6537 12.6598 11.7096 12.7157 11.7655C12.7436 11.7655 12.7995 11.7934 12.8554 11.7934C12.9113 11.7934 12.9672 11.7655 13.051 11.7096C13.1349 11.6537 13.2467 11.5419 13.3584 11.4301C13.4702 11.3183 13.61 11.1507 13.7776 10.8991C13.9453 10.6476 14.113 10.3682 14.3086 10.0608C14.616 9.52977 14.8955 8.91495 15.147 8.30012C15.175 8.24423 15.2029 8.18834 15.2309 8.16039C15.2588 8.13244 15.2868 8.1045 15.3147 8.07655L15.3426 8.0486C15.3426 8.0486 15.3706 8.0486 15.3706 8.02066C15.3985 8.02066 15.4265 7.99271 15.4824 7.99271C15.5383 7.99271 15.5942 7.99271 15.6501 7.99271L17.9137 7.96476C18.1094 7.93682 18.277 7.93682 18.4168 7.99271C18.5565 8.02066 18.6403 8.07655 18.6683 8.13244L18.7242 8.21628C18.836 8.55164 18.4447 9.33414 17.5504 10.5358C17.4386 10.7035 17.243 10.9271 17.0474 11.2066C16.6282 11.7375 16.4046 12.0729 16.3487 12.2406C16.2649 12.3803 16.2928 12.5759 16.4605 12.7995Z" fill="#A2A2A2"/>
</svg>
