<svg width="23" height="23" viewBox="0 0 23 23" fill="none" xmlns="http://www.w3.org/2000/svg">
<path d="M11.9665 4.87517C8.77078 4.87517 6.1582 7.48774 6.1582 10.6835C6.1582 11.7798 6.46145 12.8529 7.04461 13.7859L7.18457 13.9959L6.60141 16.1419L8.79411 15.5587L9.00404 15.6754C9.89045 16.2119 10.9168 16.4918 11.9665 16.4918C15.1623 16.4918 17.7748 13.8792 17.7748 10.6835C17.7748 9.1206 17.1683 7.67436 16.072 6.57801C14.9756 5.48166 13.5294 4.87517 11.9665 4.87517ZM15.3955 13.1794C15.2556 13.576 14.5558 13.9492 14.2059 14.0192C13.9026 14.0658 13.5294 14.0892 13.1095 13.9492C12.8529 13.8792 12.5264 13.7626 12.1065 13.576C10.357 12.8295 9.21398 11.0567 9.12068 10.9401C9.02737 10.8234 8.39755 9.98369 8.39755 9.14393C8.39755 8.28085 8.84076 7.86097 9.00404 7.69768C9.16733 7.51107 9.35394 7.48774 9.47058 7.48774C9.58721 7.48774 9.70384 7.48774 9.79715 7.48774C9.91378 7.48774 10.0537 7.44109 10.1937 7.79099C10.3337 8.14089 10.6836 9.00397 10.7302 9.09728C10.7769 9.19058 10.8002 9.28389 10.7535 9.40052C10.7069 9.51715 10.6602 9.58713 10.5903 9.68044C10.5203 9.77375 10.4036 9.91371 10.3337 9.98369C10.2404 10.077 10.147 10.1703 10.2637 10.3336C10.357 10.5202 10.7069 11.08 11.2434 11.5466C11.9199 12.1531 12.4797 12.3163 12.643 12.4097C12.8063 12.503 12.9229 12.4796 13.0162 12.363C13.1095 12.2464 13.4594 11.8498 13.5761 11.6865C13.6927 11.5232 13.8093 11.5466 13.9726 11.5932C14.1359 11.6399 14.999 12.0831 15.1623 12.1531C15.3255 12.223 15.4422 12.293 15.4888 12.363C15.5355 12.4096 15.5355 12.7595 15.3955 13.1794Z" fill="#A1A1A1"/>
<path d="M11.5 0C5.15517 0 0 5.15517 0 11.5C0 17.8448 5.15517 23 11.5 23C17.8448 23 23 17.8448 23 11.5C23 5.15517 17.8448 0 11.5 0ZM11.9665 17.6815C10.8002 17.6815 9.63387 17.3783 8.63083 16.8418L4.92191 17.8215L5.92495 14.2059C5.31846 13.1562 4.99189 11.9432 4.99189 10.7069C4.99189 6.85801 8.14097 3.70892 11.9899 3.70892C13.856 3.70892 15.6055 4.43205 16.9351 5.76166C18.2647 7.09128 18.9878 8.84077 18.9878 10.7069C18.9645 14.5325 15.8154 17.6815 11.9665 17.6815Z" fill="#A1A1A1"/>
</svg>
