<svg width="23" height="23" viewBox="0 0 33 33" fill="none" xmlns="http://www.w3.org/2000/svg">
<path d="M14.4668 18.686L19.501 15.9939L14.4668 13.3809V18.686Z" fill="#A1A1A1"/>
<path d="M16.2917 0C7.29359 0 0 7.28473 0 16.2719C0 25.259 7.29359 32.5437 16.2917 32.5437C25.2897 32.5437 32.5833 25.259 32.5833 16.2719C32.5833 7.28473 25.3294 0 16.2917 0ZM25.4087 20.0726C25.2105 21.4583 24.5366 22.2105 23.1096 22.3689C21.5637 22.5272 18.0358 22.646 16.4502 22.646C14.825 22.646 11.5746 22.5668 9.94941 22.4481C8.56204 22.3293 7.57107 21.5375 7.41251 20.1518C7.25395 19.1224 7.17468 17.9347 7.17468 16.0343C7.17468 13.8964 7.25395 12.9858 7.45215 12.0356C7.72962 10.65 8.36385 9.97691 9.87013 9.85814C11.4557 9.69978 12.9223 9.6206 16.252 9.6206C17.8772 9.6206 21.4051 9.69978 23.0303 9.85814C24.4573 9.97691 25.2501 10.8479 25.4087 12.2336C25.5276 13.1838 25.6465 14.5695 25.6465 16.0739C25.6465 18.5681 25.4087 20.0726 25.4087 20.0726Z" fill="#A1A1A1"/>
</svg>
